<svg xmlns="http://www.w3.org/2000/svg" xmlns:xlink="http://www.w3.org/1999/xlink" width="40" height="40" viewBox="0 0 40 40">
  <defs>
    <clipPath id="clip-icon-fb">
      <rect width="40" height="40"/>
    </clipPath>
  </defs>
  <g id="icon-fb" clip-path="url(#clip-icon-fb)">
    <g id="FB">
      <path id="Path_493" data-name="Path 493" d="M40,20A20,20,0,1,0,16.875,39.757V25.781H11.8V20h5.078V15.594c0-5.012,2.986-7.781,7.554-7.781a30.755,30.755,0,0,1,4.477.391v4.922H26.384c-2.484,0-3.259,1.542-3.259,3.123V20h5.547l-.887,5.781h-4.66V39.757A20,20,0,0,0,40,20Z" transform="translate(0 0)" fill="#1877f2"/>
      <path id="Path_494" data-name="Path 494" d="M317.988,217.969l.887-5.781h-5.547v-3.752c0-1.582.775-3.123,3.259-3.123h2.522v-4.922a30.755,30.755,0,0,0-4.477-.391c-4.568,0-7.554,2.769-7.554,7.781v4.406H302v5.781h5.078v13.976a20.21,20.21,0,0,0,6.25,0V217.969Z" transform="translate(-290.203 -192.188)" fill="#fff"/>
    </g>
  </g>
</svg>
