<svg xmlns="http://www.w3.org/2000/svg" xmlns:xlink="http://www.w3.org/1999/xlink" width="32" height="32" viewBox="0 0 32 32">
  <defs>
    <clipPath id="clip-icon-announcement">
      <rect width="32" height="32"/>
    </clipPath>
  </defs>
  <g id="icon-announcement" clip-path="url(#clip-icon-announcement)">
    <g id="公告" transform="translate(-15.575)">
      <g id="Group_14" data-name="Group 14" transform="translate(15.575)">
        <path id="Path_51" data-name="Path 51" d="M16.572,11.929h1.569V11a6.765,6.765,0,0,1-1.234-3.886A7.361,7.361,0,0,1,24.479,0a7.4,7.4,0,0,1,7.555,6.644h2.181A10.472,10.472,0,0,0,41.151,4.08V2.8a.784.784,0,0,1,.808-.759h.379a.784.784,0,0,1,.808.759V7.59A5.953,5.953,0,0,1,46.03,9.211a5.279,5.279,0,0,1,0,7.464A5.953,5.953,0,0,1,43.146,18.3v4.587a.968.968,0,0,1-1,.936h0a.968.968,0,0,1-1-.936v-1.1a10.475,10.475,0,0,0-6.905-2.537H30.161v2.649a1.08,1.08,0,0,1-1.112,1.044h-.643l2.235,7.619A1.159,1.159,0,0,1,29.468,32h-4.21a1.207,1.207,0,0,1-1.173-.839l-2.413-8.226h-.528a1.08,1.08,0,0,1-1.112-1.044v-3.4l-1.353-1.27A1.672,1.672,0,0,1,18.141,16V13.8H16.572a.968.968,0,0,1-1-.937h0A.968.968,0,0,1,16.572,11.929Zm5.081,5.439h8.4V11.915a7.782,7.782,0,0,1-5.578,2.307,7.869,7.869,0,0,1-4.344-1.29v3.01ZM24.741,1.879a5.421,5.421,0,0,0-5.833,5.478,5.431,5.431,0,0,0,5.31,4.987,5.421,5.421,0,0,0,5.833-5.478A5.431,5.431,0,0,0,24.741,1.879ZM44.56,15.409a3.489,3.489,0,0,0,0-4.932,3.9,3.9,0,0,0-1.414-.921v6.774a3.9,3.9,0,0,0,1.414-.921ZM41.151,6.483a12.451,12.451,0,0,1-4.492,1.8v9.3a12.455,12.455,0,0,1,4.492,1.791ZM34.665,17.376V8.509c-.149.005-2.614.008-2.614.008v8.851S34.526,17.371,34.665,17.376Zm-6.5,3.686V19.241H22.026v1.821ZM25.85,30.127h2.6l-2.11-7.192h-2.6Z" transform="translate(-15.575)" fill="#fff"/>
        <path id="Path_52" data-name="Path 52" d="M349.286,64.235l-.2-2.909a.6.6,0,0,1,.594-.635h.395a.6.6,0,0,1,.594.635l-.2,2.909a.6.6,0,0,1-.594.555h0A.6.6,0,0,1,349.286,64.235Z" transform="translate(-340.979 -57.008)" fill="#fff"/>
      </g>
      <circle id="Ellipse_4" data-name="Ellipse 4" cx="0.848" cy="0.848" r="0.848" transform="translate(23.64 8.936)" fill="#fff"/>
    </g>
  </g>
</svg>
