<svg xmlns="http://www.w3.org/2000/svg" xmlns:xlink="http://www.w3.org/1999/xlink" width="40" height="40" viewBox="0 0 40 40">
  <defs>
    <clipPath id="clip-icon-line">
      <rect width="40" height="40"/>
    </clipPath>
  </defs>
  <g id="icon-line" clip-path="url(#clip-icon-line)">
    <g id="LINE">
      <circle id="Ellipse_21" data-name="Ellipse 21" cx="20" cy="20" r="20" transform="translate(0 0)" fill="#00b900"/>
      <g id="TYPE_A" data-name="TYPE A" transform="translate(6.334 7.9)">
        <g id="Group_104" data-name="Group 104" transform="translate(0)">
          <path id="Path_495" data-name="Path 495" d="M407.3,272.3c0-5.875-5.89-10.655-13.131-10.655s-13.13,4.78-13.13,10.655c0,5.267,4.671,9.679,10.981,10.513.428.092,1.01.282,1.157.647a2.7,2.7,0,0,1,.042,1.187s-.154.926-.187,1.124c-.057.332-.264,1.3,1.137.708s7.562-4.453,10.317-7.623h0A9.48,9.48,0,0,0,407.3,272.3" transform="translate(-381.035 -261.648)" fill="#fff"/>
          <g id="Group_103" data-name="Group 103" transform="translate(4.307 7.816)">
            <path id="Path_496" data-name="Path 496" d="M410.436,285.4h-.921a.256.256,0,0,0-.255.255v5.721a.256.256,0,0,0,.255.255h.921a.256.256,0,0,0,.256-.255V285.66a.256.256,0,0,0-.256-.255" transform="translate(-404.281 -285.405)" fill="#00b900"/>
            <path id="Path_497" data-name="Path 497" d="M421.523,285.4H420.6a.255.255,0,0,0-.256.255v3.4l-2.622-3.541a.27.27,0,0,0-.02-.026l0,0-.015-.016,0,0-.014-.011-.007-.005-.013-.009-.008,0-.013-.008-.008,0-.015-.006-.008,0-.015,0-.009,0-.015,0-.011,0-.013,0h-.943a.256.256,0,0,0-.256.255v5.721a.256.256,0,0,0,.256.255h.921a.256.256,0,0,0,.256-.255v-3.4l2.625,3.545a.256.256,0,0,0,.065.063l0,0,.016.01.007,0,.013.006.012.005.008,0,.017.006h0a.25.25,0,0,0,.065.009h.921a.255.255,0,0,0,.256-.255V285.66a.255.255,0,0,0-.256-.255" transform="translate(-409.029 -285.405)" fill="#00b900"/>
            <path id="Path_498" data-name="Path 498" d="M398.062,290.2h-2.5v-4.544a.255.255,0,0,0-.255-.256h-.921a.256.256,0,0,0-.256.256v5.721h0a.255.255,0,0,0,.072.177l0,0,0,0a.254.254,0,0,0,.177.071h3.68a.256.256,0,0,0,.255-.256v-.921a.256.256,0,0,0-.255-.256" transform="translate(-394.127 -285.405)" fill="#00b900"/>
            <path id="Path_499" data-name="Path 499" d="M439.538,286.838a.256.256,0,0,0,.255-.256v-.921a.256.256,0,0,0-.255-.256h-3.68a.255.255,0,0,0-.177.072l0,0,0,0a.257.257,0,0,0-.071.176h0v5.72h0a.255.255,0,0,0,.071.177l0,0,0,0a.255.255,0,0,0,.177.071h3.68a.255.255,0,0,0,.255-.256v-.921a.255.255,0,0,0-.255-.256h-2.5v-.967h2.5a.255.255,0,0,0,.255-.256v-.921a.255.255,0,0,0-.255-.256h-2.5v-.967Z" transform="translate(-421.957 -285.405)" fill="#00b900"/>
          </g>
        </g>
      </g>
    </g>
  </g>
</svg>
