<svg xmlns="http://www.w3.org/2000/svg" width="15.006" height="20.736" viewBox="0 0 15.006 20.736">
  <g id="map-marker-solid" transform="translate(-6.22 -2)">
    <path id="路径_1619" data-name="路径 1619" d="M13.72,2a7.506,7.506,0,0,0-7.5,7.468c0,2.973,1.668,5.463,2.89,7.277l.223.331a63.419,63.419,0,0,0,3.909,5.093l.484.567.484-.567a63.553,63.553,0,0,0,3.909-5.093l.223-.337c1.216-1.815,2.884-4.3,2.884-7.271A7.506,7.506,0,0,0,13.72,2Zm0,10.823A4.177,4.177,0,1,1,17.9,8.647,4.177,4.177,0,0,1,13.72,12.823Z" transform="translate(0 0)" fill="#ff8bc0"/>
    <path id="路径_1620" data-name="路径 1620" d="M19.02,11.085A2.375,2.375,0,1,1,16.645,8.71a2.375,2.375,0,0,1,2.375,2.375Z" transform="translate(-2.925 -2.438)" fill="#ff8bc0"/>
  </g>
</svg>
