<svg xmlns="http://www.w3.org/2000/svg" viewBox="0 0 524.09 624.52"><defs><style>.cls-1{fill:#ffe100;}</style></defs><g id="圖層_2" data-name="圖層 2"><g id="Vrstva_1" data-name="Vrstva 1"><path class="cls-1" d="M196.73,492s1-50-11-73-61-61-83-111,0-115,7-125,48-62,84-73,76-16,103-10,89,32,120,79,15,98,9,119-26,56-46,78-26,32-33,48-11,29-12,46,0,25,0,25-33.24,10.34-66.24,10.55C225.16,505.81,196.73,492,196.73,492Z"/><path d="M255.46,542.19c-16.4-.42-30.19-3.77-45.39-8.11h0c-6-1.74-10.58-3.82-14-7.23h0a16.54,16.54,0,0,1-4.74-12.47h0c.14-4.38,1.35-8.47,2.75-12.95h0a6.29,6.29,0,0,1,7.9-4.09h0a6.29,6.29,0,0,1,4.1,7.9h0c-1.35,4.19-2.15,7.49-2.17,9.45h0c.05,2,.2,2.27,1.1,3.3h0c.95,1,3.55,2.59,8.53,4h0c15,4.27,27.43,7.24,42.25,7.63h.33c25.29.71,56.63-1.93,76-14h0a6.29,6.29,0,0,1,8.65,2.06h0a6.3,6.3,0,0,1-2.06,8.66h0c-23.66,14.41-56.58,16.45-82.91,15.89h-.33Z"/><path d="M210.53,561c-6-1.74-10.58-3.82-14-7.24h0a16.54,16.54,0,0,1-4.74-12.47h0c.13-4.38,1.35-8.47,2.75-13h0a6.28,6.28,0,0,1,7.9-4.09h0a6.29,6.29,0,0,1,4.09,7.9h0c-1.35,4.19-2.15,7.49-2.17,9.45h0c.05,2,.21,2.27,1.1,3.3h0c1,1,3.56,2.6,8.53,4h0c15,4.27,27.42,7.24,42.25,7.63h.33c25.29.71,56.63-1.93,76-14h0a6.28,6.28,0,0,1,8.65,2.06h0a6.29,6.29,0,0,1-2.06,8.65h0c-23.66,14.41-56.58,16.44-82.91,15.89h-.33c-16.4-.42-30.18-3.77-45.39-8.1Z"/><path d="M214.9,589.16c-5.72-1.74-10.13-3.87-13.4-7.32h0a16.87,16.87,0,0,1-4.44-12.33h0c.13-4.32,1.28-8.39,2.6-12.87h0a6.28,6.28,0,0,1,7.83-4.22h0a6.3,6.3,0,0,1,4.22,7.84h0c-1.28,4.2-2.05,7.52-2.07,9.55h0c0,2,.24,2.45,1,3.42h0c.86,1,3.21,2.49,7.84,3.87h0c14.1,4.24,25.75,7.18,39.63,7.54h.31c23.78.68,53.19-2,71.31-14h0a6.28,6.28,0,0,1,8.71,1.82h0a6.3,6.3,0,0,1-1.82,8.71h0c-22.47,14.53-53.64,16.61-78.51,16.09h-.32c-15.54-.39-28.6-3.75-42.94-8.07Z"/><path d="M265.2,624.51a34.48,34.48,0,0,1-15.06-4h0a29.53,29.53,0,0,1-6.76-4.63h0a21.12,21.12,0,0,1-4.71-6.65h0c-2.26-5.06-3-10.64-3.84-18.58h0a6.3,6.3,0,0,1,5.61-6.92h0a6.3,6.3,0,0,1,6.91,5.61h0a76.17,76.17,0,0,0,2,12.45h0A10,10,0,0,0,252,606.7h0a16.61,16.61,0,0,0,3.91,2.6h0a22,22,0,0,0,9.56,2.62h0c4.67.06,9.9-1.32,16.23-7.43h0a6.28,6.28,0,0,1,8.89.08h0a6.29,6.29,0,0,1-.08,8.9h0c-8.16,8.1-17.23,11.24-25.13,11h-.22Z"/><path d="M195.49,497.27,193.3,496l-.69-2.45a77.44,77.44,0,0,1-2.16-15.87h0c-.3-5.51-.35-11-.5-15.29h0a90.11,90.11,0,0,0-9-36.82h0c-5.34-11-13-21.33-22.66-31.85h0c-15.95-17.36-31.94-34.67-44.66-54.14h0C101,320.13,91.55,298.41,89.21,272.75h0a185.05,185.05,0,0,1-.75-21.65h0c1-43.28,18-84.42,54.2-113.38h0c12.05-9.64,26.24-22.21,46.59-32h0c20.36-9.85,46.83-16.83,83.16-15.92h0q2.54.06,5.13.18h0C302.6,91.06,330,101.45,354.83,116h0c24.81,14.59,47,33.34,61.19,52.12h0c18.56,24.56,25.49,52.86,24.77,81h0c-.63,25.48-7.39,50.92-17.3,74.2h0c-14.91,34.8-39.1,56.64-58.73,84.07h0c-5.5,7.62-11.31,19.17-15.67,31.35h0c-4.38,12.17-7.32,25.07-7.55,35.24h0a40,40,0,0,0,1,10.83h0a6.28,6.28,0,0,1-1.8,6.2h0a6.3,6.3,0,0,1-1.9,8.36h0c-9.14,6.16-20.78,8.85-32.47,10.41h0c-11.68,1.52-23.51,1.74-32.68,2.06h0c-4.6.15-9.45.2-14.44.08h0c-21.4-.57-45.31-3.92-63.77-14.64Zm64.08,2.05c4.72.12,9.33.08,13.71-.07h0c9.28-.31,20.7-.56,31.48-2h0c10.33-1.31,20-3.83,26.22-7.81h0a6.46,6.46,0,0,1-.61-1.51h0A52.24,52.24,0,0,1,329,473.66h0c.32-12.21,3.6-26.05,8.29-39.18h0C342,421.36,348.07,409,354.54,400h0c20.79-28.77,43.87-49.81,57.37-81.65h0c9.43-22.14,15.73-46.14,16.3-69.58h0c.61-25.94-5.62-51.06-22.24-73.1h0c-12.79-17-34-35-57.52-48.85h0C324.92,113,298.94,103.42,277,102.5h0c-1.65-.07-3.28-.12-4.89-.16h0c-34.61-.84-58.75,5.69-77.37,14.67h0c-18.63,9-31.81,20.59-44.2,30.53h0C117.47,174.07,102.08,211.11,101,251.4h0a175.59,175.59,0,0,0,.7,20.19h0c2.15,23.25,10.53,42.81,22.46,61.1h0c11.92,18.27,27.42,35.15,43.39,52.5h0c10.19,11.09,18.65,22.36,24.72,34.88h0a102.86,102.86,0,0,1,10.21,41.85h0c.17,4.54.22,9.92.5,15.07h0a85.52,85.52,0,0,0,1.14,10.71h0c15.08,8,36.16,11.19,55.41,11.62Z"/><path d="M294.15,499.72c-.42-7.14-.7-20.76-1-34.43h0c-.26-13.64-.51-27.31-.84-34h0c-.77-16.94.61-33.39-4.13-47.54h0c-1.25-3.73-2.38-5-3.4-5.64h0c-1-.7-3.08-1.27-7.05-1.26h-2.09l-7.22,0h0c-6.39,0-13.18.23-17.19,1.26h0a15.29,15.29,0,0,0-6.37,3.1h0a14,14,0,0,0-3.63,5h0c-1.87,4.05-2.56,9.86-2.54,16.08h0c0,4.47.32,9.13.53,13.55h0c1.14,23.29,0,60.66,1.26,83.09h0a5.75,5.75,0,0,1-5.43,6h0a5.76,5.76,0,0,1-6.06-5.43h0c-1.25-23.26-.14-60.63-1.25-83.15h0c-.21-4.26-.55-9.12-.55-14.11h0A60.36,60.36,0,0,1,229,386.51h0a27.44,27.44,0,0,1,8.45-14h0a26.66,26.66,0,0,1,11-5.52h0c6.09-1.48,13.31-1.58,20-1.6h0c2.56,0,5,0,7.22,0h2.09c4.79,0,9.26.53,13.28,3.09h0c4,2.59,6.49,6.77,8.09,11.71h0c5.62,17.24,3.86,34.77,4.69,50.58h0c.35,7.05.59,20.65.86,34.31h0c.26,13.63.55,27.32.95,34h0a5.75,5.75,0,0,1-5.4,6.08h-.35a5.75,5.75,0,0,1-5.73-5.41Z"/><path d="M240.44,373.56c-2.44-23.1-4.68-38.7-8.08-57.68h0c-1.07-6.12-2.2-12.73-3.55-19.4h0q-4,.36-7.93.38h0c-9.14,0-18.11-1.54-26-5.28h0A37.82,37.82,0,0,1,181,279.64h0a32.63,32.63,0,0,1-6.57-18.81h0a25.62,25.62,0,0,1,4-13.76h0A23.92,23.92,0,0,1,199,235.25h0a30.86,30.86,0,0,1,24.51,13.11h0c6.93,10.18,11.18,22.66,14.21,35.13h0a88.67,88.67,0,0,0,16.17-5.12h0c-.83-.91-1.64-1.85-2.42-2.83h0a50.83,50.83,0,0,1-9.4-18h0a36,36,0,0,1-1.12-9.06h0c0-5.42,1.08-11.66,4.88-17.08h0c3.76-5.46,10.74-9.33,19.55-9.22h.45c7.35,0,13.59,2.59,17.58,7.14h0c4,4.53,5.48,10.35,5.48,16.1h0c0,7.63-2.5,15.57-6.48,22.68h0A50.71,50.71,0,0,1,274,279.21h0a63,63,0,0,0,19.14,5.19h0c1.3-7,2.73-13.94,4.38-20.45h0a50.22,50.22,0,0,1,9.62-19.43h0c4.86-5.89,12.14-10.74,21.26-10.72h0a29.78,29.78,0,0,1,10.74,2.09h0a18,18,0,0,1,9.55,8.39h0A24.54,24.54,0,0,1,351.4,256h0a39.89,39.89,0,0,1-3.79,16.36h0a33,33,0,0,1-10.16,12.95h0c-10.1,7.23-22.42,10.61-34.73,11h0c-1.46,8.53-2.84,17.12-4.29,25.18h0c-3.34,18.56-6.22,32.88-9.25,49.58h0a5.75,5.75,0,0,1-6.68,4.63h0a5.74,5.74,0,0,1-4.63-6.68h0c3.05-16.84,5.92-31.14,9.24-49.57h0c1.35-7.48,2.64-15.53,4-23.66h0a72.79,72.79,0,0,1-25-7.58h0c-.91-.48-1.81-1-2.69-1.57h0a98.11,98.11,0,0,1-23.29,8.14h0c1.33,6.7,2.41,13.21,3.5,19.13h0c3.44,19.18,5.74,35.21,8.2,58.49h0a5.75,5.75,0,0,1-5.12,6.32h0c-.2,0-.41,0-.61,0h0a5.75,5.75,0,0,1-5.71-5.14Zm-14.16-88.4c-2.86-11.42-6.65-22.27-12.24-30.29h0c-2.92-4.43-9.53-8.24-15-8.12h0c-4.14.11-7.62,1.47-10.88,6.45h0a14,14,0,0,0-2.24,7.63h0c0,4,1.66,8.31,4.4,12.08h0a26.54,26.54,0,0,0,9.5,8.28h0c5.9,2.81,13.24,4.17,21.09,4.16h0c1.78,0,3.58-.06,5.4-.19ZM316,251.9a39.11,39.11,0,0,0-7.3,14.88h0c-1.42,5.61-2.69,11.64-3.87,17.86h0c9.58-.67,18.75-3.55,25.94-8.72h0a21.93,21.93,0,0,0,6.44-8.45h0A28.34,28.34,0,0,0,339.89,256h0a13.12,13.12,0,0,0-1.31-6.21h0a6.43,6.43,0,0,0-3.53-3.11h0a18.58,18.58,0,0,0-6.64-1.33h0c-4.94,0-8.88,2.41-12.44,6.6Zm-60.76-13.83c-1.85,2.54-2.77,6.57-2.75,10.41h0a23.87,23.87,0,0,0,.74,6.09h0a39.28,39.28,0,0,0,7.28,13.81h0a43.3,43.3,0,0,0,3.78,4.17h0a37.29,37.29,0,0,0,8.14-10.09h0c3.18-5.6,5-12,5-17h0c0-3.86-1-6.7-2.58-8.47h0c-1.6-1.75-4-3.15-9.14-3.27h-.29c-5.91.12-8.27,1.9-10.18,4.39Z"/><path d="M445.84,423.94c-16.08-14.35-21.3-20.89-34.95-36.9h0a6.3,6.3,0,0,1,.71-8.88h0a6.3,6.3,0,0,1,8.87.7h0c13.88,16.26,18.1,21.68,33.75,35.68h0a6.3,6.3,0,0,1,.5,8.89h0a6.3,6.3,0,0,1-4.85,2.1h0a6.29,6.29,0,0,1-4-1.6Z"/><path d="M515.54,311c-21.9-8.4-32.32-12-55-15.63h0a6.29,6.29,0,0,1-5.24-7.19h0a6.29,6.29,0,0,1,7.2-5.24h0c23.44,3.66,35.7,7.89,57.55,16.31h0a6.29,6.29,0,0,1,3.62,8.13h0a6.3,6.3,0,0,1-6,4h0a6.49,6.49,0,0,1-2.1-.42Z"/><path d="M445.34,179.08a6.28,6.28,0,0,1,3.57-8.15h0c17.9-7,33.15-15.64,52.57-28.13h0a6.28,6.28,0,0,1,8.69,1.88h0a6.29,6.29,0,0,1-1.88,8.7h0c-19.69,12.68-35.85,21.86-54.8,29.27h0a6.14,6.14,0,0,1-2.44.43h0a6.28,6.28,0,0,1-5.71-4Z"/><path d="M373.17,100.75a6.29,6.29,0,0,1,.24-8.9h0C386.26,79.7,396.09,63.67,410.83,41h0a6.29,6.29,0,0,1,8.7-1.85h0a6.31,6.31,0,0,1,1.85,8.71h0C406.75,70.28,396.61,87.15,382.07,101h0a6.29,6.29,0,0,1-4.48,1.73h0a6.3,6.3,0,0,1-4.42-2Z"/><path d="M257.38,67.88a6.29,6.29,0,0,1-4.3-7.79h0c1.81-6.19,2.69-15.57,3.15-25.38h0c.49-9.84.63-20.16,1.38-28.94h0A6.29,6.29,0,0,1,264.41,0h0a6.3,6.3,0,0,1,5.74,6.8h0c-.69,8.11-.85,18.39-1.34,28.5h0c-.52,10.15-1.3,20.09-3.64,28.26h0A6.29,6.29,0,0,1,259,68.13h0a5.93,5.93,0,0,1-1.6-.25Z"/><path d="M140,88.65c-5.32-5.4-10.49-13.47-15.71-22.23h0c-5.18-8.73-10.23-18.07-14.46-25.37h0a6.29,6.29,0,0,1,2.29-8.6h0a6.29,6.29,0,0,1,8.6,2.29h0c4.37,7.55,9.38,16.82,14.39,25.26h0c5,8.42,10.09,16.08,13.82,19.78h0a6.29,6.29,0,0,1,0,8.9h0a6.27,6.27,0,0,1-4.59,1.83h0A6.29,6.29,0,0,1,140,88.65Z"/><path d="M78.32,169.92c-20.39-6-35.77-12.31-62.1-25h0a6.29,6.29,0,0,1-2.95-8.39h0a6.29,6.29,0,0,1,8.4-2.95h0c26.18,12.57,40.51,18.45,60.19,24.24h0a6.29,6.29,0,0,1,4.27,7.81h0a6.3,6.3,0,0,1-6.19,4.52h0a6.09,6.09,0,0,1-1.62-.26Z"/><path d="M.35,290.64a6.28,6.28,0,0,1,3.89-8h0c8-2.77,17.59-4.34,27.38-5.59h0C41.4,275.82,51.41,275,60,273.86h0a6.3,6.3,0,0,1,7,5.46h0a6.29,6.29,0,0,1-5.46,7h0c-9,1.13-19,2-28.41,3.19h0c-9.44,1.18-18.36,2.74-24.85,5h0a6.09,6.09,0,0,1-2.21.35h0a6.29,6.29,0,0,1-5.79-4.24Z"/><path d="M52.33,425.09a6.3,6.3,0,0,1-.58-8.88h0C63.83,402.46,77,387,91.09,374.76h0a6.31,6.31,0,0,1,8.88.64h0a6.3,6.3,0,0,1-.65,8.88h0c-13.07,11.29-26,26.39-38.11,40.23h0a6.25,6.25,0,0,1-4.89,2.14h0a6.26,6.26,0,0,1-4-1.56Z"/></g></g></svg>