<svg xmlns="http://www.w3.org/2000/svg" width="299.027" height="196.24" viewBox="0 0 299.027 196.24">
  <g id="Group_188" data-name="Group 188" transform="translate(-83.721 -19.468)">
    <g id="Group_152" data-name="Group 152" transform="translate(95.006 30.742)">
      <path id="Path_568" data-name="Path 568" d="M251.53,71.608C226.177,16.779,153.622,3.9,110.922,46.6a87.1,87.1,0,0,0-16.889,99.378c1.882,3.9,1.41,2.952-2.048,39.615a2.825,2.825,0,0,0,3.079,3.079c35.6-3.358,35.653-3.956,39.589-2.061a87.115,87.115,0,0,0,97.09-14.655A78.726,78.726,0,0,1,251.53,71.608Zm-34.662,87.768c-22.62-3.331-32.215-18.983-32.215-18.983-25.479,8.278-51.5-9.056-51.5-35.347,0-20.7,16.663-37.361,38.379-37.361,39.05,0,52.056,48.9,21.2,68.665a46.182,46.182,0,0,0,24.136,10.506Z" transform="translate(-85.418 -21.163)" fill="#ebb6ff"/>
      <path id="Path_569" data-name="Path 569" d="M118.1,29.375c-30.978,0-30.945,58.572,0,58.572C149.076,87.947,149.043,29.375,118.1,29.375Z" transform="translate(-31.988 25.225)" fill="#ebb6ff"/>
      <path id="Path_570" data-name="Path 570" d="M126.937,34.953,115.421,63.744h23.511C126.153,31.795,127.622,34.953,126.937,34.953Z" transform="translate(84.07 56.251)" fill="#ebb6ff"/>
      <path id="Path_571" data-name="Path 571" d="M245.181,131.443a72.8,72.8,0,1,0-33.964,33.97c3.271-1.576,2.527-1.164,33.1,1.722a2.36,2.36,0,0,0,2.573-2.573C244,133.95,243.6,134.714,245.181,131.443Zm-48.419-.273-6.244-15.353H160.764l-6.237,15.353h-9.6l27.84-67.189h11.516l26.876,67.189Z" transform="translate(35.362 12.342)" fill="#ebb6ff"/>
    </g>
    <g id="Group_153" data-name="Group 153" transform="translate(83.721 19.468)">
      <path id="Path_572" data-name="Path 572" d="M173.044,198.237a89.092,89.092,0,0,1-38.758-8.863c-2.48-1.2-2.866-1.19-20.519.552-4.674.465-10.492,1.037-17.833,1.729a5.175,5.175,0,0,1-5.638-5.638c.692-7.327,1.263-13.145,1.722-17.82,1.769-18.019,1.769-18.019.552-20.552A89.518,89.518,0,0,1,109.911,45.587a88.005,88.005,0,0,1,37.421-22.414,90.461,90.461,0,0,1,79.61,14.163,87.9,87.9,0,0,1,27.374,33.93,2.341,2.341,0,0,1-.672,2.826,76.028,76.028,0,0,0-19.2,97.356,2.354,2.354,0,0,1-.445,2.872,88.817,88.817,0,0,1-48.066,22.993A90.479,90.479,0,0,1,173.044,198.237Zm-42.435-14.4a10.8,10.8,0,0,1,5.718,1.3,85.3,85.3,0,0,0,93.121-13.026A81.075,81.075,0,0,1,249.27,71.592a84.862,84.862,0,0,0-136.034-22.68A84.816,84.816,0,0,0,96.805,145.6c1.789,3.717,1.755,4.083-.106,23.052-.459,4.674-1.031,10.486-1.722,17.806a.455.455,0,0,0,.14.379.445.445,0,0,0,.379.133c7.327-.691,13.145-1.263,17.813-1.722C122.83,184.314,127.664,183.835,130.609,183.835Zm86.917-21.463a1.971,1.971,0,0,1-.346-.027c-19.482-2.866-29.695-14.369-32.827-18.564a42.787,42.787,0,0,1-36.716-6.244A38.925,38.925,0,0,1,131.454,105.7c0-22.275,17.893-39.715,40.726-39.715A40.914,40.914,0,0,1,197.732,74.4a39.47,39.47,0,0,1,13.5,20.12c4.761,16.25-.692,32.634-13.917,42.6a45.657,45.657,0,0,0,20.5,8.045,2.342,2.342,0,0,1,2.055,2.327v12.527a2.346,2.346,0,0,1-2.347,2.347Zm-32.215-23.684a2.355,2.355,0,0,1,2,1.124c.086.133,8.584,13.524,27.86,17.414v-7.7a47.972,47.972,0,0,1-23.4-10.818,2.356,2.356,0,0,1,.346-3.69,34.189,34.189,0,0,0,14.6-39.177c-3.564-12.161-14.508-25.16-34.542-25.16-20.2,0-36.025,15.379-36.025,35.014A34.288,34.288,0,0,0,150.4,133.734,38.181,38.181,0,0,0,184.58,138.8,2.3,2.3,0,0,1,185.312,138.688Z" transform="translate(-83.721 -19.468)" fill="#231f20"/>
      <path id="Path_573" data-name="Path 573" d="M118.751,90.951A22.849,22.849,0,0,1,99.416,80.8c-4.023-5.712-6.237-13.345-6.237-21.5s2.214-15.778,6.237-21.483a23.5,23.5,0,0,1,38.671.007c4.023,5.712,6.237,13.345,6.237,21.5s-2.214,15.785-6.23,21.483A22.862,22.862,0,0,1,118.751,90.951Zm0-58.572a18.353,18.353,0,0,0-15.492,8.152C99.788,45.444,97.88,52.113,97.88,59.3c0,12.979,6.536,26.949,20.872,26.949a18.391,18.391,0,0,0,15.5-8.152c3.464-4.92,5.373-11.583,5.373-18.777C139.623,46.342,133.094,32.379,118.751,32.379Z" transform="translate(-30.293 26.913)" fill="#231f20"/>
      <path id="Path_574" data-name="Path 574" d="M139.591,66.756H116.074a2.351,2.351,0,0,1-2.181-3.225l11.516-28.8a2.348,2.348,0,0,1,1.443-1.356,2.418,2.418,0,0,1,1.755-.08c1.2.406,1.589,1.336,2.434,3.371.678,1.642,1.8,4.462,3.836,9.575,1.649,4.136,3.87,9.728,6.9,17.288a2.358,2.358,0,0,1-2.181,3.225Zm-20.047-4.708h16.576c-2.38-5.958-4.209-10.539-5.612-14.063-1.11-2.793-1.988-5-2.66-6.682Z" transform="translate(85.766 57.937)" fill="#231f20"/>
      <path id="Path_575" data-name="Path 575" d="M180.31,175.634A75.118,75.118,0,1,1,180.117,25.4h.133a75.094,75.094,0,0,1,67.695,107.722h0c-.971,2.021-.971,2.021.5,16.942.379,3.9.864,8.79,1.443,14.934a4.722,4.722,0,0,1-5.133,5.14c-6.244-.592-11.184-1.077-15.113-1.463-14.741-1.45-14.741-1.45-16.749-.485A74.853,74.853,0,0,1,180.31,175.634ZM180.25,30.1h-.126A70.424,70.424,0,1,0,210.85,163.951c3.2-1.543,3.5-1.509,19.249.04,3.93.386,8.863.871,15.093,1.463-.565-6.157-1.044-11.038-1.429-14.934-1.569-15.925-1.6-16.231-.047-19.442h0A70.4,70.4,0,0,0,180.25,30.1Zm31.557,104.079h-14.4a2.36,2.36,0,0,1-2.181-1.463l-5.638-13.89H163l-5.645,13.89a2.353,2.353,0,0,1-2.181,1.463h-9.595a2.353,2.353,0,0,1-2.174-3.251l27.84-67.183a2.336,2.336,0,0,1,2.168-1.456h11.516a2.353,2.353,0,0,1,2.188,1.483l26.876,67.183a2.353,2.353,0,0,1-2.188,3.225Zm-12.813-4.7h9.342L183.342,66.987h-8.358L149.1,129.476h4.5l5.638-13.89a2.359,2.359,0,0,1,2.181-1.469h29.755a2.35,2.35,0,0,1,2.174,1.469Z" transform="translate(37.061 14.027)" fill="#231f20"/>
    </g>
  </g>
</svg>
