<svg xmlns="http://www.w3.org/2000/svg" width="60" height="60" viewBox="0 0 60 60">
  <path id="網路預約" d="M40.714,26.387C38.959,15.585,34.822,8,30.006,8S21.053,15.585,19.3,26.387ZM18.391,38a75.806,75.806,0,0,0,.4,7.742H41.21a75.806,75.806,0,0,0,.4-7.742,75.806,75.806,0,0,0-.4-7.742H18.79A75.806,75.806,0,0,0,18.391,38ZM57.677,26.387A30.067,30.067,0,0,0,38.56,9.258c2.952,4.089,4.985,10.246,6.05,17.129ZM21.44,9.258a30.047,30.047,0,0,0-19.1,17.129H15.4c1.053-6.883,3.085-13.04,6.038-17.129Zm37.532,21H45.094c.254,2.54.4,5.141.4,7.742s-.145,5.2-.4,7.742H58.959A29.736,29.736,0,0,0,60,38a30.255,30.255,0,0,0-1.028-7.742ZM14.519,38c0-2.6.145-5.2.4-7.742H1.041a29.322,29.322,0,0,0,0,15.484H14.906C14.664,43.2,14.519,40.6,14.519,38ZM19.3,49.613C21.053,60.415,25.191,68,30.006,68s8.953-7.585,10.708-18.387ZM38.572,66.742A30.1,30.1,0,0,0,57.689,49.613H44.622C43.557,56.5,41.525,62.653,38.572,66.742ZM2.335,49.613A30.067,30.067,0,0,0,21.452,66.742C18.5,62.653,16.467,56.5,15.4,49.613Z" transform="translate(0 -8)" fill="#4cc9f0"/>
</svg>
