<svg xmlns="http://www.w3.org/2000/svg" xmlns:xlink="http://www.w3.org/1999/xlink" width="24" height="24" viewBox="0 0 24 24">
  <defs>
    <clipPath id="clip-path">
      <circle id="椭圆_32" data-name="椭圆 32" cx="12" cy="12" r="12" transform="translate(0)" fill="none"/>
    </clipPath>
    <clipPath id="clip-icon-english">
      <rect width="24" height="24"/>
    </clipPath>
  </defs>
  <g id="icon-english" clip-path="url(#clip-icon-english)">
    <g id="英文" transform="translate(-67.364 -67.693)">
      <g id="组_183" data-name="组 183" transform="translate(67.364 67.693)" clip-path="url(#clip-path)">
        <g id="组_182" data-name="组 182" transform="translate(-5.776 0.049)">
          <rect id="_59" data-name="59" width="50.698" height="24.061" fill="#fff"/>
          <rect id="_58" data-name="58" width="50.698" height="1.851" fill="#e93337"/>
          <rect id="_57" data-name="57" width="50.698" height="1.851" transform="translate(0 3.702)" fill="#e93337"/>
          <rect id="_56" data-name="56" width="50.698" height="1.851" transform="translate(0 7.403)" fill="#e93337"/>
          <rect id="_55" data-name="55" width="50.698" height="1.851" transform="translate(0 11.105)" fill="#e93337"/>
          <rect id="_54" data-name="54" width="50.698" height="1.85" transform="translate(0 14.807)" fill="#e93337"/>
          <rect id="_53" data-name="53" width="50.698" height="1.851" transform="translate(0 18.508)" fill="#e93337"/>
          <rect id="_52" data-name="52" width="50.698" height="1.851" transform="translate(0 22.21)" fill="#e93337"/>
          <rect id="_51" data-name="51" width="18.286" height="12.956" fill="#072269"/>
          <path id="_50" data-name="50" d="M53.4,69.876l.435.317-.167.512.435-.317.435.317-.167-.512.435-.317h-.532l-.167-.512-.167.512Z" transform="translate(-52.543 -68.824)" fill="#fff"/>
          <path id="_49" data-name="49" d="M62.012,69.876l.435.317-.167.512.435-.317.435.317-.167-.512.435-.317h-.539l-.167-.512-.167.512Z" transform="translate(-58.121 -68.824)" fill="#fff"/>
          <path id="_48" data-name="48" d="M70.622,69.876l.435.317-.167.512.435-.317.435.317-.167-.512.435-.317h-.539l-.167-.512-.167.512Z" transform="translate(-63.699 -68.824)" fill="#fff"/>
          <path id="_47" data-name="47" d="M79.231,69.876l.435.317-.167.512.435-.317.435.317-.167-.512.435-.317H80.1l-.167-.512-.167.512Z" transform="translate(-69.277 -68.824)" fill="#fff"/>
          <path id="_46" data-name="46" d="M87.841,69.876l.435.317-.167.512.435-.317.435.317-.167-.512.435-.317h-.539l-.167-.512-.167.512Z" transform="translate(-74.855 -68.824)" fill="#fff"/>
          <path id="_45" data-name="45" d="M96.451,69.876l.435.317-.167.512.435-.317.435.317-.167-.512.435-.317h-.539l-.167-.512-.168.512Z" transform="translate(-80.433 -68.824)" fill="#fff"/>
          <path id="_44" data-name="44" d="M57.707,73.566l.435.317-.167.512.435-.317.435.317-.167-.512.435-.317h-.539l-.167-.512-.167.512Z" transform="translate(-55.332 -71.215)" fill="#fff"/>
          <path id="_43" data-name="43" d="M66.317,73.566l.435.317-.167.512.435-.317.435.317-.167-.512.435-.317h-.539l-.167-.512-.167.512Z" transform="translate(-60.91 -71.215)" fill="#fff"/>
          <path id="_42" data-name="42" d="M74.927,73.566l.435.317L75.2,74.4l.435-.317.435.317-.167-.512.435-.317H75.8l-.167-.512-.167.512Z" transform="translate(-66.488 -71.215)" fill="#fff"/>
          <path id="_41" data-name="41" d="M83.536,73.566l.435.317L83.8,74.4l.435-.317.435.317-.167-.512.435-.317h-.539l-.167-.512-.167.512Z" transform="translate(-72.066 -71.215)" fill="#fff"/>
          <path id="_40" data-name="40" d="M92.146,73.566l.435.317-.167.512.435-.317.435.317-.167-.512.435-.317h-.539l-.167-.512-.167.512Z" transform="translate(-77.644 -71.215)" fill="#fff"/>
          <path id="_39" data-name="39" d="M53.4,77.256l.435.317-.167.512.435-.317.435.317-.166-.507.435-.317h-.533l-.167-.512-.167.512Z" transform="translate(-52.543 -73.606)" fill="#fff"/>
          <path id="_38" data-name="38" d="M62.012,77.256l.435.317-.167.512.435-.317.435.317-.167-.512.435-.317h-.539l-.167-.512-.167.512Z" transform="translate(-58.121 -73.606)" fill="#fff"/>
          <path id="_37" data-name="37" d="M70.622,77.256l.435.317-.167.512.435-.317.435.317-.167-.512.435-.317h-.539l-.167-.512-.167.512Z" transform="translate(-63.699 -73.606)" fill="#fff"/>
          <path id="_36" data-name="36" d="M79.231,77.256l.435.317-.167.512.435-.317.435.317-.167-.512.435-.317H80.1l-.167-.512-.167.512Z" transform="translate(-69.277 -73.606)" fill="#fff"/>
          <path id="_35" data-name="35" d="M87.841,77.256l.435.317-.167.512.435-.317.435.317-.167-.512.435-.317h-.539l-.167-.512-.167.512Z" transform="translate(-74.855 -73.606)" fill="#fff"/>
          <path id="_34" data-name="34" d="M96.451,77.256l.435.317-.167.512.435-.317.435.317-.167-.512.435-.317h-.539l-.167-.512-.168.512Z" transform="translate(-80.433 -73.606)" fill="#fff"/>
          <path id="_33" data-name="33" d="M57.813,80.958l.435.317-.167.512.435-.317.435.317-.167-.512.435-.317h-.539l-.167-.512-.167.512Z" transform="translate(-55.401 -76.004)" fill="#fff"/>
          <path id="_32" data-name="32" d="M66.423,80.958l.435.317-.167.512.435-.317.435.317-.167-.512.435-.317h-.539l-.167-.512-.167.512Z" transform="translate(-60.979 -76.004)" fill="#fff"/>
          <path id="_31" data-name="31" d="M75.033,80.958l.435.317-.167.512.435-.317.435.317-.167-.512.435-.317H75.9l-.167-.512-.167.512Z" transform="translate(-66.557 -76.004)" fill="#fff"/>
          <path id="_30" data-name="30" d="M83.643,80.958l.435.317-.167.512.435-.317.435.317-.167-.512.435-.317h-.539l-.167-.512-.167.512Z" transform="translate(-72.135 -76.004)" fill="#fff"/>
          <path id="_29" data-name="29" d="M92.252,80.958l.435.317-.167.512.435-.317.435.317-.167-.512.435-.317h-.539l-.167-.512-.167.512Z" transform="translate(-77.713 -76.004)" fill="#fff"/>
          <path id="_28" data-name="28" d="M53.533,84.617l.435.317-.167.512.435-.316.435.316-.167-.512.435-.317H54.4l-.167-.512-.167.512Z" transform="translate(-52.627 -78.375)" fill="#fff"/>
          <path id="_27" data-name="27" d="M62.143,84.617l.435.317-.167.512.435-.316.435.316-.167-.512.435-.317h-.539l-.167-.512-.167.512Z" transform="translate(-58.206 -78.375)" fill="#fff"/>
          <path id="_26" data-name="26" d="M70.752,84.617l.435.317-.167.512.435-.316.435.316-.167-.512.435-.317h-.539l-.167-.512-.167.512Z" transform="translate(-63.784 -78.375)" fill="#fff"/>
          <path id="_25" data-name="25" d="M79.362,84.617l.435.317-.167.512.435-.316.435.316-.167-.512.435-.317h-.539l-.167-.512-.167.512Z" transform="translate(-69.361 -78.375)" fill="#fff"/>
          <path id="_24" data-name="24" d="M87.972,84.617l.435.317-.167.512.435-.316.435.316-.167-.512.435-.317h-.539l-.167-.512-.167.512Z" transform="translate(-74.94 -78.375)" fill="#fff"/>
          <path id="_23" data-name="23" d="M96.582,84.617l.435.317-.167.512.435-.316.435.316-.167-.512.435-.317h-.539l-.167-.512-.167.512Z" transform="translate(-80.518 -78.375)" fill="#fff"/>
          <path id="_22" data-name="22" d="M53.614,91.88l.435.317-.167.512.435-.316.435.316-.167-.512.435-.317h-.539l-.167-.512-.167.512Z" transform="translate(-52.68 -83.08)" fill="#fff"/>
          <path id="_21" data-name="21" d="M62.223,91.88l.435.317-.167.512.435-.316.435.316L63.2,92.2l.435-.317h-.539l-.167-.512-.167.512Z" transform="translate(-58.258 -83.08)" fill="#fff"/>
          <path id="_20" data-name="20" d="M70.833,91.88l.435.317-.167.512.435-.316.435.316-.167-.512.435-.317H71.7l-.167-.512-.167.512Z" transform="translate(-63.836 -83.08)" fill="#fff"/>
          <path id="_19" data-name="19" d="M79.443,91.88l.435.317-.167.512.435-.316.435.316-.167-.512.435-.317h-.539l-.167-.512-.161.512Z" transform="translate(-69.414 -83.08)" fill="#fff"/>
          <path id="_18" data-name="18" d="M88.052,91.88l.435.317-.167.512.435-.316.435.316-.167-.512.435-.317h-.539l-.167-.512-.167.512Z" transform="translate(-74.992 -83.08)" fill="#fff"/>
          <path id="_17" data-name="17" d="M96.662,91.88l.435.317-.167.512.435-.316.435.316-.167-.512.435-.317h-.539l-.167-.512-.167.512Z" transform="translate(-80.57 -83.08)" fill="#fff"/>
          <path id="_16" data-name="16" d="M53.508,99.229l.435.317-.167.512.435-.317.435.317-.167-.512.435-.317h-.54l-.167-.512-.167.512Z" transform="translate(-52.612 -87.842)" fill="#fff"/>
          <path id="_15" data-name="15" d="M62.118,99.229l.435.317-.167.512.435-.317.435.317-.167-.512.435-.317h-.539l-.167-.512-.167.512Z" transform="translate(-58.189 -87.842)" fill="#fff"/>
          <path id="_14" data-name="14" d="M70.728,99.229l.435.317-.167.512.435-.317.435.317-.167-.512.435-.317H71.6l-.167-.512-.167.512Z" transform="translate(-63.768 -87.842)" fill="#fff"/>
          <path id="_13" data-name="13" d="M79.338,99.229l.435.317-.167.512.435-.317.435.317-.167-.512.435-.317h-.539l-.167-.512-.167.512Z" transform="translate(-69.346 -87.842)" fill="#fff"/>
          <path id="_12" data-name="12" d="M87.947,99.229l.435.317-.167.512.435-.317.435.317-.167-.512.435-.317h-.539l-.167-.512-.167.512Z" transform="translate(-74.923 -87.842)" fill="#fff"/>
          <path id="_11" data-name="11" d="M96.557,99.229l.435.317-.167.512.435-.317.435.317-.167-.512.432-.317h-.539l-.167-.512-.167.512Z" transform="translate(-80.502 -87.842)" fill="#fff"/>
          <path id="_10" data-name="10" d="M57.839,88.212l.435.317-.167.512.435-.317.435.317-.167-.512.435-.317h-.539l-.167-.512-.167.512Z" transform="translate(-55.417 -80.705)" fill="#fff"/>
          <path id="_9" data-name="9" d="M66.449,88.212l.435.317-.167.512.435-.317.435.317-.167-.512.435-.317h-.539l-.167-.512-.167.512Z" transform="translate(-60.995 -80.705)" fill="#fff"/>
          <path id="_8" data-name="8" d="M75.058,88.212l.435.317-.167.512.435-.317.435.317-.167-.512.435-.317h-.539l-.167-.512-.167.512Z" transform="translate(-66.574 -80.705)" fill="#fff"/>
          <path id="_7" data-name="7" d="M83.668,88.212l.435.317-.167.512.435-.317.435.317-.167-.512.435-.317h-.539l-.167-.512-.167.512Z" transform="translate(-72.152 -80.705)" fill="#fff"/>
          <path id="_6" data-name="6" d="M92.278,88.212l.435.317-.167.512.434-.317.435.317-.167-.512.435-.317h-.539l-.166-.512-.167.512Z" transform="translate(-77.729 -80.705)" fill="#fff"/>
          <path id="_5" data-name="5" d="M57.813,95.549l.435.317-.167.512.435-.316.435.316-.167-.512.435-.317h-.539l-.167-.512-.167.512Z" transform="translate(-55.401 -85.458)" fill="#fff"/>
          <path id="_4" data-name="4" d="M66.423,95.549l.435.317-.167.512.435-.316.435.316-.167-.512.435-.317h-.539l-.167-.512-.167.512Z" transform="translate(-60.979 -85.458)" fill="#fff"/>
          <path id="_3" data-name="3" d="M75.033,95.549l.435.317-.167.512.435-.316.435.316-.167-.512.435-.317H75.9l-.167-.512-.167.512Z" transform="translate(-66.557 -85.458)" fill="#fff"/>
          <path id="_2" data-name="2" d="M83.643,95.549l.435.317-.167.512.435-.316.435.316-.167-.512.435-.317h-.539l-.167-.512-.167.512Z" transform="translate(-72.135 -85.458)" fill="#fff"/>
          <path id="_1" data-name="1" d="M92.252,95.549l.435.317-.167.512.435-.316.435.316-.167-.512.435-.317h-.539l-.167-.512-.167.512Z" transform="translate(-77.713 -85.458)" fill="#fff"/>
        </g>
      </g>
    </g>
  </g>
</svg>
