<svg id="語言icon" xmlns="http://www.w3.org/2000/svg" width="28.999" height="29" viewBox="0 0 28.999 29">
  <path id="路径_40" data-name="路径 40" d="M26.335,6.139c-.221-.312-.451-.616-.7-.908A14.473,14.473,0,0,0,14.5,0h-.035l-.05,0A14.478,14.478,0,0,0,3.361,5.231q-.366.44-.7.908a14.449,14.449,0,0,0,0,16.721c.221.312.452.616.7.908A14.476,14.476,0,0,0,14.415,29l.05,0H14.5a14.473,14.473,0,0,0,11.139-5.23c.244-.293.475-.6.7-.909a14.449,14.449,0,0,0,0-16.721ZM10.261,1.886a13.564,13.564,0,0,0-3.2,5.42A13.83,13.83,0,0,1,4.321,5.944,13.346,13.346,0,0,1,10.261,1.886ZM3.623,6.854a15.272,15.272,0,0,0,3.1,1.562,23.11,23.11,0,0,0-.794,5.961H1.192A13.233,13.233,0,0,1,3.623,6.854ZM1.237,15.567H5.949a22.856,22.856,0,0,0,.769,5.017,15.185,15.185,0,0,0-3.1,1.563A13.22,13.22,0,0,1,1.237,15.567Zm3.088,7.486a13.913,13.913,0,0,1,2.732-1.359,13.552,13.552,0,0,0,3.2,5.42A13.342,13.342,0,0,1,4.325,23.053Zm9.58,4.714c-2.441-.334-4.549-2.838-5.743-6.445a21.99,21.99,0,0,1,5.743-.88Zm0-8.513a22.658,22.658,0,0,0-6.077.952,22.06,22.06,0,0,1-.688-4.639h6.765Zm0-4.877H7.116a22.459,22.459,0,0,1,.718-5.583,22.661,22.661,0,0,0,6.071.951v4.632Zm0-5.82a21.96,21.96,0,0,1-5.74-.879c1.194-3.6,3.3-6.111,5.74-6.446Zm13.9,5.82H23a23.1,23.1,0,0,0-.786-5.938,15.262,15.262,0,0,0,3.159-1.585A13.235,13.235,0,0,1,27.806,14.377ZM24.677,5.945a13.887,13.887,0,0,1-2.8,1.383A13.528,13.528,0,0,0,18.632,1.85,13.346,13.346,0,0,1,24.677,5.945Zm-9.582-4.7c2.415.373,4.494,2.875,5.676,6.455a22,22,0,0,1-5.676.861Zm0,8.5A22.7,22.7,0,0,0,21.1,8.815a22.405,22.405,0,0,1,.713,5.563H15.095Zm0,5.821H21.79a22.15,22.15,0,0,1-.683,4.62,22.7,22.7,0,0,0-6.011-.933V15.567Zm0,12.191V20.444a22.032,22.032,0,0,1,5.679.861C19.591,24.886,17.509,27.385,15.095,27.758Zm3.537-.608a13.517,13.517,0,0,0,3.25-5.477,13.9,13.9,0,0,1,2.793,1.381A13.351,13.351,0,0,1,18.632,27.15Zm6.745-5a15.224,15.224,0,0,0-3.159-1.586,22.848,22.848,0,0,0,.761-4.994h4.784A13.2,13.2,0,0,1,25.376,22.147Z" transform="translate(0 0)" fill="#3a0ca3"/>
</svg>
