<svg xmlns="http://www.w3.org/2000/svg" width="47.006" height="47.006" viewBox="0 0 47.006 47.006">
  <g id="ig_photo" data-name="ig photo" transform="translate(-552.797 -486.371)">
    <g id="组_749" data-name="组 749" transform="translate(552.797 486.371)">
      <path id="路径_1623" data-name="路径 1623" d="M586.424,533.377H566.176A13.393,13.393,0,0,1,552.8,520V499.75a13.394,13.394,0,0,1,13.379-13.379h20.248A13.394,13.394,0,0,1,599.8,499.75V520A13.394,13.394,0,0,1,586.424,533.377ZM566.176,490.4a9.36,9.36,0,0,0-9.35,9.35V520a9.36,9.36,0,0,0,9.35,9.35h20.248a9.36,9.36,0,0,0,9.35-9.35V499.75a9.36,9.36,0,0,0-9.35-9.35Z" transform="translate(-552.797 -486.371)" fill="#fff"/>
    </g>
    <g id="组_750" data-name="组 750" transform="translate(564.264 497.838)">
      <path id="路径_1624" data-name="路径 1624" d="M603.341,548.95a12.036,12.036,0,1,1,12.036-12.036A12.049,12.049,0,0,1,603.341,548.95Zm0-20.042a8.007,8.007,0,1,0,8.006,8.006A8.016,8.016,0,0,0,603.341,528.908Z" transform="translate(-591.305 -524.879)" fill="#fff"/>
    </g>
    <g id="组_751" data-name="组 751" transform="translate(585.959 494.257)">
      <path id="路径_1625" data-name="路径 1625" d="M669.942,515.745a2.893,2.893,0,1,1-2.892-2.892A2.892,2.892,0,0,1,669.942,515.745Z" transform="translate(-664.157 -512.853)" fill="#fff"/>
    </g>
  </g>
</svg>
