<svg xmlns="http://www.w3.org/2000/svg" width="98.13" height="98.13" viewBox="0 0 98.13 98.13">
  <path id="活動時間" d="M57.065,8A49.065,49.065,0,1,0,106.13,57.065,49.056,49.056,0,0,0,57.065,8Zm0,88.633A39.568,39.568,0,1,1,96.633,57.065,39.558,39.558,0,0,1,57.065,96.633ZM69.292,75.979l-16.8-12.207a2.39,2.39,0,0,1-.969-1.919V29.367A2.381,2.381,0,0,1,53.9,26.993H60.23A2.381,2.381,0,0,1,62.6,29.367V57.4L75.82,67.016a2.373,2.373,0,0,1,.514,3.324l-3.719,5.124a2.39,2.39,0,0,1-3.324.514Z" transform="translate(-8 -8)"/>
</svg>
