<svg xmlns="http://www.w3.org/2000/svg" xmlns:xlink="http://www.w3.org/1999/xlink" width="200" height="230" viewBox="0 0 200 230">
  <defs>
    <clipPath id="clip-icon-light">
      <rect width="200" height="230"/>
    </clipPath>
  </defs>
  <g id="icon-light" clip-path="url(#clip-icon-light)">
    <g id="圖層_2" data-name="圖層 2" transform="translate(2.998 0.022)">
      <g id="Vrstva_1" data-name="Vrstva 1" transform="translate(0.002 -0.022)">
        <path id="Path_18" data-name="Path 18" d="M131.323,242.742s.368-18.414-4.051-26.884-22.465-22.465-30.567-40.879,0-42.352,2.578-46.034,17.677-22.833,30.935-26.884,27.989-5.892,37.932-3.683,32.777,11.785,44.193,29.094,5.524,36.091,3.314,43.825-9.575,20.623-16.941,28.725-9.575,11.785-12.153,17.677-4.051,10.68-4.419,16.941a56.884,56.884,0,0,0,0,9.207,96.537,96.537,0,0,1-24.395,3.885C141.793,247.828,131.323,242.742,131.323,242.742Z" transform="translate(-58.873 -61.543)" fill="#ffe100"/>
        <path id="Path_19" data-name="Path 19" d="M214.933,513.669a64.4,64.4,0,0,1-16.716-2.987h0a11.55,11.55,0,0,1-5.156-2.663h0a6.091,6.091,0,0,1-1.746-4.592h0a17.833,17.833,0,0,1,1.013-4.769h0a2.317,2.317,0,0,1,2.909-1.506h0a2.316,2.316,0,0,1,1.51,2.909h0a14.008,14.008,0,0,0-.8,3.48h0c.018.737.074.836.405,1.215h0a7.491,7.491,0,0,0,3.141,1.473h0c5.524,1.573,10.1,2.666,15.56,2.81h.122c9.314.262,20.855-.711,27.989-5.156h0a2.317,2.317,0,0,1,3.186.759h0a2.32,2.32,0,0,1-.759,3.189h0c-8.713,5.307-20.837,6.058-30.534,5.852h-.122Z" transform="translate(-120.855 -313.986)"/>
        <path id="Path_20" data-name="Path 20" d="M198.677,537.564a11.518,11.518,0,0,1-5.156-2.666h0a6.091,6.091,0,0,1-1.746-4.592h0a17.965,17.965,0,0,1,1.013-4.788h0a2.313,2.313,0,0,1,2.909-1.506h0a2.316,2.316,0,0,1,1.506,2.909h0a14.006,14.006,0,0,0-.8,3.48h0c.018.737.077.836.405,1.215h0a7.6,7.6,0,0,0,3.141,1.473h0c5.524,1.573,10.1,2.666,15.56,2.81h.122c9.314.261,20.855-.711,27.989-5.156h0a2.313,2.313,0,0,1,3.186.759h0a2.316,2.316,0,0,1-.759,3.185h0c-8.713,5.307-20.837,6.054-30.534,5.852h-.122a64.583,64.583,0,0,1-16.716-2.983Z" transform="translate(-121.145 -330.953)"/>
        <path id="Path_21" data-name="Path 21" d="M203.615,565.782a10.838,10.838,0,0,1-4.935-2.7h0a6.213,6.213,0,0,1-1.635-4.541h0a18.719,18.719,0,0,1,.958-4.74h0a2.313,2.313,0,0,1,2.884-1.554h0a2.32,2.32,0,0,1,1.554,2.887h0a14.734,14.734,0,0,0-.762,3.517h0a1.563,1.563,0,0,0,.368,1.259h0a6.522,6.522,0,0,0,2.887,1.425h0c5.193,1.562,9.483,2.644,14.595,2.777h.114c8.758.25,19.589-.737,26.262-5.156h0a2.313,2.313,0,0,1,3.208.67h0a2.32,2.32,0,0,1-.67,3.208h0c-8.275,5.351-19.754,6.117-28.913,5.926h-.118a57.661,57.661,0,0,1-15.814-2.972Z" transform="translate(-124.473 -348.8)"/>
        <path id="Path_22" data-name="Path 22" d="M245.993,598.727a12.7,12.7,0,0,1-5.546-1.473h0a10.877,10.877,0,0,1-2.49-1.705h0a7.778,7.778,0,0,1-1.735-2.449h0a22.3,22.3,0,0,1-1.414-6.843h0a2.32,2.32,0,0,1,2.066-2.548h0a2.32,2.32,0,0,1,2.545,2.066h0a28.055,28.055,0,0,0,.737,4.585h0a3.683,3.683,0,0,0,.976,1.808h0a6.117,6.117,0,0,0,1.44.958h0a8.1,8.1,0,0,0,3.521.965h0c1.72.022,3.646-.486,5.977-2.736h0a2.313,2.313,0,0,1,3.274.029h0a2.316,2.316,0,0,1-.029,3.278h0a12.671,12.671,0,0,1-9.255,4.051h-.081Z" transform="translate(-148.327 -368.727)"/>
        <path id="Path_23" data-name="Path 23" d="M127.843,239.811l-.807-.468-.254-.9a28.518,28.518,0,0,1-.8-5.845h0c-.11-2.029-.129-4.051-.184-5.631h0a33.186,33.186,0,0,0-3.314-13.56h0a49.563,49.563,0,0,0-8.345-11.73h0c-5.874-6.393-11.763-12.768-16.447-19.938h0c-4.651-7.163-8.132-15.162-8.993-24.612h0a68.149,68.149,0,0,1-.276-7.973h0c.368-15.939,6.629-31.09,19.961-41.755h0c4.438-3.55,9.664-8.179,17.158-11.785h0c7.5-3.628,17.246-6.2,30.626-5.863h0q.935.022,1.889.066h0c9.229.4,19.32,4.224,28.464,9.583h0c9.137,5.373,17.309,12.278,22.535,19.195h0c6.835,9.045,9.387,19.467,9.122,29.83h0a75.378,75.378,0,0,1-6.371,27.326h0c-5.491,12.816-14.4,20.859-21.629,30.961h0a49.229,49.229,0,0,0-5.771,11.545h0a43.918,43.918,0,0,0-2.78,12.978h0a14.731,14.731,0,0,0,.368,3.988h0a2.313,2.313,0,0,1-.663,2.283h0a2.32,2.32,0,0,1-.7,3.079h0c-3.366,2.269-7.653,3.259-11.958,3.834h0c-4.3.56-8.658.641-12.035.759h0c-1.694.055-3.48.074-5.318.029h0c-7.881-.21-16.687-1.444-23.485-5.392Zm23.6.755c1.738.044,3.436.029,5.049-.026h0c3.418-.114,7.623-.206,11.593-.737h0c3.8-.482,7.366-1.41,9.656-2.876h0a2.378,2.378,0,0,1-.225-.556h0a19.239,19.239,0,0,1-.5-5.255h0a48.424,48.424,0,0,1,3.053-14.429h0a53.463,53.463,0,0,1,6.353-12.7h0c7.656-10.6,16.156-18.344,21.128-30.07h0a70.872,70.872,0,0,0,6-25.625h0c.225-9.553-2.07-18.8-8.19-26.921h0c-4.71-6.261-12.521-12.89-21.183-17.99h0c-8.666-5.09-18.233-8.618-26.313-8.956h0c-.608-.026-1.208-.044-1.8-.059h0c-12.746-.309-21.636,2.1-28.493,5.4h0c-6.861,3.314-11.715,7.583-16.278,11.243h0c-12.179,9.77-17.847,23.411-18.244,38.249h0A64.666,64.666,0,0,0,93.3,156.7h0c.792,8.562,3.878,15.766,8.271,22.5h0c4.39,6.728,10.1,12.945,15.979,19.334h0a53.835,53.835,0,0,1,9.1,12.845h0a37.881,37.881,0,0,1,3.76,15.412h0c.063,1.672.081,3.653.184,5.55h0a31.5,31.5,0,0,0,.42,3.944h0c5.554,2.946,13.317,4.121,20.406,4.279Z" transform="translate(-55.85 -56.67)"/>
        <path id="Path_24" data-name="Path 24" d="M251.844,414.86c-.155-2.629-.258-7.645-.368-12.68h0c-.1-5.023-.188-10.058-.309-12.521h0c-.284-6.239.225-12.3-1.521-17.508h0c-.46-1.374-.876-1.841-1.252-2.077h0a4.812,4.812,0,0,0-2.6-.464h-3.429a30.143,30.143,0,0,0-6.331.464h0a5.632,5.632,0,0,0-2.346,1.142h0a5.157,5.157,0,0,0-1.337,1.841h0a14.8,14.8,0,0,0-.935,5.922h0c0,1.646.118,3.362.2,4.99h0c.42,8.577,0,22.34.464,30.6h0a2.118,2.118,0,0,1-2,2.21h0a2.121,2.121,0,0,1-2.232-2h0c-.46-8.566-.052-22.329-.46-30.622h0c-.077-1.569-.2-3.359-.2-5.2h0a22.23,22.23,0,0,1,.667-5.793h0a10.105,10.105,0,0,1,3.112-5.156h0a9.818,9.818,0,0,1,4.051-2.033h0a32.968,32.968,0,0,1,7.366-.589h3.429a8.738,8.738,0,0,1,4.891,1.138h0a7.734,7.734,0,0,1,2.979,4.312h0c2.07,6.349,1.422,12.8,1.727,18.627h0c.129,2.6.217,7.6.317,12.636h0c.1,5.02.2,10.061.35,12.521h0a2.118,2.118,0,0,1-1.989,2.239h-.129a2.118,2.118,0,0,1-2.11-1.992Z" transform="translate(-143.517 -230.818)"/>
        <path id="Path_25" data-name="Path 25" d="M198.74,277.928c-.9-8.507-1.724-14.252-2.976-21.242h0c-.394-2.254-.81-4.688-1.307-7.145h0q-1.473.133-2.92.14h0a22.343,22.343,0,0,1-9.575-1.944h0a13.928,13.928,0,0,1-5.112-4.4h0a12.017,12.017,0,0,1-2.42-6.927h0a9.435,9.435,0,0,1,1.473-5.067h0a8.809,8.809,0,0,1,7.575-4.353h0a11.365,11.365,0,0,1,9.026,4.828h0a39.7,39.7,0,0,1,5.233,12.938h0a32.654,32.654,0,0,0,5.955-1.886h0c-.306-.335-.6-.681-.891-1.042h0a18.719,18.719,0,0,1-3.462-6.629h0a13.259,13.259,0,0,1-.412-3.337h0a10.834,10.834,0,0,1,1.8-6.29h0a8.431,8.431,0,0,1,7.2-3.4h.166a8.421,8.421,0,0,1,6.474,2.629h0a8.783,8.783,0,0,1,2.018,5.929h0a17.473,17.473,0,0,1-2.386,8.352h0a18.675,18.675,0,0,1-3.1,4.092h0a23.2,23.2,0,0,0,7.049,1.911h0c.479-2.578,1.005-5.134,1.613-7.531h0a18.5,18.5,0,0,1,3.543-7.156h0a10.158,10.158,0,0,1,7.83-3.948h0a10.967,10.967,0,0,1,3.955.77h0a6.629,6.629,0,0,1,3.517,3.09h0a9.037,9.037,0,0,1,1,4.316h0a14.69,14.69,0,0,1-1.4,6.025h0a12.153,12.153,0,0,1-3.742,4.769h0a23.162,23.162,0,0,1-12.79,4.051h0c-.538,3.141-1.046,6.3-1.58,9.273h0c-1.23,6.835-2.291,12.109-3.407,18.259h0a2.118,2.118,0,0,1-2.46,1.705h0a2.114,2.114,0,0,1-1.705-2.46h0c1.123-6.2,2.18-11.468,3.4-18.255h0c.5-2.755.972-5.719,1.473-8.713h0a26.806,26.806,0,0,1-9.207-2.792h0c-.335-.177-.667-.368-.991-.578h0a36.132,36.132,0,0,1-8.577,3h0c.49,2.467.888,4.865,1.289,7.045h0c1.267,7.064,2.114,12.967,3.02,21.54h0a2.118,2.118,0,0,1-1.886,2.327h-.225a2.118,2.118,0,0,1-2.1-1.893Zm-5.215-32.556c-1.053-4.206-2.449-8.2-4.508-11.155h0a7.208,7.208,0,0,0-5.524-2.99h0a4.516,4.516,0,0,0-4.007,2.375h0a5.156,5.156,0,0,0-.825,2.81h0a7.817,7.817,0,0,0,1.62,4.449h0a9.774,9.774,0,0,0,3.5,3.049h0a18.219,18.219,0,0,0,7.767,1.532h0c.656,0,1.318-.022,1.989-.07Zm33.042-12.249a14.4,14.4,0,0,0-2.688,5.48h0c-.523,2.066-.991,4.287-1.425,6.577h0a18.627,18.627,0,0,0,9.553-3.211h0a8.076,8.076,0,0,0,2.372-3.112h0a10.436,10.436,0,0,0,.987-4.224h0a4.831,4.831,0,0,0-.482-2.287h0a2.368,2.368,0,0,0-1.3-1.145h0a6.843,6.843,0,0,0-2.445-.49h0a5.891,5.891,0,0,0-4.581,2.431ZM204.19,228.03a6.779,6.779,0,0,0-1.013,3.834h0a8.79,8.79,0,0,0,.273,2.243h0a14.466,14.466,0,0,0,2.681,5.086h0a15.943,15.943,0,0,0,1.392,1.536h0a13.733,13.733,0,0,0,3-3.716h0a13.526,13.526,0,0,0,1.841-6.261h0a4.613,4.613,0,0,0-.95-3.119h0a4.251,4.251,0,0,0-3.366-1.2h-.107c-2.176.044-3.046.7-3.749,1.617Z" transform="translate(-110.192 -140.347)"/>
        <path id="Path_26" data-name="Path 26" d="M422.811,394.07c-5.922-5.285-7.844-7.693-12.871-13.589h0a2.32,2.32,0,0,1,.262-3.27h0a2.32,2.32,0,0,1,3.267.258h0c5.112,5.988,6.666,7.984,12.429,13.14h0a2.32,2.32,0,0,1,.184,3.274h0a2.32,2.32,0,0,1-1.786.773h0a2.317,2.317,0,0,1-1.473-.589Z" transform="translate(-258.62 -237.935)"/>
        <path id="Path_27" data-name="Path 27" d="M477.436,293.225c-8.065-3.094-11.9-4.419-20.255-5.756h0a2.316,2.316,0,0,1-1.93-2.648h0a2.317,2.317,0,0,1,2.652-1.93h0c8.632,1.348,13.147,2.906,21.194,6.007h0a2.316,2.316,0,0,1,1.333,2.994h0a2.32,2.32,0,0,1-2.21,1.473h0a2.39,2.39,0,0,1-.773-.155Z" transform="translate(-287.576 -178.683)"/>
        <path id="Path_28" data-name="Path 28" d="M445.065,155.526a2.313,2.313,0,0,1,1.315-3h0c6.592-2.578,12.208-5.76,19.36-10.36h0a2.313,2.313,0,0,1,3.2.692h0a2.317,2.317,0,0,1-.692,3.2h0c-7.251,4.67-13.2,8.051-20.181,10.779h0a2.261,2.261,0,0,1-.9.158h0a2.313,2.313,0,0,1-2.1-1.473Z" transform="translate(-281.058 -89.567)"/>
        <path id="Path_29" data-name="Path 29" d="M372.078,61.195a2.316,2.316,0,0,1,.088-3.278h0c4.732-4.475,8.352-10.378,13.781-18.727h0a2.316,2.316,0,0,1,3.2-.681h0a2.324,2.324,0,0,1,.681,3.208h0c-5.388,8.257-9.122,14.47-14.477,19.57h0a2.316,2.316,0,0,1-1.65.637h0a2.32,2.32,0,0,1-1.628-.737Z" transform="translate(-234.65 -24.083)"/>
        <path id="Path_30" data-name="Path 30" d="M254.506,24.984a2.316,2.316,0,0,1-1.584-2.869h0a44.641,44.641,0,0,0,1.16-9.347h0c.18-3.624.232-7.424.508-10.658h0a2.317,2.317,0,0,1,2.5-2.125h0a2.32,2.32,0,0,1,2.114,2.5h0c-.254,2.987-.313,6.773-.494,10.5h0a48.464,48.464,0,0,1-1.34,10.407h0a2.316,2.316,0,0,1-2.272,1.683h0a2.184,2.184,0,0,1-.589-.092Z" transform="translate(-159.72 0.022)"/>
        <path id="Path_31" data-name="Path 31" d="M120.4,52.61a44.906,44.906,0,0,1-5.786-8.187h0c-1.908-3.215-3.767-6.655-5.325-9.343h0a2.316,2.316,0,0,1,.843-3.167h0a2.316,2.316,0,0,1,3.167.843h0c1.609,2.78,3.454,6.194,5.3,9.3h0a42.241,42.241,0,0,0,5.09,7.284h0a2.316,2.316,0,0,1,0,3.278h0A2.309,2.309,0,0,1,122,53.3h0A2.317,2.317,0,0,1,120.4,52.61Z" transform="translate(-68.846 -19.954)"/>
        <path id="Path_32" data-name="Path 32" d="M36.835,146.57c-7.509-2.21-13.173-4.533-22.87-9.207h0a2.316,2.316,0,0,1-1.086-3.09h0a2.316,2.316,0,0,1,3.094-1.086h0c9.641,4.629,14.919,6.795,22.167,8.927h0a2.316,2.316,0,0,1,1.573,2.876h0a2.32,2.32,0,0,1-2.28,1.665h0a2.242,2.242,0,0,1-.6-.1Z" transform="translate(-7.992 -83.985)"/>
        <path id="Path_33" data-name="Path 33" d="M.13,280.011a2.313,2.313,0,0,1,1.433-2.946h0a51.944,51.944,0,0,1,10.083-2.059h0c3.6-.453,7.288-.755,10.452-1.175h0a2.32,2.32,0,0,1,2.578,2.011h0a2.316,2.316,0,0,1-2.011,2.578h0c-3.314.416-7,.737-10.463,1.175h0a47.885,47.885,0,0,0-9.152,1.841h0a2.242,2.242,0,0,1-.814.129h0A2.316,2.316,0,0,1,.1,280Z" transform="translate(-0.002 -172.967)"/>
        <path id="Path_34" data-name="Path 34" d="M50.978,392.329a2.32,2.32,0,0,1-.214-3.27h0c4.449-5.064,9.3-10.757,14.488-15.265h0a2.324,2.324,0,0,1,3.27.236h0a2.32,2.32,0,0,1-.239,3.27h0c-4.813,4.158-9.575,9.719-14.035,14.816h0a2.3,2.3,0,0,1-1.8.788h0a2.305,2.305,0,0,1-1.473-.575Z" transform="translate(-31.707 -235.771)"/>
      </g>
    </g>
  </g>
</svg>
