<svg xmlns="http://www.w3.org/2000/svg" width="66" height="66" viewBox="0 0 66 66">
  <g id="傳染03" transform="translate(-900 -4365)">
    <circle id="椭圆_44" data-name="椭圆 44" cx="33" cy="33" r="33" transform="translate(900 4365)" fill="#fff"/>
    <g id="组_355" data-name="组 355" transform="translate(-863.335 3167.049)">
      <g id="组_354" data-name="组 354" transform="translate(1776.835 1203.951)">
        <g id="组_353" data-name="组 353" transform="translate(0 0)">
          <path id="路径_879" data-name="路径 879" d="M1816.663,1355.843H1778.59c.53,0,1.457-3.618,1.665-4.138.634-1.583,1.223-3.186,1.7-4.822.449-1.534.519-3.344,1.383-4.7a8.759,8.759,0,0,1,7.37-3.883h14.3a9.011,9.011,0,0,1,6.37,2.649c2.008,2.055,1.92,4.66,2.581,7.274a36.16,36.16,0,0,0,1.365,4.085A29.8,29.8,0,0,0,1816.663,1355.843Z" transform="translate(-1778.126 -1302.8)" fill="#fff"/>
          <path id="路径_879_-_轮廓" data-name="路径 879 - 轮廓" d="M1815.372,1355.015H1777.3a.464.464,0,0,1-.153-.9,4.7,4.7,0,0,0,.515-1.146c.223-.622.444-1.353.6-1.886.123-.406.211-.7.268-.841.729-1.821,1.266-3.34,1.688-4.78.142-.486.244-1,.353-1.54a9.367,9.367,0,0,1,1.084-3.277,9.218,9.218,0,0,1,7.761-4.1h14.3a9.588,9.588,0,0,1,3.627.726,9.288,9.288,0,0,1,3.075,2.062,7.1,7.1,0,0,1,1.625,2.671,18.535,18.535,0,0,1,.675,2.863c.115.64.235,1.3.4,1.95a36.211,36.211,0,0,0,1.348,4.032c.026.067.08.228.191.555.149.441.374,1.107.583,1.686a10.816,10.816,0,0,0,.443,1.12.464.464,0,0,1-.317.8Zm-37.158-.927h36.413c-.056-.143-.118-.309-.188-.5-.23-.629-.485-1.384-.654-1.883-.085-.251-.158-.467-.178-.52a37,37,0,0,1-1.381-4.137c-.172-.68-.294-1.358-.412-2.013-.336-1.861-.653-3.619-2.051-5.05a8.594,8.594,0,0,0-6.039-2.51h-14.3a8.283,8.283,0,0,0-6.979,3.669,8.7,8.7,0,0,0-.957,2.959c-.107.538-.218,1.094-.372,1.619-.431,1.47-.976,3.015-1.717,4.864-.042.1-.138.425-.241.764-.187.618-.442,1.464-.7,2.158C1778.367,1353.731,1778.288,1353.923,1778.213,1354.088Z" transform="translate(-1776.835 -1301.509)" fill="#161615"/>
          <path id="路径_880" data-name="路径 880" d="M1833.834,1302.3a.982.982,0,0,0-.083.605,21.239,21.239,0,0,1,.271,5.705,12.2,12.2,0,0,0-.286,3.233c0,3.794,3.03,6.021,4.235,6.757a.876.876,0,0,0,.965-.026,8.483,8.483,0,0,0,3.94-6.81c0-.752-.008-1.388-.039-1.926a.989.989,0,0,0,.018-.341c-.219-1.814-.674-6.594.416-8.128C1844.588,1299.508,1835.682,1298.561,1833.834,1302.3Z" transform="translate(-1818.699 -1274.423)" fill="#fff"/>
          <path id="路径_880_-_轮廓" data-name="路径 880 - 轮廓" d="M1838.438,1297.979h0a9.516,9.516,0,0,1,2.475.3,2.362,2.362,0,0,1,1.551.977,1.007,1.007,0,0,1-.107,1.085c-.284.4-.62,1.363-.613,3.689a37.3,37.3,0,0,0,.28,4.115,1.456,1.456,0,0,1-.012.431c.025.479.036,1.051.036,1.893a7.751,7.751,0,0,1-.484,2.705,8.487,8.487,0,0,1-1.148,2.1,10.587,10.587,0,0,1-2.513,2.391,1.339,1.339,0,0,1-1.466.037,10.782,10.782,0,0,1-2.688-2.336,8.2,8.2,0,0,1-1.243-2.091,7.278,7.278,0,0,1-.526-2.726,12.473,12.473,0,0,1,.294-3.326,21.039,21.039,0,0,0-.271-5.531,1.447,1.447,0,0,1,.124-.893,3.936,3.936,0,0,1,1.117-1.346,5.955,5.955,0,0,1,1.568-.862A10.485,10.485,0,0,1,1838.438,1297.979Zm-1.3,18.995a.436.436,0,0,0,.244-.079,8.006,8.006,0,0,0,3.736-6.426c0-.859-.011-1.427-.038-1.9a.464.464,0,0,1,.011-.13.529.529,0,0,0,.01-.182,38.232,38.232,0,0,1-.286-4.224c-.006-2.094.25-3.477.784-4.229.059-.083.047-.107.039-.123-.066-.127-.361-.337-.977-.51a8.572,8.572,0,0,0-2.225-.266,9.539,9.539,0,0,0-3.3.551,3.793,3.793,0,0,0-2.184,1.752.523.523,0,0,0-.042.318,21.492,21.492,0,0,1,.275,5.842.479.479,0,0,1-.016.077,11.685,11.685,0,0,0-.267,3.1c0,3.529,2.806,5.624,4.013,6.361A.418.418,0,0,0,1837.14,1316.973Z" transform="translate(-1817.408 -1273.132)" fill="#161615"/>
          <path id="路径_881" data-name="路径 881" d="M1845.112,1209.636c0,2.954-1.186,6.233-4.139,6.233a5.348,5.348,0,0,1-5.349-5.348c0-2.954,2.869-5.372,5.209-4.7C1843.673,1206.629,1845.112,1206.683,1845.112,1209.636Z" transform="translate(-1820.089 -1205.242)" fill="#fff"/>
          <path id="路径_881_-_轮廓" data-name="路径 881 - 轮廓" d="M1838.729,1203.951a3.419,3.419,0,0,1,.941.13c.289.083.562.157.825.229a7.157,7.157,0,0,1,2.76,1.128,3.5,3.5,0,0,1,1.029,2.908,9.286,9.286,0,0,1-1.021,4.451,3.987,3.987,0,0,1-3.582,2.246,5.808,5.808,0,0,1-5.812-5.812,5.174,5.174,0,0,1,.423-2.039,5.63,5.63,0,0,1,1.1-1.67A4.713,4.713,0,0,1,1838.729,1203.951Zm.953,10.164a3.07,3.07,0,0,0,2.773-1.772,8.356,8.356,0,0,0,.9-4c0-1.416-.354-1.907-.7-2.2a6.562,6.562,0,0,0-2.4-.94c-.266-.073-.542-.147-.837-.232a2.5,2.5,0,0,0-.686-.094,3.841,3.841,0,0,0-2.665,1.281,4.531,4.531,0,0,0-1.268,3.071A4.89,4.89,0,0,0,1839.681,1214.115Z" transform="translate(-1818.798 -1203.951)" fill="#161615"/>
          <path id="路径_882" data-name="路径 882" d="M1836.639,1228.339s-.511-.867.032-1.3,1.981-.4,3.223-.57a4.627,4.627,0,0,1,2.987.362c1.022.477,2.321.788,2.288,1.457s.685,1.739-.367,1.573S1839.2,1228.679,1836.639,1228.339Z" transform="translate(-1820.675 -1220.455)" fill="#fff"/>
          <path id="路径_882_-_轮廓" data-name="路径 882 - 轮廓" d="M1843.709,1229.053a1.729,1.729,0,0,1-.27-.023c-.368-.058-1.129-.213-2.092-.408-1.851-.376-4.385-.891-6.06-1.114a.464.464,0,0,1-.338-.224,2.33,2.33,0,0,1-.241-.623,1.206,1.206,0,0,1,.384-1.274,4.769,4.769,0,0,1,2.371-.555c.359-.031.729-.063,1.077-.111a8.417,8.417,0,0,1,1.152-.092,4.688,4.688,0,0,1,2.094.494c.23.108.483.209.728.308a7.48,7.48,0,0,1,1.156.538,1.187,1.187,0,0,1,.671,1.053,2.316,2.316,0,0,0,.1.55,1.337,1.337,0,0,1-.051,1.189A.811.811,0,0,1,1843.709,1229.053Zm-8.047-2.43c1.7.241,4.1.729,5.87,1.089.952.193,1.7.346,2.052.4l.027,0c-.018-.1-.05-.231-.073-.322a2.9,2.9,0,0,1-.123-.82c0-.018-.041-.1-.239-.224a6.894,6.894,0,0,0-1.008-.463c-.256-.1-.521-.21-.774-.328a3.722,3.722,0,0,0-1.7-.407,7.541,7.541,0,0,0-1.025.084c-.371.051-.753.084-1.123.116-.444.038-.863.075-1.212.137a1.563,1.563,0,0,0-.663.221c-.03.024-.108.086-.058.331A1.186,1.186,0,0,0,1835.662,1226.623Z" transform="translate(-1819.385 -1219.164)" fill="#161615"/>
          <path id="路径_883" data-name="路径 883" d="M1810.745,1275.593c0,2.111-1.047,3.821-2.337,3.821s-2.338-1.711-2.338-3.821,1.047-3.822,2.338-3.822S1810.745,1273.482,1810.745,1275.593Z" transform="translate(-1798.345 -1253.85)" fill="#fff"/>
          <path id="路径_883_-_轮廓" data-name="路径 883 - 轮廓" d="M1807.117,1278.586a2.037,2.037,0,0,1-1.174-.383,3.133,3.133,0,0,1-.875-.958,6.134,6.134,0,0,1,0-5.888,3.134,3.134,0,0,1,.875-.958,1.992,1.992,0,0,1,2.347,0,3.134,3.134,0,0,1,.875.958,6.134,6.134,0,0,1,0,5.888,3.134,3.134,0,0,1-.875.958A2.038,2.038,0,0,1,1807.117,1278.586Zm0-7.643a1.579,1.579,0,0,0-1.258.9,5.216,5.216,0,0,0,0,4.92,1.33,1.33,0,0,0,2.515,0,5.217,5.217,0,0,0,0-4.92A1.578,1.578,0,0,0,1807.117,1270.944Z" transform="translate(-1797.053 -1252.558)" fill="#161615"/>
          <ellipse id="椭圆_41" data-name="椭圆 41" cx="2.338" cy="3.821" rx="2.338" ry="3.821" transform="translate(27.115 17.921)" fill="#fff"/>
          <path id="椭圆_41_-_轮廓" data-name="椭圆 41 - 轮廓" d="M1.046-1.755a2.038,2.038,0,0,1,1.174.383,3.133,3.133,0,0,1,.875.958A5.715,5.715,0,0,1,3.848,2.53a5.715,5.715,0,0,1-.753,2.944,3.133,3.133,0,0,1-.875.958,2.038,2.038,0,0,1-1.174.383A2.038,2.038,0,0,1-.127,6.433,3.133,3.133,0,0,1-1,5.474,5.715,5.715,0,0,1-1.755,2.53,5.715,5.715,0,0,1-1-.414a3.133,3.133,0,0,1,.875-.958A2.038,2.038,0,0,1,1.046-1.755Zm0,7.643a1.579,1.579,0,0,0,1.257-.9A4.782,4.782,0,0,0,2.92,2.53,4.782,4.782,0,0,0,2.3.07a1.579,1.579,0,0,0-1.257-.9A1.579,1.579,0,0,0-.211.07,4.782,4.782,0,0,0-.827,2.53a4.782,4.782,0,0,0,.617,2.46A1.579,1.579,0,0,0,1.046,5.888Z" transform="translate(28.407 19.213)" fill="#161615"/>
          <path id="路径_884" data-name="路径 884" d="M1834.307,1251.688c0,6.758-4.34,12.236-9.695,12.236s-9.695-5.478-9.695-12.236,4.34-12.236,9.695-12.236S1834.307,1244.93,1834.307,1251.688Z" transform="translate(-1804.854 -1230.071)" fill="#fff"/>
          <path id="路径_884_-_轮廓" data-name="路径 884 - 轮廓" d="M1823.321,1237.7a8.4,8.4,0,0,1,3.992,1.016,10.348,10.348,0,0,1,3.227,2.743,13.224,13.224,0,0,1,2.154,4.03,15.731,15.731,0,0,1,0,9.82,13.224,13.224,0,0,1-2.154,4.03,10.348,10.348,0,0,1-3.227,2.743,8.349,8.349,0,0,1-7.984,0,10.348,10.348,0,0,1-3.227-2.743,13.221,13.221,0,0,1-2.154-4.03,15.729,15.729,0,0,1,0-9.82,13.221,13.221,0,0,1,2.154-4.03,10.347,10.347,0,0,1,3.227-2.743A8.4,8.4,0,0,1,1823.321,1237.7Zm0,24.472a8.3,8.3,0,0,0,6.492-3.408,14.139,14.139,0,0,0,0-16.728,7.887,7.887,0,0,0-12.984,0,14.139,14.139,0,0,0,0,16.728A8.3,8.3,0,0,0,1823.321,1262.169Z" transform="translate(-1803.563 -1228.78)" fill="#161615"/>
          <path id="路径_885" data-name="路径 885" d="M1832.3,1241.348c0,4.106-3.827.587-10.472.587s-10.695,3.3-10.695-.808,3.938-9.048,10.583-9.048S1832.3,1237.242,1832.3,1241.348Z" transform="translate(-1802.069 -1224.646)" fill="#fff"/>
          <path id="路径_885_-_轮廓" data-name="路径 885 - 轮廓" d="M1829.5,1242.511a12.549,12.549,0,0,1-2.694-.484,25.308,25.308,0,0,0-6.27-.919,28.227,28.227,0,0,0-6.157.806,14.965,14.965,0,0,1-2.832.447h0a2.049,2.049,0,0,1-1.613-.592,2,2,0,0,1-.43-.823,4.2,4.2,0,0,1-.127-1.109,8.157,8.157,0,0,1,.761-3.338,10.117,10.117,0,0,1,2.181-3.06,10.84,10.84,0,0,1,3.474-2.244,12.287,12.287,0,0,1,4.631-.87,11.9,11.9,0,0,1,4.637.907,10.891,10.891,0,0,1,3.474,2.323,10.5,10.5,0,0,1,2.177,3.134,8.384,8.384,0,0,1,.759,3.369,2.835,2.835,0,0,1-.489,1.857A1.792,1.792,0,0,1,1829.5,1242.511Zm-8.964-2.331a26.093,26.093,0,0,1,6.49.946,12.348,12.348,0,0,0,2.474.458c.491,0,.667-.138.766-.259a2.1,2.1,0,0,0,.278-1.268,8.578,8.578,0,0,0-2.663-5.845,10.464,10.464,0,0,0-7.457-2.96,10.646,10.646,0,0,0-7.462,2.854,8.261,8.261,0,0,0-2.658,5.729,2.01,2.01,0,0,0,.317,1.31c.111.123.329.287.926.287a14.539,14.539,0,0,0,2.636-.426A29,29,0,0,1,1820.536,1240.18Z" transform="translate(-1800.778 -1223.355)" fill="#161615"/>
          <path id="路径_886" data-name="路径 886" d="M1828.371,1250.2s.956-5.466,2.127-6.031" transform="translate(-1814.753 -1233.541)" fill="#fff"/>
          <path id="路径_886_-_轮廓" data-name="路径 886 - 轮廓" d="M1827.08,1249.373a.464.464,0,0,1-.457-.544c.01-.057.247-1.4.633-2.844a16.006,16.006,0,0,1,.7-2.11,2.619,2.619,0,0,1,1.051-1.415.464.464,0,0,1,.4.835c-.055.027-.56.335-1.255,2.924-.376,1.4-.615,2.756-.617,2.769A.464.464,0,0,1,1827.08,1249.373Z" transform="translate(-1813.461 -1232.25)" fill="#161615"/>
          <path id="直线_18" data-name="直线 18" d="M-1.18,4.773a.464.464,0,0,1-.463-.455l-.111-5.6A.464.464,0,0,1-1.3-1.755.464.464,0,0,1-.828-1.3l.111,5.6a.464.464,0,0,1-.454.473Z" transform="translate(20.938 11.354)" fill="#161615"/>
          <path id="路径_887" data-name="路径 887" d="M1867.756,1244.169s2.518,5.585,2.429,6.031" transform="translate(-1843.73 -1233.541)" fill="#fff"/>
          <path id="路径_887_-_轮廓" data-name="路径 887 - 轮廓" d="M1868.894,1249.373a.464.464,0,0,1-.463-.493,21.455,21.455,0,0,0-1.206-3.115c-.589-1.379-1.177-2.684-1.183-2.7a.464.464,0,1,1,.845-.381c.006.014.639,1.417,1.252,2.857.362.849.646,1.545.846,2.069.39,1.023.4,1.22.363,1.386A.464.464,0,0,1,1868.894,1249.373Z" transform="translate(-1842.439 -1232.25)" fill="#161615"/>
          <path id="路径_888" data-name="路径 888" d="M1846.594,1215.941a8.291,8.291,0,0,1,0-2.585" transform="translate(-1828.073 -1210.871)" fill="#fff"/>
          <path id="路径_888_-_轮廓" data-name="路径 888 - 轮廓" d="M1845.3,1215.114a.464.464,0,0,1-.46-.409c0-.023-.069-.579-.1-1.188-.063-1.139.031-1.515.192-1.73a.464.464,0,0,1,.762.528,4.245,4.245,0,0,0-.023,1.235c.033.546.092,1.04.093,1.045a.464.464,0,0,1-.405.516A.478.478,0,0,1,1845.3,1215.114Z" transform="translate(-1826.78 -1209.579)" fill="#161615"/>
          <path id="路径_889" data-name="路径 889" d="M1858.057,1220.4a13.09,13.09,0,0,0,1.248-2.15" transform="translate(-1836.594 -1214.47)" fill="#fff"/>
          <path id="路径_889_-_轮廓" data-name="路径 889 - 轮廓" d="M1856.765,1219.57a.464.464,0,0,1-.383-.724s.281-.414.568-.87a6.593,6.593,0,0,0,.6-1.067.464.464,0,0,1,.925.048c0,.173-.053.413-.695,1.438-.313.5-.62.953-.633.972A.463.463,0,0,1,1856.765,1219.57Z" transform="translate(-1835.303 -1213.179)" fill="#161615"/>
          <path id="路径_890" data-name="路径 890" d="M1807.177,1373.622s-1.211,3.581-1.422,4.318-.9,3.25,1.422,3.889" transform="translate(-1797.922 -1328.786)" fill="#fff"/>
          <path id="路径_890_-_轮廓" data-name="路径 890 - 轮廓" d="M1805.885,1381a.465.465,0,0,1-.124-.017,2.6,2.6,0,0,1-1.662-1.224,4.442,4.442,0,0,1-.083-3.24c.211-.739,1.379-4.193,1.428-4.34a.464.464,0,0,1,.879.3c-.012.036-1.21,3.579-1.415,4.3a3.628,3.628,0,0,0,0,2.531,1.691,1.691,0,0,0,1.1.784.464.464,0,0,1-.123.911Z" transform="translate(-1796.63 -1327.495)" fill="#161615"/>
          <path id="路径_891" data-name="路径 891" d="M1893.419,1373.622s1.211,3.581,1.422,4.318.9,3.25-1.422,3.889" transform="translate(-1862.612 -1328.786)" fill="#fff"/>
          <path id="路径_891_-_轮廓" data-name="路径 891 - 轮廓" d="M1892.127,1381a.464.464,0,0,1-.123-.911,1.69,1.69,0,0,0,1.1-.784,3.628,3.628,0,0,0,0-2.531c-.205-.718-1.4-4.261-1.415-4.3a.464.464,0,1,1,.878-.3c.05.146,1.217,3.6,1.429,4.339a4.443,4.443,0,0,1-.083,3.24,2.6,2.6,0,0,1-1.662,1.224A.465.465,0,0,1,1892.127,1381Z" transform="translate(-1861.32 -1327.495)" fill="#161615"/>
        </g>
      </g>
      <path id="路径_892" data-name="路径 892" d="M1859.489,1310.324l-3.728,1.049c-1.439.4-2.7-1.815-3.109-3.254l-1.584-3.432a2.479,2.479,0,0,1,1.715-3.058l1.561-.439a2.479,2.479,0,0,1,3.058,1.715Z" transform="translate(-54.548 -71.475)" fill="#fff"/>
      <path id="路径_892_-_轮廓" data-name="路径 892 - 轮廓" d="M1854.12,1310.594a2.744,2.744,0,0,1-2.1-1.346,7.589,7.589,0,0,1-1.1-2.259l-1.569-3.4a.474.474,0,0,1-.026-.069,2.943,2.943,0,0,1,2.036-3.63l1.561-.439a2.937,2.937,0,0,1,2.559.475,2.915,2.915,0,0,1,1.071,1.56l2.088,7.419a.464.464,0,0,1-.321.572l-3.728,1.049A1.744,1.744,0,0,1,1854.12,1310.594Zm-3.908-7.357,1.568,3.4a.444.444,0,0,1,.025.069,6.708,6.708,0,0,0,.964,2,1.935,1.935,0,0,0,1.351.965.823.823,0,0,0,.222-.031l3.282-.924-1.963-6.972a2.013,2.013,0,0,0-2.486-1.394l-1.561.439A2.018,2.018,0,0,0,1850.212,1303.237Z" transform="translate(-53.255 -70.184)" fill="#161615"/>
      <path id="路径_893" data-name="路径 893" d="M1872.187,1351.862h-9.168l-5.714-16.584,6.927-2.387Z" transform="translate(-59.206 -94.868)" fill="#fff"/>
      <path id="路径_893_-_轮廓" data-name="路径 893 - 轮廓" d="M1870.9,1351.034h-9.168a.464.464,0,0,1-.438-.313l-5.714-16.584a.464.464,0,0,1,.287-.589l6.927-2.387a.464.464,0,0,1,.579.259l7.956,18.971a.464.464,0,0,1-.428.643Zm-8.837-.927h8.14l-7.518-17.927-6.078,2.094Z" transform="translate(-57.914 -93.576)" fill="#161615"/>
      <path id="路径_894" data-name="路径 894" d="M1848.638,1308.766l-1.066,3.553s1.08,1.548,1.828.98.49-2.577,1.366-3.041" transform="translate(-52.045 -77.118)" fill="#fff"/>
      <path id="路径_894_-_轮廓" data-name="路径 894 - 轮廓" d="M1847.742,1312.6a1.159,1.159,0,0,1-.181-.014,2.238,2.238,0,0,1-1.183-.721,4.974,4.974,0,0,1-.478-.568.464.464,0,0,1-.064-.4l1.066-3.553a.464.464,0,1,1,.888.266l-1,3.328a2.1,2.1,0,0,0,.913.731.14.14,0,0,0,.123-.028,2.465,2.465,0,0,0,.44-1.187c.158-.726.338-1.55.99-1.895a.464.464,0,1,1,.434.82c-.271.144-.4.743-.517,1.273a2.831,2.831,0,0,1-.786,1.728A1.055,1.055,0,0,1,1847.742,1312.6Z" transform="translate(-50.754 -75.826)" fill="#161615"/>
      <path id="直线_19" data-name="直线 19" d="M-1.291,1.145A.463.463,0,0,1-1.636.991.464.464,0,0,1-1.6.336L.593-1.636a.464.464,0,0,1,.655.035.464.464,0,0,1-.035.655L-.981,1.026A.462.462,0,0,1-1.291,1.145Z" transform="translate(1807.579 1231.995)" fill="#161615"/>
      <path id="直线_20" data-name="直线 20" d="M3.088-.827h-4.38a.464.464,0,0,1-.464-.464.464.464,0,0,1,.464-.464h4.38a.464.464,0,0,1,.464.464A.464.464,0,0,1,3.088-.827Z" transform="translate(1807.175 1236.389)" fill="#161615"/>
      <path id="直线_21" data-name="直线 21" d="M1.185.1A.463.463,0,0,1,1.023.07L-1.454-.857a.464.464,0,0,1-.272-.6.464.464,0,0,1,.6-.272L1.348-.8a.464.464,0,0,1,.272.6A.464.464,0,0,1,1.185.1Z" transform="translate(1808.357 1238.812)" fill="#161615"/>
    </g>
  </g>
</svg>
