<svg xmlns="http://www.w3.org/2000/svg" width="66" height="66" viewBox="0 0 66 66">
  <g id="傳染02" transform="translate(-695 -4365)">
    <circle id="椭圆_43" data-name="椭圆 43" cx="33" cy="33" r="33" transform="translate(695 4365)" fill="#fff"/>
    <g id="组_360" data-name="组 360" transform="translate(527.547 3435.356)">
      <path id="路径_905" data-name="路径 905" d="M220.316,968.144a2.5,2.5,0,0,0-3.525-.3l-5.506,4.644V945.078a2.5,2.5,0,1,0-5,0v19.409h-.973V942.9a2.5,2.5,0,1,0-5,0v21.587h-.741V947.626a2.5,2.5,0,1,0-5,0v16.862h-.6V954.459a2.5,2.5,0,1,0-5,0v24.216a7.239,7.239,0,0,0,7.239,7.239h7.849a7.218,7.218,0,0,0,6.9-5.195,4.355,4.355,0,0,1,1.206-2.485c1.34-1.258,2.871-2.354,4.278-3.54l3.587-3.025A2.5,2.5,0,0,0,220.316,968.144Z" transform="translate(-1.353 -1.354)" fill="#fff"/>
      <path id="路径_905_-_轮廓" data-name="路径 905 - 轮廓" d="M202.692,984.962h-7.849a7.635,7.635,0,0,1-7.641-7.641V953.106a2.9,2.9,0,0,1,5.605-1.065v-5.769a2.9,2.9,0,0,1,5.744-.6v-4.125a2.9,2.9,0,0,1,5.806,0v21.185h.17V943.724a2.9,2.9,0,1,1,5.806,0v26.547l4.846-4.087a2.9,2.9,0,0,1,3.743,4.438l-2.38,2.008-1.207,1.018c-.535.451-1.094.895-1.635,1.324-.887.7-1.8,1.43-2.627,2.2a3.578,3.578,0,0,0-1.024,2.033c-.022.085-.045.172-.068.262a6.994,6.994,0,0,1-1.039,2.224,7.584,7.584,0,0,1-1.692,1.735A7.7,7.7,0,0,1,202.692,984.962Zm-12.587-33.957a2.1,2.1,0,0,0-2.1,2.1v24.216a6.846,6.846,0,0,0,6.838,6.838h7.849a6.773,6.773,0,0,0,6.513-4.9c.023-.088.046-.174.067-.258a7.452,7.452,0,0,1,.4-1.246,3.618,3.618,0,0,1,.853-1.171c.848-.8,1.778-1.533,2.677-2.246.536-.425,1.091-.865,1.616-1.308l1.207-1.018,2.38-2.008A2.1,2.1,0,1,0,215.7,966.8l-5.506,4.644a.4.4,0,0,1-.66-.307V943.724a2.1,2.1,0,1,0-4.2,0v19.409a.4.4,0,0,1-.4.4h-.973a.4.4,0,0,1-.4-.4V941.547a2.1,2.1,0,1,0-4.2,0v21.587a.4.4,0,0,1-.4.4h-.741a.4.4,0,0,1-.4-.4V946.272a2.1,2.1,0,1,0-4.2,0v16.862a.4.4,0,0,1-.4.4h-.6a.4.4,0,0,1-.4-.4V953.106A2.1,2.1,0,0,0,190.105,951.005Z" transform="translate(0 0)" fill="#161615"/>
      <circle id="椭圆_45" data-name="椭圆 45" cx="7.657" cy="7.657" r="7.657" transform="translate(188.098 973.409) rotate(-45)" fill="#fff"/>
      <path id="椭圆_45_-_轮廓" data-name="椭圆 45 - 轮廓" d="M8.058,0a8.06,8.06,0,0,1,3.137,15.483A8.06,8.06,0,0,1,4.921.633,8.008,8.008,0,0,1,8.058,0Zm0,15.313A7.255,7.255,0,1,0,.8,8.058,7.263,7.263,0,0,0,8.058,15.313Z" transform="translate(187.53 973.409) rotate(-45)" fill="#161615"/>
      <g id="组_359" data-name="组 359" transform="translate(194.527 967.266)">
        <path id="路径_906" data-name="路径 906" d="M229.942,1080.024c-2.551.827-2.4-1.582-3.61-4.234-1.244-2.729-2.113-4.72.437-5.547s2.059,1.752,2.935,4.453S232.492,1079.2,229.942,1080.024Z" transform="translate(-223.773 -1068.641)" fill="#fff"/>
        <path id="路径_906_-_轮廓" data-name="路径 906 - 轮廓" d="M227.684,1079.238a1.794,1.794,0,0,1-1.582-.887,8.242,8.242,0,0,1-.785-1.873,18.817,18.817,0,0,0-.706-1.875,20.133,20.133,0,0,1-1.039-2.564,3.116,3.116,0,0,1-.024-2.173,2.62,2.62,0,0,1,1.742-1.358,3.164,3.164,0,0,1,.971-.177,1.56,1.56,0,0,1,.907.264,1.746,1.746,0,0,1,.562.683,7.789,7.789,0,0,1,.521,1.916,12.915,12.915,0,0,0,1.28,3.947,11.386,11.386,0,0,1,.609,1.463,1.942,1.942,0,0,1,0,1.372,2.14,2.14,0,0,1-1.432,1.078A3.336,3.336,0,0,1,227.684,1079.238Zm-1.422-10.1a2.425,2.425,0,0,0-.723.138,1.885,1.885,0,0,0-1.255.918c-.394.895.312,2.442,1.059,4.081a19.469,19.469,0,0,1,.736,1.953,7.784,7.784,0,0,0,.693,1.685,1,1,0,0,0,.912.527,2.6,2.6,0,0,0,.779-.146c.523-.17.832-.377.943-.634.2-.461-.172-1.255-.6-2.175a13.682,13.682,0,0,1-1.341-4.136C227.155,1069.74,226.972,1069.133,226.262,1069.133Z" transform="translate(-222.419 -1067.287)" fill="#161615"/>
        <path id="路径_907" data-name="路径 907" d="M234.559,1075.588a.442.442,0,1,1-.442-.442A.442.442,0,0,1,234.559,1075.588Z" transform="translate(-230.37 -1072.544)" fill="#161615"/>
        <path id="路径_908" data-name="路径 908" d="M236.49,1093.916a.442.442,0,1,1-.442-.442A.442.442,0,0,1,236.49,1093.916Z" transform="translate(-231.859 -1086.679)" fill="#161615"/>
        <path id="路径_909" data-name="路径 909" d="M245.712,1103.8a.442.442,0,1,1-.442-.442A.442.442,0,0,1,245.712,1103.8Z" transform="translate(-238.972 -1094.302)" fill="#161615"/>
        <path id="路径_910" data-name="路径 910" d="M231.546,1082.754a.277.277,0,1,1-.277-.277A.277.277,0,0,1,231.546,1082.754Z" transform="translate(-228.3 -1078.198)" fill="#161615"/>
        <path id="路径_911" data-name="路径 911" d="M240.023,1087.991a.277.277,0,1,1-.277-.277A.277.277,0,0,1,240.023,1087.991Z" transform="translate(-234.838 -1082.237)" fill="#161615"/>
        <path id="路径_912" data-name="路径 912" d="M239.2,1104.863a.277.277,0,1,1-.277-.277A.277.277,0,0,1,239.2,1104.863Z" transform="translate(-234.2 -1095.249)" fill="#161615"/>
        <path id="直线_18" data-name="直线 18" d="M-.9.284A.4.4,0,0,1-1.282.02l-.449-1.236a.4.4,0,0,1,.24-.514.4.4,0,0,1,.514.24L-.527-.254A.4.4,0,0,1-.768.26.4.4,0,0,1-.9.284Z" transform="translate(3.597 1.83)" fill="#161615"/>
        <path id="直线_19" data-name="直线 19" d="M-1.353.109a.4.4,0,0,1-.4-.4V-1.353a.4.4,0,0,1,.4-.4.4.4,0,0,1,.4.4V-.293A.4.4,0,0,1-1.353.109Z" transform="translate(4.942 1.755)" fill="#161615"/>
        <path id="直线_20" data-name="直线 20" d="M-1.354.061a.4.4,0,0,1-.18-.043.4.4,0,0,1-.178-.539L-1.2-1.534a.4.4,0,0,1,.539-.178.4.4,0,0,1,.178.539L-1-.16A.4.4,0,0,1-1.354.061Z" transform="translate(5.751 1.905)" fill="#161615"/>
        <path id="直线_21" data-name="直线 21" d="M-1.354-.031a.4.4,0,0,1-.265-.1A.4.4,0,0,1-1.655-.7l.809-.922A.4.4,0,0,1-.28-1.655a.4.4,0,0,1,.037.566l-.809.922A.4.4,0,0,1-1.354-.031Z" transform="translate(6.262 2.518)" fill="#161615"/>
        <path id="直线_22" data-name="直线 22" d="M-1.354-.51a.4.4,0,0,1-.37-.246.4.4,0,0,1,.215-.525l1.054-.442a.4.4,0,0,1,.525.215.4.4,0,0,1-.215.525L-1.2-.542A.4.4,0,0,1-1.354-.51Z" transform="translate(6.599 3.956)" fill="#161615"/>
        <path id="直线_23" data-name="直线 23" d="M-1.354-.519A.4.4,0,0,1-1.72-.757a.4.4,0,0,1,.2-.53l.966-.433a.4.4,0,0,1,.53.2.4.4,0,0,1-.2.53l-.966.433A.4.4,0,0,1-1.354-.519Z" transform="translate(6.823 5.064)" fill="#161615"/>
        <path id="直线_24" data-name="直线 24" d="M-1.353-.441a.4.4,0,0,1-.361-.226A.4.4,0,0,1-1.53-1.2L-.48-1.715a.4.4,0,0,1,.537.185.4.4,0,0,1-.185.537l-1.049.512A.4.4,0,0,1-1.353-.441Z" transform="translate(7.045 6.037)" fill="#161615"/>
        <path id="直线_25" data-name="直线 25" d="M-1.354-.509A.4.4,0,0,1-1.73-.771a.4.4,0,0,1,.236-.516L-.3-1.73a.4.4,0,0,1,.516.236.4.4,0,0,1-.236.516l-1.193.443A.4.4,0,0,1-1.354-.509Z" transform="translate(7.285 6.966)" fill="#161615"/>
        <path id="直线_26" data-name="直线 26" d="M-1.353-.492a.4.4,0,0,1-.348-.2.4.4,0,0,1,.148-.548l.8-.46a.4.4,0,0,1,.548.148.4.4,0,0,1-.148.548l-.8.46A.4.4,0,0,1-1.353-.492Z" transform="translate(7.679 7.984)" fill="#161615"/>
        <path id="直线_27" data-name="直线 27" d="M-1.354-.625a.4.4,0,0,1-.369-.242.4.4,0,0,1,.209-.528l.758-.328a.4.4,0,0,1,.528.209.4.4,0,0,1-.209.528l-.758.328A.4.4,0,0,1-1.354-.625Z" transform="translate(8.095 9.032)" fill="#161615"/>
        <path id="直线_28" data-name="直线 28" d="M-1.353-.415a.4.4,0,0,1-.322-.162.4.4,0,0,1,.082-.562l.72-.537a.4.4,0,0,1,.562.082.4.4,0,0,1-.082.562l-.72.537A.4.4,0,0,1-1.353-.415Z" transform="translate(8.536 9.81)" fill="#161615"/>
        <path id="直线_29" data-name="直线 29" d="M-.455-.806A.4.4,0,0,1-.52-.811l-.9-.146a.4.4,0,0,1-.332-.461.4.4,0,0,1,.461-.332l.9.146a.4.4,0,0,1,.332.461A.4.4,0,0,1-.455-.806Z" transform="translate(8.852 11.098)" fill="#161615"/>
        <path id="直线_30" data-name="直线 30" d="M-1.354-.266A.4.4,0,0,1-1.63-.377a.4.4,0,0,1-.014-.568l.653-.686a.4.4,0,0,1,.568-.014.4.4,0,0,1,.014.568l-.653.686A.4.4,0,0,1-1.354-.266Z" transform="translate(5.019 12.553)" fill="#161615"/>
        <path id="直线_31" data-name="直线 31" d="M-.4-.952h-.954a.4.4,0,0,1-.4-.4.4.4,0,0,1,.4-.4H-.4a.4.4,0,0,1,.4.4A.4.4,0,0,1-.4-.952Z" transform="translate(4.195 11.796)" fill="#161615"/>
        <path id="直线_32" data-name="直线 32" d="M-.335-.69A.4.4,0,0,1-.436-.7L-1.454-.965a.4.4,0,0,1-.289-.489.4.4,0,0,1,.489-.289l1.018.262a.4.4,0,0,1,.289.489A.4.4,0,0,1-.335-.69Z" transform="translate(3.762 10.589)" fill="#161615"/>
        <path id="直线_33" data-name="直线 33" d="M-.166-.952H-1.353a.4.4,0,0,1-.4-.4.4.4,0,0,1,.4-.4H-.166a.4.4,0,0,1,.4.4A.4.4,0,0,1-.166-.952Z" transform="translate(3.192 9.675)" fill="#161615"/>
        <path id="直线_34" data-name="直线 34" d="M-1.354-.766a.4.4,0,0,1-.4-.337.4.4,0,0,1,.331-.461L-.281-1.75a.4.4,0,0,1,.461.331.4.4,0,0,1-.331.461l-1.137.186A.4.4,0,0,1-1.354-.766Z" transform="translate(2.848 8.666)" fill="#161615"/>
        <path id="直线_35" data-name="直线 35" d="M-.112-.825l-.041,0L-1.394-.954a.4.4,0,0,1-.358-.44.4.4,0,0,1,.44-.358l1.241.127a.4.4,0,0,1,.358.44A.4.4,0,0,1-.112-.825Z" transform="translate(2.339 7.639)" fill="#161615"/>
        <path id="直线_36" data-name="直线 36" d="M-.5-.828a.4.4,0,0,1-.058,0l-.854-.124a.4.4,0,0,1-.34-.455.4.4,0,0,1,.455-.34l.854.124a.4.4,0,0,1,.34.455A.4.4,0,0,1-.5-.828Z" transform="translate(2.339 6.726)" fill="#161615"/>
        <path id="直线_37" data-name="直线 37" d="M-.4-.824a.4.4,0,0,1-.054,0l-.948-.128a.4.4,0,0,1-.344-.451A.4.4,0,0,1-1.3-1.751l.948.128a.4.4,0,0,1,.344.451A.4.4,0,0,1-.4-.824Z" transform="translate(1.755 5.28)" fill="#161615"/>
        <path id="直线_38" data-name="直线 38" d="M-.734-.087a.4.4,0,0,1-.327-.168L-1.68-1.12a.4.4,0,0,1,.093-.56.4.4,0,0,1,.56.093l.619.866A.4.4,0,0,1-.5-.161.4.4,0,0,1-.734-.087Z" transform="translate(2.229 3.237)" fill="#161615"/>
        <path id="直线_39" data-name="直线 39" d="M-.825.134a.4.4,0,0,1-.361-.226l-.528-1.086a.4.4,0,0,1,.186-.537.4.4,0,0,1,.537.186L-.465-.443A.4.4,0,0,1-.65.093.4.4,0,0,1-.825.134Z" transform="translate(2.848 2.354)" fill="#161615"/>
      </g>
    </g>
  </g>
</svg>
