<svg xmlns="http://www.w3.org/2000/svg" width="66" height="66" viewBox="0 0 66 66">
  <g id="傳染01" transform="translate(-240 -4365)">
    <circle id="椭圆_42" data-name="椭圆 42" cx="33" cy="33" r="33" transform="translate(240 4365)" fill="#fff"/>
    <g id="组_358" data-name="组 358" transform="translate(-2028.324 3432.076)">
      <g id="组_356" data-name="组 356" transform="translate(2291.3 945.924)">
        <path id="路径_897" data-name="路径 897" d="M2356.594,947.722a2.908,2.908,0,0,0-2.368,3.362l1.431,8.249-7.16-4.185-13.1,22.406,13.368,7.814a8.414,8.414,0,0,0,11.511-3.018l4.6-7.877a8.391,8.391,0,0,0-1.166-9.972,5.062,5.062,0,0,1-1.786-2.668c-.476-2.083-.678-4.261-1.043-6.37l-.932-5.374A2.907,2.907,0,0,0,2356.594,947.722Z" transform="translate(-2335.029 -947.309)" fill="#fff"/>
        <path id="路径_897_-_轮廓" data-name="路径 897 - 轮廓" d="M2355.708,945.924h0a3.279,3.279,0,0,1,3.226,2.718l.111.639.821,4.735c.138.8.255,1.619.368,2.413.185,1.3.378,2.654.671,3.938a4.234,4.234,0,0,0,1.465,2.268l.223.222a8.033,8.033,0,0,1,1.6,2.319,8.7,8.7,0,0,1,.74,2.685,8.85,8.85,0,0,1-1.12,5.415l-4.6,7.877a8.774,8.774,0,0,1-12.017,3.151l-13.368-7.814a.37.37,0,0,1-.133-.506l13.1-22.406a.37.37,0,0,1,.506-.133l6.473,3.784-1.294-7.466a3.277,3.277,0,0,1,2.669-3.789A3.3,3.3,0,0,1,2355.708,945.924Zm-4.089,38.841a8.081,8.081,0,0,0,6.953-3.987l4.6-7.877a7.971,7.971,0,0,0-1.108-9.524l-.22-.22a4.929,4.929,0,0,1-1.665-2.627c-.3-1.314-.495-2.679-.683-4-.112-.788-.228-1.6-.365-2.391l-.821-4.735-.111-.639a2.531,2.531,0,0,0-2.5-2.1h0a2.573,2.573,0,0,0-.437.038,2.541,2.541,0,0,0-2.067,2.934l1.431,8.25a.37.37,0,0,1-.551.382l-6.841-4-12.725,21.768,13.049,7.628A8.04,8.04,0,0,0,2351.62,984.765Z" transform="translate(-2333.644 -945.924)" fill="#161615"/>
      </g>
      <g id="组_357" data-name="组 357" transform="translate(2280.961 946.43)">
        <path id="路径_898" data-name="路径 898" d="M2313.056,961.882l-10.661,18.237a5.774,5.774,0,0,1-7.9,2.071l-5.321-3.111a5.774,5.774,0,0,1-2.071-7.9l10.661-18.238a5.774,5.774,0,0,1,7.9-2.071l5.321,3.111A5.775,5.775,0,0,1,2313.056,961.882Z" transform="translate(-2285.944 -949.713)" fill="#fff"/>
        <path id="路径_898_-_轮廓" data-name="路径 898 - 轮廓" d="M2301.368,948.327a6.143,6.143,0,0,1,3.1.841l5.321,3.111a6.139,6.139,0,0,1,2.2,8.4l-10.661,18.237a6.141,6.141,0,0,1-8.4,2.2l-5.321-3.111a6.138,6.138,0,0,1-2.2-8.4l10.661-18.237a6.14,6.14,0,0,1,5.309-3.044Zm-5.35,32.9a5.428,5.428,0,0,0,4.671-2.678l10.661-18.237a5.411,5.411,0,0,0-1.938-7.394l-5.321-3.111a5.4,5.4,0,0,0-7.394,1.938l-10.661,18.238a5.4,5.4,0,0,0,1.938,7.393l5.321,3.111A5.4,5.4,0,0,0,2296.018,981.226Z" transform="translate(-2284.557 -948.327)" fill="#161615"/>
        <path id="路径_899" data-name="路径 899" d="M2379.828,991.819a60.418,60.418,0,0,0,4.232-7.2c.8-1.723,1.221-3.934-.2-5.462" transform="translate(-2359.763 -972.665)" fill="#fff"/>
        <path id="路径_899_-_轮廓" data-name="路径 899 - 轮廓" d="M2378.441,990.8a.37.37,0,0,1-.31-.57l.424-.656a53.918,53.918,0,0,0,3.784-6.5c.566-1.225,1.3-3.512-.134-5.055a.37.37,0,0,1,.542-.5,3.958,3.958,0,0,1,1.029,2.92,7.749,7.749,0,0,1-.766,2.948,54.554,54.554,0,0,1-3.834,6.589l-.423.655A.369.369,0,0,1,2378.441,990.8Z" transform="translate(-2358.377 -971.28)" fill="#161615"/>
      </g>
      <path id="路径_900" data-name="路径 900" d="M2291.5,1034.542h0a2.8,2.8,0,0,1-3.827,1l-5.216-3.049a1.426,1.426,0,0,1-.511-1.951l1.385-2.37a1.425,1.425,0,0,1,1.95-.512l5.216,3.049A2.8,2.8,0,0,1,2291.5,1034.542Z" transform="translate(-1.383 -64.371)" fill="#fff"/>
      <path id="路径_900_-_轮廓" data-name="路径 900 - 轮廓" d="M2287.7,1034.913a3.164,3.164,0,0,1-1.6-.433l-5.216-3.049a1.8,1.8,0,0,1-.644-2.456l1.385-2.37a1.795,1.795,0,0,1,2.456-.644l5.215,3.049a3.168,3.168,0,0,1-.046,5.5A3.184,3.184,0,0,1,2287.7,1034.913Zm-4.519-8.458a1.06,1.06,0,0,0-.913.523l-1.386,2.37a1.058,1.058,0,0,0,.379,1.445l5.215,3.049a2.429,2.429,0,1,0,2.451-4.193l-5.215-3.049A1.053,1.053,0,0,0,2283.183,1026.455Z" transform="translate(0 -62.986)" fill="#161615"/>
      <path id="路径_901" data-name="路径 901" d="M2300.613,1008.941h0a2.8,2.8,0,0,1-3.828,1l-6.491-3.795a1.166,1.166,0,0,1-.419-1.6l1.647-2.817a1.166,1.166,0,0,1,1.6-.418l6.491,3.794A2.8,2.8,0,0,1,2300.613,1008.941Z" transform="translate(-7.668 -43.602)" fill="#fff"/>
      <path id="路径_901_-_轮廓" data-name="路径 901 - 轮廓" d="M2296.807,1009.312a3.167,3.167,0,0,1-1.6-.433l-6.491-3.794a1.536,1.536,0,0,1-.551-2.1l1.647-2.817a1.536,1.536,0,0,1,2.1-.551l6.491,3.794a3.169,3.169,0,0,1-.046,5.5A3.186,3.186,0,0,1,2296.807,1009.312Zm-5.664-9.168a.8.8,0,0,0-.689.395l-1.647,2.817a.8.8,0,0,0,.286,1.09l6.491,3.794a2.429,2.429,0,0,0,2.451-4.193l-6.491-3.794A.8.8,0,0,0,2291.143,1000.144Z" transform="translate(-6.281 -42.217)" fill="#161615"/>
      <path id="路径_902" data-name="路径 902" d="M2310.956,983.778h0a2.8,2.8,0,0,1-3.828,1l-7.3-4.268a1.3,1.3,0,0,1-.467-1.78l1.511-2.584a1.3,1.3,0,0,1,1.781-.467l7.3,4.268A2.8,2.8,0,0,1,2310.956,983.778Z" transform="translate(-15.141 -23.35)" fill="#fff"/>
      <path id="路径_902_-_轮廓" data-name="路径 902 - 轮廓" d="M2307.155,984.148a3.167,3.167,0,0,1-1.6-.434l-7.3-4.268a1.674,1.674,0,0,1-.6-2.286l1.51-2.584a1.671,1.671,0,0,1,2.286-.6l7.3,4.268a3.169,3.169,0,0,1-.046,5.5A3.186,3.186,0,0,1,2307.155,984.148Zm-6.543-9.661a.937.937,0,0,0-.806.462l-1.51,2.584a.933.933,0,0,0,.334,1.275l7.3,4.268a2.429,2.429,0,1,0,2.451-4.193l-7.3-4.268A.931.931,0,0,0,2300.612,974.488Z" transform="translate(-13.758 -21.964)" fill="#161615"/>
      <path id="路径_903" data-name="路径 903" d="M2327.8,955.989h0a2.8,2.8,0,0,1-3.828,1l-6.937-4.055a1.188,1.188,0,0,1-.426-1.624l1.626-2.781a1.187,1.187,0,0,1,1.624-.426l6.937,4.055A2.8,2.8,0,0,1,2327.8,955.989Z" transform="translate(-28.773 -1.594)" fill="#fff"/>
      <path id="路径_903_-_轮廓" data-name="路径 903 - 轮廓" d="M2324,956.36a3.167,3.167,0,0,1-1.6-.433l-6.937-4.055a1.559,1.559,0,0,1-.558-2.13l1.626-2.781a1.557,1.557,0,0,1,2.13-.559l6.937,4.055a3.169,3.169,0,0,1-.045,5.5A3.186,3.186,0,0,1,2324,956.36Zm-6.12-9.432a.821.821,0,0,0-.707.405l-1.626,2.781a.818.818,0,0,0,.292,1.119l6.937,4.055a2.429,2.429,0,1,0,2.451-4.193l-6.937-4.055A.814.814,0,0,0,2317.883,946.928Z" transform="translate(-27.39 -0.209)" fill="#161615"/>
      <path id="路径_904" data-name="路径 904" d="M2415.274,1034.1s1.7,6.946,4.248,9.067" transform="translate(-106.782 -69.605)" fill="#fff"/>
      <path id="路径_904_-_轮廓" data-name="路径 904 - 轮廓" d="M2418.136,1042.151a.367.367,0,0,1-.236-.086,8.344,8.344,0,0,1-1.825-2.419,23.876,23.876,0,0,1-1.363-3.065,38.765,38.765,0,0,1-1.183-3.779.37.37,0,1,1,.718-.176h0a37.851,37.851,0,0,0,1.161,3.7c.95,2.555,1.976,4.342,2.965,5.167a.369.369,0,0,1-.237.653Z" transform="translate(-105.396 -68.219)" fill="#161615"/>
    </g>
  </g>
</svg>
