<svg xmlns="http://www.w3.org/2000/svg" width="100" height="100" viewBox="0 0 100 100">
  <g id="極度倦怠" transform="translate(-375.681 -217.928)">
    <path id="路径_913" data-name="路径 913" d="M475.681,267.925a49.816,49.816,0,0,1-6.656,24.956,50.367,50.367,0,0,1-18.406,18.406c-.987.562-2,1.093-3.021,1.6a50.151,50.151,0,0,1-39.787,1.745,47.951,47.951,0,0,1-5.708-2.6,48.588,48.588,0,0,1-7.037-4.569,50,50,0,1,1,80.615-39.537Z" transform="translate(0 0)" fill="#f4f4f4"/>
    <path id="路径_914" data-name="路径 914" d="M386.825,240.822c-6.392,9.946-6,26.312,1.347,34.371,5.4,5.928,11.133,3.592,34.488,4.444,25.523.931,33.985,4.279,38.96,1.4a9.4,9.4,0,0,0,2.263-2c8.914-9.41,7.922-29.171-1.506-39.788-7.854-8.846-19.329-8.83-36.486-8.806C408.147,230.476,393.682,230.153,386.825,240.822Z" transform="translate(0.974 1.836)" fill="#fff"/>
    <path id="路径_915" data-name="路径 915" d="M419.89,231.652a16.494,16.494,0,0,1,15.844,6.03c4.8,6.177,4.468,15.671-1.28,22.592,1.882,5.207,1.182,10.676-1.952,13.789-2.682,2.666-6.945,3.4-7.5,3.491a16.456,16.456,0,0,1-3.692.139,27.691,27.691,0,0,1-9.3-2.134,12.105,12.105,0,0,1-4.748-5.139c-2.669-5.633.4-11.2.738-11.793,0,0-.726-2.059-1.026-2.636a16.648,16.648,0,0,1-1.735-11.074C406.634,238.384,412.405,233.157,419.89,231.652Z" transform="translate(4.287 1.971)" fill="#242537"/>
    <path id="路径_916" data-name="路径 916" d="M411.446,241.942c-5.71,8.965-6.907,24.444,1.87,32.108A18.056,18.056,0,0,0,421.323,278a17.15,17.15,0,0,0,7.627-3.56c8.243-6.907,8.355-21.807,2.058-30.643-.5-.709-6.547-8.975-12.973-7.619C414.733,236.872,412.811,239.8,411.446,241.942Z" transform="translate(4.584 2.654)" fill="#ffbdbd"/>
    <path id="路径_917" data-name="路径 917" d="M404.432,306.131a47.951,47.951,0,0,1-5.708-2.6c.045-1.207.122-2.43.2-3.667a155.343,155.343,0,0,1,2.931-21.054l.114-.547c.9-.25,1.981-.523,3.2-.8a59.7,59.7,0,0,1,5.9-.994,79.444,79.444,0,0,1,7.985-.478c2.816-.076,6.58-.121,11.058,0h.138c.015.015.022.015.038,0,8.273.774,9.913,3.514,10.657,7.871.409,2.384.554,5.253,1.374,8.555.5,3.3,1.632,8.022,1.9,11.97a50.151,50.151,0,0,1-39.787,1.745Z" transform="translate(3.379 8.503)" fill="#fff"/>
    <path id="路径_918" data-name="路径 918" d="M407.616,277.113l-.151,1.9-2.133,26.938a47.941,47.941,0,0,1-5.708-2.6,48.588,48.588,0,0,1-7.037-4.569,71.7,71.7,0,0,1,1.124-11.089,12.935,12.935,0,0,1,7.893-9.124c.433-.182.858-.342,1.268-.486a19.3,19.3,0,0,1,3.2-.8A14.369,14.369,0,0,1,407.616,277.113Z" transform="translate(2.479 8.678)" fill="#fff"/>
    <path id="路径_919" data-name="路径 919" d="M443.583,292.574c-.113,2.262-.235,5.723-.357,10.2-.987.562-2,1.093-3.021,1.6a50.137,50.137,0,0,1-9.472,3.483l-3.643-25.025-1-6.839v-.023s.046,0,.138.008c.015.015.022.015.038,0a21.25,21.25,0,0,1,8.8,2.512,17.125,17.125,0,0,1,6.566,5.677,11.832,11.832,0,0,1,.622,1.1A14.269,14.269,0,0,1,443.583,292.574Z" transform="translate(7.392 8.511)" fill="#fff"/>
    <path id="路径_920" data-name="路径 920" d="M429.138,277.123a10.163,10.163,0,0,1-3.55,5.492,10.376,10.376,0,0,1-10.293,1.107,11.057,11.057,0,0,1-5.809-6.157,3.75,3.75,0,0,0,1.775-.994,3.461,3.461,0,0,0,.655-.961,18.072,18.072,0,0,0,1.438-7.074c-.021-.346,14.515.2,14.21.33-.052.253-.12.62-.186,1.065a19.95,19.95,0,0,0-.154,3.731c.1,2.418.423,2.8.629,2.988A2.082,2.082,0,0,0,429.138,277.123Z" transform="translate(4.957 7.404)" fill="#ffbdbd"/>
    <path id="路径_921" data-name="路径 921" d="M424.744,254.719a1.312,1.312,0,1,0,1.415-1.166A1.3,1.3,0,0,0,424.744,254.719Z" transform="translate(7.193 5.223)" fill="#242537"/>
    <path id="路径_922" data-name="路径 922" d="M412.654,253.951a1.312,1.312,0,1,0,1.415-1.165A1.295,1.295,0,0,0,412.654,253.951Z" transform="translate(5.421 5.11)" fill="#242537"/>
    <path id="路径_923" data-name="路径 923" d="M417.826,249.529c.1.577-2.074,1.757-4.264,1.694-1.336-.039-2.6-.538-2.572-.783.024-.216,1.025.016,2.643-.383,1.846-.455,2.791-1.311,3.829-.837C417.62,249.291,417.8,249.377,417.826,249.529Z" transform="translate(5.177 4.568)" fill="#242537"/>
    <path id="路径_924" data-name="路径 924" d="M423.608,249.752c-.178.557,1.8,2.038,3.975,2.291,1.328.155,2.651-.156,2.659-.4.006-.218-1.017-.133-2.56-.761-1.762-.715-2.573-1.7-3.668-1.381C423.847,249.546,423.655,249.6,423.608,249.752Z" transform="translate(7.026 4.62)" fill="#242537"/>
    <path id="路径_925" data-name="路径 925" d="M413.321,237.674c-2.188-2.191-3.073-5.879-1.682-8.514,2.713-5.138,13.8-5.746,16.14-1.172,1.473,2.88-.248,8.353-4.536,10.739A8.339,8.339,0,0,1,413.321,237.674Z" transform="translate(5.174 1.023)" fill="#242537"/>
    <path id="路径_926" data-name="路径 926" d="M408.73,254.959c-.612-1.143-1.985-2.76-2.922-2.454-1.4.459-2.02,5.253.253,7.434.1.1,1.416,1.331,2.376.925C409.689,260.333,409.922,257.187,408.73,254.959Z" transform="translate(4.234 5.064)" fill="#ffbdbd"/>
    <path id="路径_927" data-name="路径 927" d="M433.7,258.7c-.722,1.078-2.247,2.551-3.15,2.153-1.344-.594-1.492-5.426.987-7.372.111-.088,1.541-1.184,2.455-.686C435.184,253.444,435.107,256.6,433.7,258.7Z" transform="translate(7.905 5.093)" fill="#ffbdbd"/>
    <g id="组_361" data-name="组 361" transform="translate(425.18 261.602)">
      <path id="路径_928" data-name="路径 928" d="M420.133,262.225a2.666,2.666,0,0,1-1.283-.306l.607-1.021a1.663,1.663,0,0,0,1.2.063c.184-.5-.182-2.589-.813-4.588l1.132-.357c1.154,3.652,1.2,5.685.148,6.042A3.058,3.058,0,0,1,420.133,262.225Z" transform="translate(-418.85 -256.017)" fill="#f99b9b"/>
    </g>
    <path id="路径_929" data-name="路径 929" d="M417.655,265.993c-.127-.5,1.41-1.705,2.893-1.5.822.116,1.7.675,1.652,1.1-.065.541-1.644.763-2.45.795C419.437,266.405,417.778,266.473,417.655,265.993Z" transform="translate(6.154 6.825)" fill="#fff"/>
    <g id="组_362" data-name="组 362" transform="translate(414.491 261.334)">
      <path id="路径_930" data-name="路径 930" d="M413.978,259.076a4.988,4.988,0,0,1-.631-.04,5.341,5.341,0,0,1-3.819-2.629l1.149-.624a3.965,3.965,0,0,0,2.838,1.956,3.891,3.891,0,0,0,3.115-1.046l.908.939A5.348,5.348,0,0,1,413.978,259.076Z" transform="translate(-409.528 -255.783)" fill="#f99b9b"/>
    </g>
    <g id="组_363" data-name="组 363" transform="translate(430.062 261.466)">
      <path id="路径_931" data-name="路径 931" d="M426.668,259.192a5,5,0,0,0,.631-.041,5.332,5.332,0,0,0,3.818-2.629l-1.148-.624a3.962,3.962,0,0,1-2.838,1.956,3.891,3.891,0,0,1-3.115-1.046l-.908.939A5.342,5.342,0,0,0,426.668,259.192Z" transform="translate(-423.108 -255.898)" fill="#f99b9b"/>
    </g>
    <g id="组_364" data-name="组 364" transform="translate(417.807 276.934)">
      <path id="路径_932" data-name="路径 932" d="M420.015,273.22a11.692,11.692,0,0,1-7.6-3.027l.811-.8c.235.235,5.835,5.7,13.283.427l.659.932A12.168,12.168,0,0,1,420.015,273.22Z" transform="translate(-412.42 -269.388)" fill="#f99b9b"/>
    </g>
    <path id="路径_933" data-name="路径 933" d="M406.05,254.85c2.9,1.731,9.665-3.91,11.263-5.242a30.544,30.544,0,0,0,4.188-4.256,46.985,46.985,0,0,0,5.354,4.942c3.109,2.453,8.4,6.7,10.724,5.194.75-.485.975-1.6,1.424-3.822a19.8,19.8,0,0,0,.275-5.354c-.562-4.725-6.72-13.606-16.415-14.109a17.527,17.527,0,0,0-15,7.235C403.957,244.96,403.309,253.215,406.05,254.85Z" transform="translate(4.208 2.09)" fill="#242537"/>
    <path id="路径_934" data-name="路径 934" d="M468.343,284.014c-18.919,34.209-71.05,32.7-88.015-2.46,18.212-6.2,33.867-1.817,53.473.927A208.9,208.9,0,0,0,468.343,284.014Z" transform="translate(0.681 8.867)" fill="#f27468"/>
  </g>
</svg>
