<svg xmlns="http://www.w3.org/2000/svg" width="100.01" height="100" viewBox="0 0 100.01 100">
  <g id="發燒" transform="translate(-56.645 -296.349)">
    <path id="路径_997" data-name="路径 997" d="M156.655,346.349a50.021,50.021,0,0,1-37.764,48.492s0-.009-.009,0a50.274,50.274,0,0,1-29.425-1.528h-.009a50.008,50.008,0,1,1,67.208-46.964Z" transform="translate(0)" fill="#f4f4f4"/>
    <g id="组_435" data-name="组 435" transform="translate(78.98 300.964)">
      <path id="路径_998" data-name="路径 998" d="M127.851,376.549c-.114.436-.332,1.119-.607,1.9-.664,1.954-1.632,4.563-1.916,5.559-.095,3.2,0,13.774.673,18.023-.588.238-1.251.484-1.973.74,0,0,0-.009-.009,0a50.274,50.274,0,0,1-29.425-1.528h-.009a54.41,54.41,0,0,1-1.28-5.473,88.039,88.039,0,0,1-.579-26.191c.616-5.047,2.324-10.643,6.052-17.587h.009v-.009a28.88,28.88,0,0,1,3.482-.692h.009c5.226-.692,10.169-.009,14.5-.294a1.762,1.762,0,0,1,.247-.019,20.212,20.212,0,0,1,3.832.161,8.874,8.874,0,0,1,1.651.389h.009c.009,0,.028,0,.028.009,1.755.437,3.415,7.181,4.411,13.584.143.845.266,1.689.37,2.5.1.759.2,1.5.275,2.211.085.768.162,1.5.218,2.181A18.134,18.134,0,0,1,127.851,376.549Z" transform="translate(-84.117 -308.891)" fill="#f27468"/>
      <path id="路径_999" data-name="路径 999" d="M97.446,352.162a14.425,14.425,0,0,0-6.656,2.9c-3.652,2.939-4.85,7.195-5.754,12.829-2.486,15.5-3.8,23.684.783,26.912,5.066,3.569,14.216-1.127,22.29-5.27a68.481,68.481,0,0,0,15.576-11q-1.4-2.732-2.794-5.465L94.062,384.14q1.916-10.533,3.83-21.066Z" transform="translate(-82.773 -309.068)" fill="#f27468"/>
      <path id="路径_1000" data-name="路径 1000" d="M160.542,352.064c-4.61,9.21-20.106,7.405-30.265,9.352a25.3,25.3,0,0,0-4.519-14.248q5.715.449,11.724.75,5.143.254,10.084.373c-5.523-6.64-11.186-13.623-16.543-20.4,1.035-1.419,2.08-2.847,3.114-4.266C144.4,331.036,159.88,340.942,160.542,352.064Z" transform="translate(-89.014 -304.925)" fill="#f27468"/>
      <path id="路径_1001" data-name="路径 1001" d="M144.68,363.189a2.453,2.453,0,1,1-.324,4.557l-9.013,7.449-1.326-1.605,9.013-7.449A2.448,2.448,0,0,1,144.68,363.189Z" transform="translate(-90.213 -310.653)" fill="#efefef"/>
      <path id="路径_1002" data-name="路径 1002" d="M145.244,364.376a1.653,1.653,0,1,1-.218,3.07l-6.072,5.018-.893-1.081,6.072-5.018A1.649,1.649,0,0,1,145.244,364.376Z" transform="translate(-90.8 -310.831)" fill="#cc2f47"/>
      <path id="路径_1003" data-name="路径 1003" d="M126.281,376.331a20.425,20.425,0,0,1,8.178-3.983c1.892-.427,3.619-.792,4.566.156,1.24,1.243.568,4.16-.777,5.891a7.411,7.411,0,0,1-3.086,2.159,13.516,13.516,0,0,1-5.808,1.186Q127.818,379.035,126.281,376.331Z" transform="translate(-89.09 -311.935)" fill="#ffbdbd"/>
      <path id="路径_1004" data-name="路径 1004" d="M110.485,306.553c-.232.007-.443.015-.742.041-5.641.492-11.1,4.985-12.436,10.428a16.037,16.037,0,0,0-.087,6.037c.225,1.843.519,2.32,1.577,5.993,1.922,6.67,1.869,8.447,3.754,9.808a8.069,8.069,0,0,0,3.527,1.291c.911.18,8.2,1.522,11.769-2.347,2.77-3,.583-6.179,4.355-11.8,1.085-1.616,1.277-1.369,1.859-2.511a12.257,12.257,0,0,0-2.183-13.5C118.176,306.291,112.63,306.492,110.485,306.553Z" transform="translate(-84.835 -302.443)" fill="#242537"/>
      <path id="路径_1005" data-name="路径 1005" d="M118.754,348.532c-1.011,6.094-11.525,8.777-14.84.382,5.013-2.676,2.342-8.454,2.437-14.675q6.412,2.416,12.836,4.8C118.5,341.637,115.574,346.71,118.754,348.532Z" transform="translate(-85.843 -306.466)" fill="#ffbdbd"/>
      <path id="路径_1006" data-name="路径 1006" d="M116.443,312.687c8.8,6.173,6.058,12.457,6.781,20.784-.856,12.073-15.2,10.375-19.628,1.036C97.811,326.373,98.347,304.477,116.443,312.687Z" transform="translate(-85.322 -303.074)" fill="#ffbdbd"/>
      <path id="路径_1007" data-name="路径 1007" d="M103.671,330.606c-1.019-.909-2.933-1.347-3.971-.375-1.013.948-.619,2.7-.2,3.6.821,1.741,3.036,3,4.248,2.354C105.139,335.442,105.37,332.121,103.671,330.606Z" transform="translate(-85.138 -305.804)" fill="#ffbdbd"/>
      <path id="路径_1008" data-name="路径 1008" d="M123.539,328.967a1.049,1.049,0,1,0,.806-1.436A1.182,1.182,0,0,0,123.539,328.967Z" transform="translate(-88.689 -305.49)" fill="#242537"/>
      <path id="路径_1009" data-name="路径 1009" d="M111.9,330.2a1,1,0,1,0,.77-1.373A1.129,1.129,0,0,0,111.9,330.2Z" transform="translate(-86.999 -305.679)" fill="#242537"/>
      <path id="路径_1010" data-name="路径 1010" d="M113.771,326.246c.095.424-1.469,1.388-3.1,1.43-.992.026-1.952-.293-1.94-.476.009-.162.762-.031,1.946-.392,1.351-.413,2.017-1.086,2.807-.777C113.608,326.078,113.746,326.133,113.771,326.246Z" transform="translate(-86.542 -305.263)" fill="#242537"/>
      <path id="路径_1011" data-name="路径 1011" d="M121.991,325.269c.014.434,1.766.981,3.353.62.968-.221,1.819-.767,1.763-.941-.05-.155-.745.158-1.982.1-1.412-.065-2.224-.552-2.912-.058C122.107,325.066,121.988,325.154,121.991,325.269Z" transform="translate(-88.467 -305.091)" fill="#242537"/>
      <path id="路径_1012" data-name="路径 1012" d="M100.346,326.618c1.84.959,5.584-2.311,10.407-6.522,1.577-1.377,2.8-2.577,3.584-3.367a16.117,16.117,0,0,1,7.594,4.636c.921,1.05,1.878,2.46,2.435,2.266.86-.3.37-3.645.35-3.783a13,13,0,0,0-1.789-4.81c-.592-.928-5.675-8.622-12.973-7.455-5.708.913-8.432,6.549-9.077,7.885C98.852,319.663,98.343,325.576,100.346,326.618Z" transform="translate(-85.14 -302.578)" fill="#242537"/>
      <path id="路径_1013" data-name="路径 1013" d="M109.964,307.9a5.642,5.642,0,0,0-2.818-5.746c-3.889-1.8-10.664,2.8-9.993,6.526.422,2.349,3.878,4.79,7.461,4.273A6.15,6.15,0,0,0,109.964,307.9Z" transform="translate(-84.854 -301.748)" fill="#242537"/>
      <g id="组_430" data-name="组 430" transform="translate(29.463 32.667)">
        <path id="路径_1014" data-name="路径 1014" d="M117.906,341.595l-.666-.54a2.958,2.958,0,0,1,1.59-1.016,3.154,3.154,0,0,1,2.662.691l-.562.646a2.267,2.267,0,0,0-1.9-.5A2.091,2.091,0,0,0,117.906,341.595Z" transform="translate(-117.24 -339.964)" fill="#f99b9b"/>
      </g>
      <path id="路径_1015" data-name="路径 1015" d="M134.682,323.031a6.569,6.569,0,0,0-3.838-7.575,6.3,6.3,0,0,0-6.123,1.3,2.32,2.32,0,0,0,.443,1.431c.8,1.016,2.174.539,3.029,1.439.629.662.4,1.461.539,2.647a8.464,8.464,0,0,0,2.389,4.742Z" transform="translate(-88.864 -303.692)" fill="#ffbdbd"/>
      <g id="组_431" data-name="组 431" transform="translate(10.98 63.919)">
        <path id="路径_1016" data-name="路径 1016" d="M96.52,387.99l-.9-5.043,1.017-.181.676,3.783,24.322-10.024.393.954Z" transform="translate(-95.618 -376.524)" fill="#ff9c97"/>
      </g>
      <g id="组_432" data-name="组 432" transform="translate(11.251 69.481)">
        <path id="路径_1017" data-name="路径 1017" d="M96.41,401l-.475-.916c.255-.133,25.6-13.339,28.613-17.056l.8.65C122.2,387.563,97.463,400.456,96.41,401Z" transform="translate(-95.935 -383.031)" fill="#ff9c97"/>
      </g>
      <g id="组_433" data-name="组 433" transform="translate(21.502 35.485)">
        <path id="路径_1018" data-name="路径 1018" d="M117.831,346.42c-.032.2-.052.392-.083.588a4.644,4.644,0,0,1-1.435.207c-3.491,0-8.158-2.933-8.386-3.088l.558-.868c1.724,1.1,6.732,3.728,9.149,2.7Z" transform="translate(-107.927 -343.26)" fill="#f99b9b"/>
      </g>
      <g id="组_434" data-name="组 434" transform="translate(30.956 26.076)">
        <path id="路径_1019" data-name="路径 1019" d="M120.312,336.9a1.987,1.987,0,0,1-.986.023l.244-.853a1.254,1.254,0,0,0,.881-.184,9.428,9.428,0,0,0-1.463-3.163l.75-.474c1.532,2.42,1.956,3.881,1.261,4.341A2.294,2.294,0,0,1,120.312,336.9Z" transform="translate(-118.987 -332.254)" fill="#f99b9b"/>
      </g>
      <path id="路径_1020" data-name="路径 1020" d="M127.685,377.223c-.933-1.139,4.031-7.876,6.433-7.167a1.6,1.6,0,0,1,1.14,1.3c-.023.6-.815.782-1.547,1.873a5.834,5.834,0,0,0-.631,1.362C132.228,376.63,128.331,378.012,127.685,377.223Z" transform="translate(-89.277 -311.658)" fill="#ffbdbd"/>
    </g>
  </g>
</svg>
