<svg xmlns="http://www.w3.org/2000/svg" width="100" height="100.007" viewBox="0 0 100 100.007">
  <g id="淋巴結腫大" transform="translate(-482.204 -350.165)">
    <path id="路径_957" data-name="路径 957" d="M582.2,400.168a49.994,49.994,0,0,1-45.549,49.806c-1.472.13-2.953.2-4.455.2-.555,0-1.109-.007-1.655-.03A50,50,0,1,1,582.2,400.168Z" transform="translate(0)" fill="#f4f4f4"/>
    <path id="路径_958" data-name="路径 958" d="M556.367,429.7c-.545,4.12-1.024,7.909-1.563,11.2a49.734,49.734,0,0,1-21.041,6.786c.17-6.493.218-15.655-.363-26.613-.189-3.564-.462-7.617-.789-11.653-.123-1.539-.255-3.079-.392-4.587-.651-7.083-1.428-13.5-2.156-16.334-.252-.986-.5-1.539-.732-1.533s-.478.593-.713,2.064c-.2,1.246-.4,3.133-.588,5.844q-.072,1.011-.14,2.182c-.023.375-.044.762-.066,1.164q-.069,1.293-.138,2.775-.095,2.073-.186,4.529c-.046,1.281-.092,2.64-.138,4.088-.279,9.053-.5,21.439-.651,38.2a49.689,49.689,0,0,1-21.123-5.911c-.82-3.772-1.563-7.849-2.194-11.43,0,0-4.667-27.126-2.966-39.911v-.006c.214-1.6.47-3.056.705-4.24.092-.459.178-.874.255-1.244.235-1.066.41-1.739.439-1.854l.006-.017a62.885,62.885,0,0,1,1.9-6.3,46.655,46.655,0,0,1,5.5-11.157h40.927a46.465,46.465,0,0,1,5.481,11.073,64.906,64.906,0,0,1,1.906,6.287c.069.476.141.937.212,1.382l.017.1c.206,1.267.418,2.4.605,3.329l.12.585c.048.237.1.459.14.659l0,.014c.2.944.338,1.488.344,1.514C559.5,393.5,558.471,408.92,556.367,429.7Z" transform="translate(2.618 2.285)" fill="#ffbdbd"/>
    <path id="路径_959" data-name="路径 959" d="M558.813,388.47c-.061,0-.135.006-.2.006-.341.017-.705.04-1.115.069a27.283,27.283,0,0,0-4.234.654c-.1.023-.2.046-.306.072-.338.08-.688.169-1.038.269-.1.029-.2.057-.307.088a26.628,26.628,0,0,0-3.207,1.173c-.089.037-.181.077-.273.117-.247.107-.5.216-.745.338-.092.044-.186.089-.277.135-.29.14-.583.287-.869.447-.31.169-.621.344-.917.51-.094.054-.186.109-.278.166a27.4,27.4,0,0,0-2.509,1.7,28.6,28.6,0,0,0-5.168,5.072.269.269,0,0,1-.023.031c-.2.25-.378.485-.539.7-.1.138-.195.277-.284.424a.073.073,0,0,0-.011.017,34.977,34.977,0,0,0-3.354,5.951l-.006.011a2.175,2.175,0,0,1-.591.788,2.124,2.124,0,0,1-1.387.514h-2.729a2.136,2.136,0,0,1-1.98-1.322c-.324-.782-.694-1.579-1.118-2.391-.026-.046-.049-.088-.074-.134-.149-.275-.3-.556-.456-.829l-.077-.132a29.69,29.69,0,0,0-2.125-3.142c-.335-.432-.677-.839-1.017-1.235l-.2-.229c-.335-.37-.671-.72-1.011-1.061l-.115-.115a28.073,28.073,0,0,0-4.613-3.736l-.172-.105c-.283-.175-.568-.344-.845-.516-.049-.029-.1-.057-.143-.084a31.869,31.869,0,0,0-6.476-2.861q-.2-.064-.4-.12c-.295-.092-.59-.174-.879-.26l-.261-.069c-.925-.241-1.791-.43-2.568-.577-.106-.02-.209-.04-.312-.057-.273-.046-.533-.086-.774-.123-.107-.017-.21-.032-.313-.046-.965-.141-1.711-.2-2.135-.229v-.006c.214-1.6.47-3.056.705-4.24.092-.459.178-.874.255-1.244.235-1.066.41-1.739.439-1.854,2.158.295,4.518.562,7.008.788.424.038.84.084,1.273.112,1.465.128,2.979.237,4.523.329.107.009.212.015.321.021.189.017.388.031.577.037l.318.017c1.33.08,2.683.149,4.045.2.381.017.753.031,1.132.046,1.215.046,2.446.083,3.681.105.464.017.927.023,1.391.032q2.064.034,4.116.037h.315c.707,0,1.41-.006,2.1-.011l.31,0c1.164-.015,2.324-.029,3.469-.061l.373-.008c.774-.021,1.55-.04,2.322-.072.1,0,.192-.008.289-.011,1.9-.071,3.778-.172,5.61-.295.117-.006.237-.015.355-.023,1-.069,1.98-.147,2.947-.233l.3-.025c3.159-.281,6.132-.646,8.812-1.11.12.459.224.923.333,1.391l.009.037c.006.021.008.044.014.063q.327,1.428.6,2.964c.1.527.183,1.064.269,1.609l0,.014c.029.178.057.355.083.533C558.722,387.816,558.767,388.135,558.813,388.47Z" transform="translate(2.665 4.504)" fill="#fff"/>
    <path id="路径_960" data-name="路径 960" d="M521.962,391.527l-4.951.023a9.679,9.679,0,0,0-.134-3.532h.447l.105-.006c2.345-.493,3.128-1.58,3.377-2.316l2.718.8Zm5.168-.04q-.31-.831-.57-1.655c-.115-.373-.227-.759-.333-1.137l6.039-2.211,1.11,3.69C531.676,391.145,528.277,391.42,527.13,391.487Zm6.132,8.258-3.18,3.2-3.44-1.156-.409-1.47,4.371-1.594,2.658-.691Zm4.136-7.012.921,1.175-5.117,1.276.092,1.7-2.536.659-.835-1.64.957-3.763a9.2,9.2,0,0,0,3.469-1.29l.31-.227-.006-.046,3.34-1.722.948-.35Zm3.85-6.255-3.667,1.351-3.021,1.548-1.373-3.7.075-1.548,4.971-.791,3.477,1.46Zm5.326,1.45-4.257-1.2.608-2.179,4.122-2.377,1.875,3.214Zm11.667-2.347c0-.126-.006-.247-.009-.365q-.27-1.534-.6-2.964c-.006-.02-.008-.042-.014-.063l-.009-.037-2.467-.086-.161.3c-.774,1.382-1.663,2.907-1.921,3.256l-3.18-.78-1.716-2.95-.015-.025c-1.063.1-2.141.18-3.247.258l-.04.023-2.784,1.6-3.115-1.293-.026-.011c-.866.038-1.739.061-2.611.084l-.057.008-3.084.485.006-.069-.7-.353-.006,0c-.694.006-1.393.014-2.1.014h-.315l1.944.98-.2,1.88-1.894.694-.367.135-1.078.4-2.612.954c-.143-.318-.287-.622-.438-.917-.175-.341-.359-.654-.533-.948l.008-.038-.046-.017v-.023l-.092-.143-1.13-.484,2-2.505c-.464-.009-.927-.015-1.391-.032l-1.949,2.431-1.428-.409-.3-2.127c-.378-.015-.751-.029-1.132-.046l.39,2.643c0,.134-.092,1.342-2.566,1.88h-1.049l-1.617-1.632q.556-1.548,1.112-3.1l-.318-.017c-.189-.006-.388-.02-.577-.037-.109-.006-.214-.011-.321-.021l-1.109,3.314-3.044,1.11-2.4-2.308,1.714-2.445c-.43-.029-.848-.075-1.273-.112l-1.261,1.806-4.629.273a15.561,15.561,0,0,1-1.242-1.012c-.077.37-.163.785-.255,1.244.315.267.639.519.971.763l.183.138.365,2.314-.089,1.261c.1.014.206.029.313.046.241.037.5.077.774.123l.109-1.476-.365-2.337,3.478-.206,1.883,1.815-2.224,2.838.261.069c.289.086.585.169.879.26l1.886-2.4.646.621,4.025-1.473,1.653,1.672c.281,1.319.447,3.165,0,3.763l-.174.227-1.164.57c.048.026.094.055.143.084.278.172.562.341.845.516l.677-.5-.008-.006,6.719-.031,1.668-5.389c.22.427.419.857.6,1.3.138.548.3,1.093.456,1.617.22.7.464,1.4.736,2.1l.138.373.388-.017c.063,0,.493-.017,1.126-.067.5-.04,1.124-.1,1.794-.2l-.736,2.875-1.2-.5-1.966-.818-.032-.046-.037.023-.13-.06-.075.174-5.334,3.013.115.115c.341.341.677.69,1.011,1.061l.359-.743,4.122-2.339,1.9.783,1.25.516.751,1.479-2.138.78-2.643.96.72,2.626-.975.545.077.132c.155.273.307.554.456.829l1.458-.806.72.244,2.25.757-.169-.015-.3,3.667h1.488l-.365-.175.273-3.379,1.536-1.546,2.078-2.095c.76-.032,1.517-.061,2.276-.086.089-.147.181-.287.284-.424.161-.212.335-.447.539-.7a.269.269,0,0,0,.023-.031c-.912.042-1.823.08-2.735.12l-.193-3.248,4.7-1.175.358-.083q1.519-.344,3.039-.686a27.39,27.39,0,0,1,2.509-1.7q-2.735.611-5.473,1.221l-.843-1.084,1.5-4.108,1.76-.667,4.418,1.246c.235.754.47,1.514.705,2.268.092-.046.186-.092.278-.135.25-.123.5-.232.745-.338-.22-.7-.444-1.4-.665-2.106l2.492-2.709,3.732.909-1.586,1.321c-.163.43-.327.863-.493,1.3.1-.031.206-.06.307-.088.35-.1.7-.189,1.038-.269.023-.086.042-.172.065-.261L556,386.341l-1.8-.432c.313-.479.783-1.282,1.58-2.7l1.64.088-.327,5.131c.409-.029.774-.052,1.118-.069l.06-.986C558.264,386.708,558.253,386.106,558.242,385.582Z" transform="translate(2.756 4.62)" fill="#ffdfd4"/>
    <path id="路径_961" data-name="路径 961" d="M557.229,378.909c-.631.068-1.26.136-1.906.2-7.476.759-15.856,1.282-24.994,1.328a264.165,264.165,0,0,1-26.915-1.244c-.646-.061-1.275-.122-1.9-.19,1.109-3.127,2.019-5.807,2.718-7.864,2.763-8.235,3.454-11.028,3.735-14.337.061-.736.091-1.426.105-2.057a50.057,50.057,0,0,1,44.509,1.336c.054,1.966.19,4.038.448,6.209A67.8,67.8,0,0,0,557.229,378.909Z" transform="translate(2.832)" fill="#f27468"/>
    <ellipse id="椭圆_47" data-name="椭圆 47" cx="4.431" cy="5.942" rx="4.431" ry="5.942" transform="translate(516.282 403.605) rotate(-67.314)" fill="#f27468"/>
    <ellipse id="椭圆_48" data-name="椭圆 48" cx="5.942" cy="4.431" rx="5.942" ry="4.431" transform="translate(533.535 400.013) rotate(-22.686)" fill="#f27468"/>
  </g>
</svg>
