<svg xmlns="http://www.w3.org/2000/svg" width="100" height="99.171" viewBox="0 0 100 99.171">
  <g id="肌肉痛" transform="translate(-263.472 -100.893)">
    <path id="路径_1021" data-name="路径 1021" d="M363.623,150.479a49.583,49.583,0,0,1-49.586,49.586,51.229,51.229,0,0,1-6.075-.367,49.589,49.589,0,1,1,55.661-49.218Z" transform="translate(-0.151)" fill="#f4f4f4"/>
    <g id="组_442" data-name="组 442" transform="translate(263.472 108.037)">
      <path id="路径_1022" data-name="路径 1022" d="M335.072,168.079c1.272-1.883,5.694-1.291,7.9-.623,1.4.423,3.43,1.039,4.572,2.909,1.233,2.019.7,4.3,0,7.273-.716,3.05-1.084,4.617-2.13,4.987C341.978,183.84,332.645,171.671,335.072,168.079Z" transform="translate(-274.555 -118.297)" fill="#dd5d57"/>
      <path id="路径_1023" data-name="路径 1023" d="M345.114,200.824a49.333,49.333,0,0,1-26.436,7.634,51.23,51.23,0,0,1-6.075-.367c.4-.5.834-1.023,1.3-1.569a56.643,56.643,0,0,0,0-6.621,17.4,17.4,0,0,0-2.839-8.081c-3.138-4.4-6.4-3.435-10.285-7.634-2.482-2.69-3.306-5.43-4.675-9.977a44.111,44.111,0,0,1-1.807-14.7l21.79-4.685a41.682,41.682,0,0,1,13.838,8.954c7.415,7.286,10.006,15.556,12.181,22.494A74.544,74.544,0,0,1,345.114,200.824Z" transform="translate(-268.263 -116.431)" fill="#f27468"/>
      <path id="路径_1024" data-name="路径 1024" d="M269.781,119.746c.182-.16.351-.3.6-.5,4.687-3.644,12.085-4.082,17-.853a13.052,13.052,0,0,1,4.371,4.577,14.336,14.336,0,0,1,1.521,4.458,18.785,18.785,0,0,1,.209,1.913c.426,4.17,4.6,5.623,5.441,9.576a8.123,8.123,0,0,1-.953,5.442c-2.062,3.626-7.365,5.715-11.557,4.655-3.934-1-10.256-5.607-11.761-5.963-1.986-.469-1.958-.141-3.22-.6a12.853,12.853,0,0,1-7.948-11.932C263.682,125.03,268.088,121.23,269.781,119.746Z" transform="translate(-263.472 -110.423)" fill="#242537"/>
      <path id="路径_1025" data-name="路径 1025" d="M292.832,159.328c.06,3.192.628,4.009,1.142,4.157,1.088.312,2.479-2.1,4.728-4.728a36.473,36.473,0,0,1,7.9-6.855,26.588,26.588,0,0,1-10.516-11.271q-4.577,5.118-9.171,10.224a13.679,13.679,0,0,1,5.917,8.473Z" transform="translate(-267.121 -114.222)" fill="#ffbdbd"/>
      <path id="路径_1026" data-name="路径 1026" d="M270.518,128.976c-2.4,10.863,4.226,13.911,9.533,20.746.8.716,4.346,3.762,8.481,3.02,5.65-1.015,8.655-8.431,7.941-13.866-.551-4.192-3.269-6.861-6.252-9.791-3.155-3.1-5.9-5.795-9.959-5.811C274.754,123.252,271.088,128.185,270.518,128.976Z" transform="translate(-264.49 -111.521)" fill="#ffbdbd"/>
      <path id="路径_1027" data-name="路径 1027" d="M295.681,134.57c-.492-1.708.115-4.017,1.392-4.339,1.132-.285,2.469,1.074,3.015,2.275.859,1.891.308,4.6-.985,5C297.927,137.863,296.178,136.3,295.681,134.57Z" transform="translate(-268.459 -112.598)" fill="#ffbdbd"/>
      <path id="路径_1028" data-name="路径 1028" d="M279.125,146.289a1.051,1.051,0,1,1-1.571-.506A1.183,1.183,0,0,1,279.125,146.289Z" transform="translate(-265.603 -115.002)" fill="#242537"/>
      <path id="路径_1029" data-name="路径 1029" d="M289.1,138.525a1.051,1.051,0,1,1-1.571-.506A1.184,1.184,0,0,1,289.1,138.525Z" transform="translate(-267.156 -113.794)" fill="#242537"/>
      <path id="路径_1030" data-name="路径 1030" d="M283.477,136.888c.23.393,2.118.02,3.4-1.109.781-.688,1.291-1.617,1.152-1.749-.122-.117-.607.519-1.776,1.086-1.333.647-2.324.605-2.711,1.4C283.482,136.643,283.416,136.784,283.477,136.888Z" transform="translate(-266.582 -113.193)" fill="#242537"/>
      <path id="路径_1031" data-name="路径 1031" d="M277.349,142.324c.3.343-.657,2.015-2.135,2.868-.9.521-1.944.708-2.026.533-.072-.153.686-.41,1.6-1.336,1.039-1.057,1.315-2.01,2.2-2.122C277.115,142.251,277.27,142.233,277.349,142.324Z" transform="translate(-264.984 -114.475)" fill="#242537"/>
      <path id="路径_1032" data-name="路径 1032" d="M292.574,131.605c-1.038,1.294-4.266-.8-12.721-1.243-2.205-.116-4.01-.079-5.156-.032-2.173,4.275-2.6,7.115-2.531,8.979.017.487.1,1.817-.54,2.146-.623.32-1.949-.3-2.648-1.276l-.035-.051a13.626,13.626,0,0,1-2.054-4.973c-.208-1.136-1.787-10.673,4.654-14.981,5.332-3.566,11.8-.776,12.6-.413C290.434,122.6,294.008,129.818,292.574,131.605Z" transform="translate(-263.954 -110.759)" fill="#242537"/>
      <path id="路径_1033" data-name="路径 1033" d="M273.685,119.793a5.917,5.917,0,0,1-1.932-6.427c1.7-4.158,10.191-5.455,12.334-2.11,1.35,2.107.435,6.447-2.687,8.606A6.449,6.449,0,0,1,273.685,119.793Z" transform="translate(-264.71 -109.354)" fill="#242537"/>
      <g id="组_437" data-name="组 437" transform="translate(24.18 32.442)">
        <path id="路径_1034" data-name="路径 1034" d="M292.373,157.213l-.263-.879a9.158,9.158,0,0,0,7-8.547l.918-.01A10.221,10.221,0,0,1,292.373,157.213Z" transform="translate(-292.11 -147.776)" fill="#f99b9b"/>
      </g>
      <g id="组_438" data-name="组 438" transform="translate(17.494 30.213)">
        <path id="路径_1035" data-name="路径 1035" d="M285.553,149.645a.8.8,0,0,1-.457-.144c-.873-.592-.921-3.25-.9-4.365l.918.017a9.344,9.344,0,0,0,.437,3.519l.844-.839.648.651-1.142,1.088A.893.893,0,0,1,285.553,149.645Z" transform="translate(-284.191 -145.136)" fill="#f99b9b"/>
      </g>
      <path id="路径_1036" data-name="路径 1036" d="M302.415,150.628c2.421-.631,5.921-1.517,10.16-2.5,12.306-2.844,15-3.056,16.364-2.55a4.017,4.017,0,0,1,.533.258c2.742,1.478,4.614,4.687,5.9,19.11.222,2.5.467,5.783.623,9.663l-5.165,1.838-5.537-18.567a107.889,107.889,0,0,1-18.576,6.361c-3.538.849-6.765,1.415-8.438-.335-1.526-1.6-1.045-4.373-.832-5.61A12.616,12.616,0,0,1,302.415,150.628Z" transform="translate(-268.722 -114.959)" fill="#f27468"/>
      <path id="路径_1037" data-name="路径 1037" d="M338.137,183.62a4.483,4.483,0,0,1,3.295-1.156c3.918.147,6.182,5.3,6.443,5.894a8.451,8.451,0,0,1,.74,3.122c.037,1.034.1,2.834-.74,3.268-1.475.76-5.089-2.984-5.553-3.465-1.512-1.566-2.184-2.565-3.019-2.613-.735-.042-.847,1.755-2.056,2.259a1.774,1.774,0,0,1-1.935-.389c-.38-.488.1-1.246.461-1.87a23.313,23.313,0,0,0,1.161-2.5C337.919,184.166,337.732,184.063,338.137,183.62Z" transform="translate(-274.632 -120.733)" fill="#ffbdbd"/>
      <g id="组_439" data-name="组 439" transform="translate(46.721 43.341)">
        <path id="路径_1038" data-name="路径 1038" d="M333.306,180.247l-5.633-18.421-8.6,2.582-.264-.878,9.478-2.846,5.9,19.294Z" transform="translate(-318.806 -160.684)" fill="#ff9c97"/>
      </g>
      <path id="路径_1039" data-name="路径 1039" d="M338.377,186.507l-1.143-3.221,5.489-1.039,1.368,3.032Z" transform="translate(-274.953 -120.7)" fill="#ffbdbd"/>
      <g id="组_440" data-name="组 440" transform="translate(66.819 54.217)">
        <rect id="矩形_129" data-name="矩形 129" width="0.918" height="5.755" transform="translate(0 0.161) rotate(-10.103)" fill="#ff9c97"/>
      </g>
      <path id="路径_1040" data-name="路径 1040" d="M349.733,165.114l.641-8.622,3.041,1.619,2.227-6.078q-.766,4.229-1.534,8.459l-2.656-1.571Q350.593,162.017,349.733,165.114Z" transform="translate(-276.898 -115.997)" fill="#242537"/>
      <path id="路径_1041" data-name="路径 1041" d="M354.679,169.831q.2-2.607.388-5.214l1.839.979q.673-1.838,1.347-3.675-.465,2.557-.928,5.115l-1.607-.95Q355.2,167.958,354.679,169.831Z" transform="translate(-277.668 -117.536)" fill="#242537"/>
      <g id="组_441" data-name="组 441" transform="translate(19.845 34.864)">
        <path id="路径_1042" data-name="路径 1042" d="M287.7,153.483l-.719-.57a6.357,6.357,0,0,1,2.521-1.931,5.965,5.965,0,0,1,1.1-.337l.186.9a5.146,5.146,0,0,0-.929.286A5.374,5.374,0,0,0,287.7,153.483Z" transform="translate(-286.976 -150.645)" fill="#f99b9b"/>
      </g>
    </g>
  </g>
</svg>
