<svg xmlns="http://www.w3.org/2000/svg" width="100.008" height="100" viewBox="0 0 100.008 100">
  <g id="皮疹_水泡" data-name="皮疹、水泡" transform="translate(-164.035 -85.942)">
    <path id="路径_962" data-name="路径 962" d="M264.043,135.939a49.883,49.883,0,0,1-17.283,37.807c-.4.357-.82.7-1.237,1.039q-1.787,1.459-3.712,2.74c-.243.167-.486.334-.736.493-.13.084-.258.159-.388.243-.212.136-.424.266-.644.4-1.1.668-2.224,1.3-3.386,1.875-.607.319-1.221.615-1.844.9q-1.742.808-3.56,1.457c-.136.061-.281.107-.425.159-.258.092-.516.182-.774.266a.042.042,0,0,1-.038.015c-.1.038-.205.076-.3.107l-.136.046a50.292,50.292,0,0,1-25.959,1.366c-.1-.023-.2-.038-.3-.061-.478-.1-.963-.212-1.434-.334-1.047-.258-2.087-.554-3.1-.881-.122-.038-.243-.076-.365-.122-.44-.144-.873-.289-1.3-.448-.4-.143-.79-.288-1.176-.44-.031-.007-.054-.022-.084-.03l-.44-.182c-.8-.311-1.587-.652-2.369-1.017-1.017-.47-2.018-.971-3-1.518a48.711,48.711,0,0,1-4.509-2.793c-.577-.4-1.147-.812-1.7-1.244-.388-.289-.774-.585-1.154-.9a50,50,0,1,1,81.359-38.945Z" fill="#f4f4f4"/>
    <g id="组_427" data-name="组 427" transform="translate(178.406 91.232)">
      <g id="组_377" data-name="组 377" transform="translate(17.447 54.483)">
        <path id="路径_963" data-name="路径 963" d="M232.588,172.894c-.607.319-1.221.615-1.844.9q-1.742.808-3.56,1.457c-.136.061-.281.107-.425.159-.258.092-.516.182-.774.266a.042.042,0,0,1-.038.015c-.1.038-.205.076-.3.107l-.136.046a50.292,50.292,0,0,1-25.959,1.366c-.1-.023-.2-.038-.3-.061-.478-.1-.963-.212-1.434-.334-1.047-.258-2.087-.554-3.1-.881-.122-.038-.243-.076-.365-.122-.44-.144-.873-.289-1.3-.448-.4-.143-.79-.288-1.176-.44-.031-.007-.054-.022-.084-.03.084-1.465.151-2.9.22-4.334v-.007c.007-.092.007-.19.007-.281v-.023c.159-3.34.274-6.618.342-9.814,1.071-2.034,2.133-4.076,3.2-6.1,0-.008.007-.008.007-.016.228-.432.455-.865.691-1.29a.007.007,0,0,0,.007-.007V153q2.915-5.578,5.844-11.157v-.008a.008.008,0,0,1,.008-.008c.646-1.26,1.3-2.5,1.973-3.756h.023c.554,0,8.652.1,13.434.144h.008c.151.007.3.007.432.007h.373c.523,0,.94.015,1.32.015h.023c.714.016,1.17.016,1.275.016h.016l.2.1.008.007.015.016h.008l.858.455c1.321.705,4.622,2.452,7.226,3.848h.007c1.275.667,2.361,1.252,3.006,1.594.007,1.586.022,3.18.045,4.8v.016c0,1.183.016,2.383.031,3.574v.1c.023,1.456.03,2.907.045,4.387v.015C232.489,162.344,232.535,167.62,232.588,172.894Z" transform="translate(-191.784 -138.071)" fill="#f27468"/>
      </g>
      <g id="组_378" data-name="组 378" transform="translate(46.623 54.505)">
        <path id="路径_964" data-name="路径 964" d="M238.96,166.1c-.4.357-.82.7-1.237,1.039q-1.787,1.459-3.712,2.74c-.243.167-.486.334-.736.493-.13.084-.258.159-.388.243-.212.136-.424.266-.644.4-1.1.668-2.224,1.3-3.386,1.875-.607.319-1.221.615-1.844.9q-1.742.808-3.56,1.457c-.136.061-.281.107-.425.159-.258.092-.516.182-.774.266q-.991-6.364-1.919-12.957-1.072-7.606-1.966-14.967c-.1-.767-.189-1.534-.281-2.293v-.007a1.291,1.291,0,0,1-.023-.144v-.007c-.053-.5-.114-.987-.174-1.488-.038-.281-.069-.562-.107-.85v-.008c-.045-.478-.105-.948-.166-1.434-.031-.3-.061-.592-.1-.889-.069-.577-.13-1.145-.2-1.714-.016-.152-.031-.3-.054-.448v-.008c-.007-.061-.015-.136-.023-.2,0-.031-.007-.077-.007-.107a.121.121,0,0,1-.008-.053c.182.038.357.068.532.1h.007a52.79,52.79,0,0,1,7.492,1.9C233.927,143.16,234.254,148.489,238.96,166.1Z" transform="translate(-217.229 -138.091)" fill="#f27468"/>
      </g>
      <g id="组_379" data-name="组 379" transform="translate(5.432 54.445)">
        <path id="路径_965" data-name="路径 965" d="M205.647,138.038v.038c-.251,1.958-.486,3.916-.729,5.882v.015q-2.083,16.577-4.129,33.177c-.478-.1-.963-.212-1.434-.334-1.047-.258-2.087-.554-3.1-.881-.122-.038-.243-.076-.365-.122-.44-.144-.873-.289-1.3-.448-.4-.143-.79-.288-1.176-.44-.031-.007-.054-.022-.084-.03l-.44-.182c-.8-.311-1.587-.652-2.369-1.017-1.017-.47-2.018-.971-3-1.518a48.712,48.712,0,0,1-4.509-2.793c-.577-.4-1.147-.812-1.7-1.244.038-.289.084-.57.122-.835V167.3c.136-1.109.258-2.095.319-2.984,1.131-7.453,2.823-14.421,4.63-16.424a17,17,0,0,1,4.706-4.554l.008-.008v-.007c.258-.174.516-.357.781-.516a29.3,29.3,0,0,1,10.824-4.531,13.363,13.363,0,0,1,1.921-.159h.022C204.955,138.083,205.3,138.06,205.647,138.038Z" transform="translate(-181.305 -138.038)" fill="#f27468"/>
      </g>
      <g id="组_383" data-name="组 383" transform="translate(0 56.725)">
        <g id="组_380" data-name="组 380" transform="translate(0.897)">
          <path id="路径_966" data-name="路径 966" d="M198.219,152.147c2.351,8.466-.221,16.958-5.743,18.965s-11.9-3.225-14.255-11.691.221-16.956,5.743-18.965S195.868,143.681,198.219,152.147Z" transform="translate(-177.35 -140.027)" fill="#fff"/>
        </g>
        <g id="组_381" data-name="组 381" transform="translate(0 0.419)">
          <path id="路径_967" data-name="路径 967" d="M194.242,169.92a7.845,7.845,0,0,1-1.525,1.086c-.008.007-.008.007-.015.007a.172.172,0,0,1-.077.038,5.68,5.68,0,0,1-.933.425,5.066,5.066,0,0,1-.744.22,7.068,7.068,0,0,1-2.739.136,48.711,48.711,0,0,1-4.509-2.793c-.577-.4-1.147-.812-1.7-1.244-.388-.289-.774-.585-1.154-.9a21.409,21.409,0,0,1-3.408-7.113c-2.331-8.395.182-16.812,5.6-18.907.007-.008.023-.008.03-.015.031-.016.069-.031.107-.046,2.869-1.04,5.966-.13,8.608,2.163a19.514,19.514,0,0,1,5.654,9.534c.136.485.251.971.357,1.456C199.176,160.494,197.689,166.816,194.242,169.92Z" transform="translate(-176.568 -140.392)" fill="#bbeae2"/>
        </g>
        <g id="组_382" data-name="组 382" transform="translate(12.62 19.564)">
          <path id="路径_968" data-name="路径 968" d="M191.02,168.618c.311,1.062.63,2.171.941,3.3-.8-.311-1.587-.652-2.369-1.017-.091-.562-.174-1.108-.258-1.647v-.008c-.015-.084-.038-.167-.045-.25-1-6.414-1.671-11.485-1.715-11.909.136.447,1.647,5.305,3.438,11.506v.007C191.02,168.61,191.02,168.61,191.02,168.618Z" transform="translate(-187.574 -157.089)" fill="#bbeae2"/>
        </g>
      </g>
      <g id="组_384" data-name="组 384" transform="translate(48.148 59.836)">
        <path id="路径_969" data-name="路径 969" d="M218.558,147.645l6.791-4.906,4.8,8.769-7.727,2.576Z" transform="translate(-218.558 -142.74)" fill="#f27468"/>
      </g>
      <g id="组_386" data-name="组 386" transform="translate(53.826 59.4)">
        <g id="组_385" data-name="组 385">
          <path id="路径_970" data-name="路径 970" d="M233.09,169.252c-.243.167-.486.334-.736.493-.13.084-.258.159-.388.243l-4.175-13.457v-.015l-1.244-3.993-2.785-8.987-.031-.091v-.008l-.22-.7,1.168-.365.061-.015.463,1.488.008.022,2.535,8.159v.016l.023.068v.008Z" transform="translate(-223.511 -142.36)" fill="#ff9c97"/>
        </g>
      </g>
      <g id="组_388" data-name="组 388" transform="translate(47.617 64.023)">
        <g id="组_387" data-name="组 387">
          <path id="路径_971" data-name="路径 971" d="M223.326,174.027c-.136.061-.281.107-.425.159-.258.092-.516.182-.774.266a.042.042,0,0,1-.038.015c-2.041-11.439-3.7-25.487-3.993-27.924l.144-.015,1.139-.138c.008.054.008.1.015.159v.008c.084.7.174,1.465.281,2.292v.008C220.472,155.348,221.845,165.557,223.326,174.027Z" transform="translate(-218.096 -146.391)" fill="#ff9c97"/>
        </g>
      </g>
      <g id="组_389" data-name="组 389" transform="translate(17.933 7.245)">
        <path id="路径_972" data-name="路径 972" d="M210.546,97.148a15.877,15.877,0,0,0-15.475,5.89c-4.463,6.053-3.737,15.4,2.371,21.914-.23.725-2.282,7.513,1.689,12.686a11.522,11.522,0,0,0,6.42,4.343,15.156,15.156,0,0,0,3.606.134,22.483,22.483,0,0,0,9.015-2.382c2.712-1.761,3.7-3.573,4.091-4.933,1.031-3.589-.109-11.307-.109-11.307s.709-2.011,1-2.575a16.262,16.262,0,0,0,1.695-10.815C223.492,103.723,217.856,98.618,210.546,97.148Z" transform="translate(-192.208 -96.874)" fill="#242537"/>
      </g>
      <g id="组_390" data-name="组 390" transform="translate(20.576 11.282)">
        <path id="路径_973" data-name="路径 973" d="M220.655,129.772a16.369,16.369,0,0,1-.709,1.765,4.714,4.714,0,0,1-.219.437,7.772,7.772,0,0,1-.374.735c-.128.257-.283.515-.437.759s-.322.516-.5.76a14.718,14.718,0,0,1-2.086,2.4,16.388,16.388,0,0,1-7.122,3.774,17.175,17.175,0,0,1-7.818-3.4c-8.744-6.9-8.333-21.726-3.309-30.561,1.21-2.112,2.9-5.01,6.027-5.821,6.053-1.6,12.222,6.015,12.737,6.658A25.06,25.06,0,0,1,220.655,129.772Z" transform="translate(-194.513 -100.395)" fill="#ffbdbd"/>
      </g>
      <g id="组_391" data-name="组 391" transform="translate(26.092 31.252)">
        <path id="路径_974" data-name="路径 974" d="M201.883,119.325a1.317,1.317,0,1,1-1.414-1.51A1.482,1.482,0,0,1,201.883,119.325Z" transform="translate(-199.323 -117.811)" fill="#242537"/>
      </g>
      <g id="组_392" data-name="组 392" transform="translate(39.64 30.479)">
        <path id="路径_975" data-name="路径 975" d="M213.7,118.651a1.317,1.317,0,1,1-1.414-1.51A1.483,1.483,0,0,1,213.7,118.651Z" transform="translate(-211.138 -117.137)" fill="#242537"/>
      </g>
      <g id="组_393" data-name="组 393" transform="translate(37.35 27.32)">
        <path id="路径_976" data-name="路径 976" d="M209.142,114.932c-.032.57,2.2,1.487,4.321,1.2,1.292-.179,2.468-.8,2.415-1.031-.047-.208-.994.123-2.607-.1-1.84-.247-2.848-.978-3.806-.409C209.317,114.679,209.151,114.781,209.142,114.932Z" transform="translate(-209.142 -114.382)" fill="#242537"/>
      </g>
      <g id="组_394" data-name="组 394" transform="translate(23.442 27.702)">
        <path id="路径_977" data-name="路径 977" d="M203.642,115.109c.119.558-1.946,1.807-4.085,1.844-1.3.023-2.562-.407-2.544-.648.014-.212,1-.032,2.562-.493,1.781-.527,2.664-1.4,3.7-.99C203.429,114.886,203.61,114.962,203.642,115.109Z" transform="translate(-197.012 -114.715)" fill="#242537"/>
      </g>
      <g id="组_395" data-name="组 395" transform="translate(26.804 44.769)">
        <path id="路径_978" data-name="路径 978" d="M199.944,139.4a10.487,10.487,0,0,0,3.764,7.336,8.51,8.51,0,0,0,1.689,1.031,9.66,9.66,0,0,0,8.767-.49,10.692,10.692,0,0,0,1.379-.915,13.362,13.362,0,0,0,4.551-6.95c-4.551-.258-3.907-5.674-3.816-9.812-4.345,1.057-8.7,2.128-13.048,3.185C204.056,135.274,202.845,139.592,199.944,139.4Z" transform="translate(-199.944 -129.6)" fill="#ffbdbd"/>
      </g>
      <g id="组_397" data-name="组 397" transform="translate(30.378 47.189)">
        <g id="组_396" data-name="组 396">
          <path id="路径_979" data-name="路径 979" d="M207.974,136.462a8.912,8.912,0,0,0,.988-.056,9.486,9.486,0,0,0,6.591-4.043l-.959-.652a8.3,8.3,0,0,1-5.762,3.543,8.064,8.064,0,0,1-5.154-1.212l-.618.98A9.333,9.333,0,0,0,207.974,136.462Z" transform="translate(-203.061 -131.71)" fill="#f99b9b"/>
        </g>
      </g>
      <g id="组_398" data-name="组 398" transform="translate(17.451 7.78)">
        <path id="路径_980" data-name="路径 980" d="M193.592,119.758c2.664,1.315,8.289-4.528,8.756-5.013a21.7,21.7,0,0,0,3.446-4.724,43.6,43.6,0,0,0,5.905,4.527,40.822,40.822,0,0,0,8.267,3.838c1.8.695,2.918,1.042,3.759.492.243-.161.745-.672,1.18-3.716a18.935,18.935,0,0,0,.009-5.124c-.759-4.486-7.059-12.674-16.339-12.7a16.751,16.751,0,0,0-13.982,7.617C191.051,110.534,191.029,118.493,193.592,119.758Z" transform="translate(-191.787 -97.341)" fill="#242537"/>
      </g>
      <g id="组_399" data-name="组 399" transform="translate(27.194)">
        <path id="路径_981" data-name="路径 981" d="M214.91,103.03c2.137-2.141,3-5.742,1.643-8.315C213.9,89.7,203.076,89.1,200.79,93.571c-1.439,2.814.242,8.158,4.431,10.489A8.144,8.144,0,0,0,214.91,103.03Z" transform="translate(-200.284 -90.556)" fill="#242537"/>
      </g>
      <g id="组_400" data-name="组 400" transform="translate(45.771 29.279)">
        <path id="路径_982" data-name="路径 982" d="M217.25,118.523c.6-1.117,1.938-2.7,2.853-2.4,1.365.446,1.973,5.129-.248,7.259-.1.1-1.384,1.3-2.321.9C216.312,123.772,216.084,120.7,217.25,118.523Z" transform="translate(-216.486 -116.09)" fill="#ffbdbd"/>
      </g>
      <g id="组_401" data-name="组 401" transform="translate(18.149 31.09)">
        <path id="路径_983" data-name="路径 983" d="M193.5,123.564c.706,1.051,2.2,2.492,3.076,2.1,1.313-.579,1.457-5.3-.963-7.2-.109-.086-1.506-1.157-2.4-.67C192.045,118.433,192.122,121.514,193.5,123.564Z" transform="translate(-192.396 -117.67)" fill="#ffbdbd"/>
      </g>
      <g id="组_403" data-name="组 403" transform="translate(32.33 34.845)">
        <g id="组_402" data-name="组 402">
          <path id="路径_984" data-name="路径 984" d="M206.47,127.008a2.6,2.6,0,0,0,1.254-.3l-.593-1a1.62,1.62,0,0,1-1.173.062,12.284,12.284,0,0,1,.793-4.481l-1.105-.349c-1.127,3.567-1.175,5.553-.144,5.9A3,3,0,0,0,206.47,127.008Z" transform="translate(-204.764 -120.945)" fill="#f99b9b"/>
        </g>
      </g>
      <g id="组_405" data-name="组 405" transform="translate(32.011 43.076)">
        <g id="组_404" data-name="组 404">
          <path id="路径_985" data-name="路径 985" d="M205.549,130.65a2.316,2.316,0,0,1,1.035-1.156,2.663,2.663,0,0,1,2.928.617l.788-.85a3.822,3.822,0,0,0-4.237-.8,3.47,3.47,0,0,0-1.579,1.733Z" transform="translate(-204.485 -128.123)" fill="#f99b9b"/>
        </g>
      </g>
      <g id="组_406" data-name="组 406" transform="translate(43.866 36.241)">
        <path id="路径_986" data-name="路径 986" d="M216.71,123.4a1.13,1.13,0,0,0-1.022-1.241c-.651.06-1.1,1.345-.73,1.752A1.244,1.244,0,0,0,216.71,123.4Z" transform="translate(-214.824 -122.162)" fill="#f99b9b"/>
      </g>
      <g id="组_407" data-name="组 407" transform="translate(45.363 40.487)">
        <path id="路径_987" data-name="路径 987" d="M216.265,127.62a.69.69,0,0,0,.515.181,16.092,16.092,0,0,0,.71-1.767.768.768,0,0,0-.5-.167A1.316,1.316,0,0,0,216.265,127.62Z" transform="translate(-216.13 -125.866)" fill="#f99b9b"/>
      </g>
      <g id="组_408" data-name="组 408" transform="translate(41.255 42.829)">
        <path id="路径_988" data-name="路径 988" d="M214.433,129.151a1.131,1.131,0,0,0-1.023-1.241c-.65.058-1.1,1.345-.729,1.751A1.244,1.244,0,0,0,214.433,129.151Z" transform="translate(-212.547 -127.908)" fill="#f99b9b"/>
      </g>
      <g id="组_409" data-name="组 409" transform="translate(26.754 37.559)">
        <path id="路径_989" data-name="路径 989" d="M199.921,124.554a1.131,1.131,0,0,1,1.022-1.241c.651.06,1.1,1.346.73,1.752A1.244,1.244,0,0,1,199.921,124.554Z" transform="translate(-199.901 -123.311)" fill="#f99b9b"/>
      </g>
      <g id="组_410" data-name="组 410" transform="translate(22.923 35.938)">
        <path id="路径_990" data-name="路径 990" d="M196.58,123.14a1.129,1.129,0,0,1,1.022-1.24c.65.058,1.1,1.345.729,1.751A1.242,1.242,0,0,1,196.58,123.14Z" transform="translate(-196.56 -121.898)" fill="#f99b9b"/>
      </g>
      <g id="组_411" data-name="组 411" transform="translate(24.346 42.829)">
        <path id="路径_991" data-name="路径 991" d="M197.82,129.151a1.13,1.13,0,0,1,1.022-1.241c.65.058,1.1,1.345.729,1.751A1.243,1.243,0,0,1,197.82,129.151Z" transform="translate(-197.801 -127.908)" fill="#f99b9b"/>
      </g>
      <g id="组_412" data-name="组 412" transform="translate(29.426 23.506)">
        <path id="路径_992" data-name="路径 992" d="M202.251,112.3a1.129,1.129,0,0,1,1.022-1.241c.65.058,1.1,1.345.729,1.751A1.243,1.243,0,0,1,202.251,112.3Z" transform="translate(-202.231 -111.056)" fill="#f99b9b"/>
      </g>
      <g id="组_413" data-name="组 413" transform="translate(33.014 46.931)">
        <path id="路径_993" data-name="路径 993" d="M205.38,132.728a1.129,1.129,0,0,1,1.022-1.241c.65.058,1.1,1.345.729,1.751A1.243,1.243,0,0,1,205.38,132.728Z" transform="translate(-205.36 -131.485)" fill="#f99b9b"/>
      </g>
      <g id="组_414" data-name="组 414" transform="translate(43.623 42.899)">
        <path id="路径_994" data-name="路径 994" d="M226.011,145.135a20.752,20.752,0,0,0-6.267-14.523c-.807-.694-3.587-3.079-4.19-2.573-.425,2.207,1.59,2.6,2.955,4.132.261.31,1.543,1.817,1.1,2.824-.321.734-1.2.478-2.711,1.417-.941.594-3.446,2.371-1.664,4.372-.4.425,0,2.565.76,2.887.075,1.665,2.257,3.125,2.7,3.409.009,0,.024.014.047.029.469.326.459,1.1.353,1.774Z" transform="translate(-214.613 -127.969)" fill="#ffbdbd"/>
      </g>
      <g id="组_416" data-name="组 416" transform="translate(44.053 53.511)">
        <g id="组_415" data-name="组 415" transform="translate(0 0)">
          <rect id="矩形_125" data-name="矩形 125" width="3.876" height="0.817" transform="translate(0 1.845) rotate(-28.421)" fill="#f99b9b"/>
        </g>
      </g>
      <g id="组_418" data-name="组 418" transform="translate(44.804 56.217)">
        <g id="组_417" data-name="组 417" transform="translate(0 0)">
          <rect id="矩形_126" data-name="矩形 126" width="4.089" height="0.817" transform="matrix(0.868, -0.497, 0.497, 0.868, 0, 2.031)" fill="#f99b9b"/>
        </g>
      </g>
      <g id="组_420" data-name="组 420" transform="translate(47.403 59.164)">
        <g id="组_419" data-name="组 419" transform="translate(0 0)">
          <rect id="矩形_127" data-name="矩形 127" width="2.984" height="0.817" transform="translate(0 2.658) rotate(-62.964)" fill="#f99b9b"/>
        </g>
      </g>
      <g id="组_422" data-name="组 422" transform="translate(46.83 59.249)">
        <g id="组_421" data-name="组 421" transform="translate(0 0)">
          <rect id="矩形_128" data-name="矩形 128" width="0.817" height="1.435" transform="translate(0 0.7) rotate(-58.936)" fill="#f99b9b"/>
        </g>
      </g>
      <g id="组_424" data-name="组 424" transform="translate(43.154 50.336)">
        <g id="组_423" data-name="组 423">
          <path id="路径_995" data-name="路径 995" d="M214.39,139.1a2.362,2.362,0,0,1,.993-2.926,15.992,15.992,0,0,1,2.752-1.719l.337.745a15.4,15.4,0,0,0-2.6,1.626c-1.2.9-.807,1.8-.759,1.9Z" transform="translate(-214.204 -134.455)" fill="#f99b9b"/>
        </g>
      </g>
      <g id="组_426" data-name="组 426" transform="translate(44.055 42.466)">
        <g id="组_425" data-name="组 425">
          <path id="路径_996" data-name="路径 996" d="M215.836,128.45a1.925,1.925,0,0,0,.078,1.03c-.155.258-.322.516-.5.76a2.661,2.661,0,0,1-.308-2.254.527.527,0,0,1,.36-.373c.245-.078.657.052,1.262.373a7.769,7.769,0,0,1-.374.735A3.333,3.333,0,0,0,215.836,128.45Z" transform="translate(-214.989 -127.591)" fill="#f99b9b"/>
        </g>
      </g>
    </g>
  </g>
</svg>
