<svg xmlns="http://www.w3.org/2000/svg" width="100" height="101.078" viewBox="0 0 100 101.078">
  <g id="頭痛" transform="translate(-269.901 -349.229)">
    <circle id="椭圆_46" data-name="椭圆 46" cx="50" cy="50" r="50" transform="translate(269.901 350.307)" fill="#f4f4f4"/>
    <path id="路径_935" data-name="路径 935" d="M300.966,401.368l6.041-.808a19.173,19.173,0,0,0-8.909,10.709,18.45,18.45,0,0,0-.373,9.549,32.512,32.512,0,0,0-3.663.924v.008q-2.774.967-5.644,2.046-3.2,1.2-6.212,2.438a37.533,37.533,0,0,1-8.671-15.569c5.883-2.309,10.12-4.019,13.077-5.225a58.578,58.578,0,0,1,8.894-3.03A52.646,52.646,0,0,1,300.966,401.368Z" transform="translate(0.533 7.525)" fill="#f27468"/>
    <path id="路径_936" data-name="路径 936" d="M338.2,438.016a50.086,50.086,0,0,1-46.079-1.62A101.64,101.64,0,0,1,294.51,402.1a81.914,81.914,0,0,1,11.176-1.742c1.907-.164,4.292-.3,8.135-.294a172.492,172.492,0,0,1,18.745,1.088,64.308,64.308,0,0,1,5.636,36.86Z" transform="translate(3.183 7.453)" fill="#f27468"/>
    <path id="路径_937" data-name="路径 937" d="M321.117,399.969c8.39-.15,12.262,2.668,13.918,4.239,4.021,3.812,5.262,11.3,7.744,26.283.132.8.235,1.448.3,1.856a53.516,53.516,0,0,1-8.557,5.355c-1.532.767-3.014,1.417-4.425,1.97Q325.607,419.82,321.117,399.969Z" transform="translate(7.509 7.438)" fill="#f27468"/>
    <path id="路径_938" data-name="路径 938" d="M318.176,356.29c-.744-.119-10.229-1.483-16.472,5.355-5.375,5.886-6.031,15.312-1.236,22.788-.218.539-2.689,6.974,1.236,12.766a13.841,13.841,0,0,0,8.937,5.676,22.779,22.779,0,0,0,3.76.328,23.511,23.511,0,0,0,9.542-2.024c2.925-1.7,4.051-3.541,4.529-4.942,1.264-3.7.471-11.818.471-11.818s.844-2.065,1.18-2.638a17.006,17.006,0,0,0,2.33-11.213C331.362,363.829,325.737,358.2,318.176,356.29Z" transform="translate(4.008 1.008)" fill="#242537"/>
    <path id="路径_939" data-name="路径 939" d="M304.581,365.4c-5.71,8.966-6.907,24.443,1.87,32.107a18.05,18.05,0,0,0,8.006,3.949,17.162,17.162,0,0,0,7.627-3.56c8.244-6.908,8.356-21.807,2.058-30.643-.5-.707-6.547-8.973-12.972-7.618C307.868,360.334,305.947,363.259,304.581,365.4Z" transform="translate(4.425 1.504)" fill="#ffbdbd"/>
    <path id="路径_940" data-name="路径 940" d="M307.761,379.139a1.378,1.378,0,1,1-1.4-1.651A1.553,1.553,0,0,1,307.761,379.139Z" transform="translate(5.158 4.143)" fill="#242537"/>
    <path id="路径_941" data-name="路径 941" d="M320.141,379.045a1.378,1.378,0,1,1-1.4-1.651A1.553,1.553,0,0,1,320.141,379.045Z" transform="translate(6.973 4.129)" fill="#242537"/>
    <path id="路径_942" data-name="路径 942" d="M315.532,375.628c-.016-.6,2.345-1.488,4.553-1.119,1.346.226,2.557.907,2.494,1.151-.055.216-1.035-.158-2.729.02-1.932.2-3.008.937-3.992.313C315.707,375.9,315.537,375.786,315.532,375.628Z" transform="translate(6.69 3.694)" fill="#242537"/>
    <path id="路径_943" data-name="路径 943" d="M309.9,375.478c0-.6-2.392-1.414-4.586-.976-1.338.268-2.527.987-2.456,1.229.062.214,1.03-.19,2.728-.065,1.938.141,3.035.842,4,.187C309.73,375.754,309.9,375.637,309.9,375.478Z" transform="translate(4.831 3.687)" fill="#242537"/>
    <path id="路径_944" data-name="路径 944" d="M299.185,379.062c2.9,1.731,9.666-3.91,11.264-5.243a30.529,30.529,0,0,0,4.186-4.256,47.1,47.1,0,0,0,5.355,4.943c3.108,2.451,8.4,6.694,10.723,5.193.751-.485.976-1.6,1.425-3.82a19.771,19.771,0,0,0,.274-5.354c-.561-4.726-6.719-13.607-16.414-14.109a17.525,17.525,0,0,0-15,7.234C297.093,369.173,296.444,377.426,299.185,379.062Z" transform="translate(4.048 1.05)" fill="#242537"/>
    <path id="路径_945" data-name="路径 945" d="M320.038,362.524c2.306-2.167,3.331-5.9,2-8.639-2.6-5.336-13.9-6.32-16.442-1.727-1.6,2.894-.022,8.539,4.279,11.116A8.521,8.521,0,0,0,320.038,362.524Z" transform="translate(5.143 0)" fill="#242537"/>
    <path id="路径_946" data-name="路径 946" d="M323.884,379.082c.682-1.135,2.165-2.716,3.105-2.356,1.4.539,1.8,5.462-.634,7.573-.11.1-1.512,1.287-2.471.823C322.634,384.517,322.554,381.295,323.884,379.082Z" transform="translate(7.772 4.024)" fill="#ffbdbd"/>
    <path id="路径_947" data-name="路径 947" d="M298.784,383.133c.682,1.136,2.164,2.718,3.105,2.356,1.4-.538,1.8-5.462-.634-7.572-.11-.1-1.513-1.288-2.471-.824C297.533,377.7,297.453,380.92,298.784,383.133Z" transform="translate(4.093 4.069)" fill="#ffbdbd"/>
    <g id="组_366" data-name="组 366" transform="translate(316.426 385.691)">
      <path id="路径_948" data-name="路径 948" d="M312.323,387.411a3.118,3.118,0,0,1-1.152-.225c-1.058-.417-.906-2.489.456-6.157l1.137.422c-.745,2.008-1.223,4.117-1.062,4.64a1.7,1.7,0,0,0,1.237-.008l.56,1.077A2.713,2.713,0,0,1,312.323,387.411Z" transform="translate(-310.477 -381.029)" fill="#f99b9b"/>
    </g>
    <path id="路径_949" data-name="路径 949" d="M303.886,401.567a10.36,10.36,0,0,0,20.295-.408,2.742,2.742,0,0,1-1.75-.579,3.263,3.263,0,0,1-.936-2.34,30.287,30.287,0,0,1,.149-6.4l-14.824.308C308.086,396.684,307.665,400.663,303.886,401.567Z" transform="translate(4.982 6.247)" fill="#ffbdbd"/>
    <g id="组_367" data-name="组 367" transform="translate(311.907 398.991)">
      <path id="路径_950" data-name="路径 950" d="M313.911,397.312h-.01a10.977,10.977,0,0,1-7.365-3.329l.891-.822a9.911,9.911,0,0,0,6.484,2.939h0c2.367,0,4.647-1.168,6.781-3.472l.89.824C319.209,396.014,316.628,397.312,313.911,397.312Z" transform="translate(-306.536 -392.628)" fill="#f99b9b"/>
    </g>
    <path id="路径_951" data-name="路径 951" d="M293.662,386.021c-.328-2.349-.7-4.267-1-5.637-.5-2.306-.985-3.981-.068-4.551a1.389,1.389,0,0,1,1.191-.131c.873.386.368,1.924,1.636,3.245a3.876,3.876,0,0,0,.619.519,26.092,26.092,0,0,1,.389-5.96c.5-2.682,1.765-4.771,2.279-4.964a1.023,1.023,0,0,1,.869.047c.36.247.276.822.206,1.261a42.828,42.828,0,0,1-.915,4.484c-.44,1.555-.425,1.564-.433,1.563-.272-.038,1.432-6.587,2.331-8.034.423-.679.839-.754.959-.766a1,1,0,0,1,.738.22c.306.276.237.707.14,1.322-.053.339-.4,1.561-.529,2.027-.072.256-.148.515-.227.775a38.61,38.61,0,0,1-1.754,4.647l2.628-6.962a4.212,4.212,0,0,1,.795-1.217.983.983,0,0,1,.611-.27,1.037,1.037,0,0,1,.639.321c.942.916-2.33,8.689-2.461,8.641-.07-.025.272-.58,1.27-3.743.261-.828.7-1.6,1.015-2.408.26-.667.451-1.227.829-1.228s.722.5.745.534c.327.509.077,1.937-.195,3.639-.226,1.414-.338,2.122-.789,4.137-1.14,5.092-.1,6.712-1.9,8.541a16.472,16.472,0,0,1-1.684,1.4,20.366,20.366,0,0,1-3.208,1.925Z" transform="translate(3.251 2.619)" fill="#ffbdbd"/>
    <path id="路径_952" data-name="路径 952" d="M303.115,386.331c-4.739,9.19-10.215,18.781-16.557,28.6q-3.5,5.423-7.042,10.465a50.119,50.119,0,0,1-5.843-10.083c-.638-1.476-1.169-2.9-1.614-4.265q5.622-6.985,11.49-14.063,6.271-7.561,12.492-14.827Q299.57,384.251,303.115,386.331Z" transform="translate(0.316 4.827)" fill="#f27468"/>
    <g id="组_368" data-name="组 368" transform="translate(281.347 410.993)">
      <rect id="矩形_120" data-name="矩形 120" width="19.126" height="1.213" transform="matrix(0.527, -0.85, 0.85, 0.527, 0, 16.251)" fill="#ff9c97"/>
    </g>
    <g id="组_369" data-name="组 369" transform="translate(305.234 381.828)">
      <path id="路径_953" data-name="路径 953" d="M301.165,385.893l-.449-1.126c3.041-1.211,2.613-6.95,2.608-7.008l1.209-.1C304.555,377.933,305.038,384.35,301.165,385.893Z" transform="translate(-300.716 -377.66)" fill="#f99b9b"/>
    </g>
    <g id="组_370" data-name="组 370" transform="translate(315.193 393.962)">
      <path id="路径_954" data-name="路径 954" d="M310.535,390.9l-1.133-.437a3.474,3.474,0,0,1,3.219-2.216h.008a3.447,3.447,0,0,1,3.171,2.123l-1.12.47a2.236,2.236,0,0,0-2.054-1.381h-.006A2.254,2.254,0,0,0,310.535,390.9Z" transform="translate(-309.402 -388.242)" fill="#f99b9b"/>
    </g>
    <g id="组_371" data-name="组 371" transform="translate(303.502 373.406)">
      <rect id="矩形_121" data-name="矩形 121" width="3.566" height="1.215" transform="translate(0 3.373) rotate(-71.055)" fill="#f99b9b"/>
    </g>
    <g id="组_372" data-name="组 372" transform="translate(301.69 373.054)">
      <rect id="矩形_122" data-name="矩形 122" width="3.197" height="1.215" transform="matrix(0.211, -0.977, 0.977, 0.211, 0, 3.125)" fill="#f99b9b"/>
    </g>
    <g id="组_373" data-name="组 373" transform="translate(305.776 373.833)">
      <rect id="矩形_123" data-name="矩形 123" width="3.67" height="1.214" transform="translate(0 3.452) rotate(-70.16)" fill="#f99b9b"/>
    </g>
    <g id="组_374" data-name="组 374" transform="translate(337.732 433.1)">
      <rect id="矩形_124" data-name="矩形 124" width="1.21" height="12.709" transform="translate(0 0.146) rotate(-6.913)" fill="#ff9c97"/>
    </g>
    <path id="路径_955" data-name="路径 955" d="M331.607,369.125l5.112-10.6-4.689-.161,1.511-8.682q-1.973,5.509-3.948,11.017l4.2-.044Z" transform="translate(8.751 0.066)" fill="#f27468"/>
    <path id="路径_956" data-name="路径 956" d="M336.786,370.517l5.907-3.97-2.4-1.517,3.443-4.068-5.428,4.542,2.206,1.261Z" transform="translate(9.806 1.72)" fill="#f27468"/>
  </g>
</svg>
