<svg xmlns="http://www.w3.org/2000/svg" xmlns:xlink="http://www.w3.org/1999/xlink" width="1920" height="711" viewBox="0 0 1920 711">
  <defs>
    <clipPath id="clip-bg-active">
      <rect width="1920" height="711"/>
    </clipPath>
  </defs>
  <g id="bg-active" clip-path="url(#clip-bg-active)">
    <g id="Group_188" data-name="Group 188" transform="translate(19.562 -4680.369)">
      <rect id="Rectangle_37" data-name="Rectangle 37" width="1920" height="711" transform="translate(0 4681)" fill="#ede0f6"/>
      <g id="bg有獎徵答" transform="translate(1067.033 4496.042)">
        <path id="Path_576" data-name="Path 576" d="M1118,1717.9h88.575S1143.554,1727.591,1118,1717.9Z" transform="translate(-447.909 -863.06)" fill="#e0caef"/>
        <path id="Path_577" data-name="Path 577" d="M1434.622,1783.789h212.472S1495.923,1795.375,1434.622,1783.789Z" transform="translate(-637.244 -902.459)" fill="#e0caef"/>
        <path id="Path_578" data-name="Path 578" d="M1166.709,1783.789H1039.456S1129.994,1795.375,1166.709,1783.789Z" transform="translate(-400.941 -902.459)" fill="#e0caef"/>
        <path id="Path_579" data-name="Path 579" d="M661.979,1709.448c-19.885-7.506-63.883-12.547-112.6-12.547-61.283,0-115.949,8.111-122.767,19.2-7.686,12.5,47.081,23.867,123.259,23.867,63.352,0,112.4-7.989,121.842-17.985l-105.151-8.344Z" transform="translate(-34.043 -850.501)" fill="#e0caef"/>
        <path id="Path_580" data-name="Path 580" d="M1624.241,1678.195c15.9-5.627,49.976-9.365,87.343-9.365,47.009,0,89.565,6.031,95.749,14.417,7.119,9.654-35.487,18.62-96.2,18.62-50.493,0-88.924-6.321-95.521-14.1l82.575-6.391Z" transform="translate(-745.472 -833.715)" fill="#e0caef"/>
        <path id="Path_581" data-name="Path 581" d="M1454.147,1619.217H1340.221S1421.278,1626.984,1454.147,1619.217Z" transform="translate(-580.794 -804.048)" fill="#e0caef"/>
        <path id="Path_582" data-name="Path 582" d="M1903.182,1619.371h-92.431S1876.514,1627.137,1903.182,1619.371Z" transform="translate(-862.163 -804.14)" fill="#e0caef"/>
        <path id="Path_583" data-name="Path 583" d="M1714.487,1619.371h-49.44S1700.223,1627.835,1714.487,1619.371Z" transform="translate(-775.034 -804.14)" fill="#e0caef"/>
        <path id="Path_584" data-name="Path 584" d="M908.456,1619.32H1014.97S939.187,1627.087,908.456,1619.32Z" transform="translate(-322.605 -804.109)" fill="#e0caef"/>
        <path id="Path_585" data-name="Path 585" d="M538.181,1619.32H644.695S568.912,1627.087,538.181,1619.32Z" transform="translate(-101.187 -804.109)" fill="#e0caef"/>
        <path id="Path_586" data-name="Path 586" d="M1377.086,1717.9h68.072S1396.726,1725.348,1377.086,1717.9Z" transform="translate(-602.838 -863.06)" fill="#e0caef"/>
        <path id="Path_587" data-name="Path 587" d="M1118,1844.289h138.515S1157.963,1853.978,1118,1844.289Z" transform="translate(-447.909 -938.637)" fill="#e0caef"/>
        <path id="Path_588" data-name="Path 588" d="M1523.164,1844.289h106.451S1553.877,1851.735,1523.164,1844.289Z" transform="translate(-690.19 -938.637)" fill="#e0caef"/>
        <path id="Path_589" data-name="Path 589" d="M817.681,1844.289H924.133S848.394,1851.735,817.681,1844.289Z" transform="translate(-268.323 -938.637)" fill="#e0caef"/>
        <path id="Path_590" data-name="Path 590" d="M368.967,1663.356H554.821S495.791,1673.431,368.967,1663.356Z" transform="translate(0 -830.442)" fill="#e0caef"/>
        <path id="Path_591" data-name="Path 591" d="M891.683,1674.05h302.533S1098.126,1686.448,891.683,1674.05Z" transform="translate(-312.575 -836.837)" fill="#e0caef"/>
        <g id="Group_155" data-name="Group 155" transform="translate(545.907 430.825)">
          <path id="Path_592" data-name="Path 592" d="M1147.663,1216.726c-15.463-9.79-39.925-8.251-39.925-8.251s19.738-6.311,30.116-39.734c5.91-19.036,14.928-41.236,14.928-41.236s-16.419,7.277-39.447,6.923c-21.412-.329-30.931,13.139-30.931,13.139-4.513-16.1-2.347-34.392-2.2-35.563-35.77,9.459-32.788,42.259-32.788,42.259a77.634,77.634,0,0,0-21.88-23.869,41.024,41.024,0,0,1-3.481,15.415c-3.481,7.46-4.724,17.156-4.724,17.156-14.918-26.853-27.848-42.766-27.848-42.766s-12.929,15.913-27.847,42.766c0,0-1.243-9.7-4.724-17.156a41.02,41.02,0,0,1-3.481-15.415,77.63,77.63,0,0,0-21.88,23.869s2.981-32.8-32.788-42.259c.146,1.171,2.311,19.46-2.2,35.563,0,0-9.519-13.468-30.931-13.139-23.028.354-39.447-6.923-39.447-6.923s9.018,22.2,14.929,41.236c10.378,33.424,30.116,39.734,30.116,39.734s-24.462-1.538-39.925,8.251c-12.889,8.16-22.2,7.258-22.2,7.258l.055.251c1.637,2.568,19.376,29.576,44.219,33.95,20.024,3.526,38.488.349,45.991-1.318a78.07,78.07,0,0,0-9.026,32.194s36.218,1.037,65.985-14.235c25.482-13.073,31.852-28.575,33.158-32.769,1.306,4.193,7.675,19.7,33.158,32.769,29.768,15.272,65.985,14.235,65.985,14.235a78.065,78.065,0,0,0-9.026-32.194c7.5,1.667,25.968,4.844,45.991,1.318,24.843-4.374,42.582-31.382,44.219-33.95l.054-.251S1160.552,1224.886,1147.663,1216.726Zm-31.849-75.931c18.884.626,26.964-2.782,26.964-2.782q-.33.556-.649,1.124a83.16,83.16,0,0,1-19.466,23.424,265.819,265.819,0,0,0-28.386,27.846c6-20.084,27.174-40.829,27.174-40.829a134.815,134.815,0,0,0-34.734,2.505C1091,1148.208,1101.532,1140.321,1115.814,1140.795Zm-42.723-19.539c-.068,13.411,3.6,28.618,4.774,33.135q-2.621.815-4.949,1.7a72.115,72.115,0,0,1-3.29-22.83c-2.59,9.073-1.294,19.828-.544,24.378-1.9.823-3.623,1.657-5.181,2.478a73.241,73.241,0,0,1-.633-20.787c-3.127,7.984-3.191,17.657-2.941,22.809a49.9,49.9,0,0,0-6.477,4.618C1049.739,1127.055,1073.091,1121.256,1073.091,1121.256Zm16.332,41.066s-25.42,8.335-34.158,20.17a33.882,33.882,0,0,0,.31-6.411c18.139-25.025,56.611-21.775,56.611-21.775a46.189,46.189,0,0,0-10.709,10.338,46.855,46.855,0,0,1-14.5,12.5,130.214,130.214,0,0,0-29.4,22.513c-8.045,8.3-13.735,13.165-17.594,16.021.857-1.2,1.731-2.465,2.6-3.781,6.311-8.352,22.3-28.225,38.233-37.751,0,0-15.964,4.573-27.526,17.382C1053.29,1191.533,1067.528,1172.658,1089.423,1162.323Zm-63.768-12.013c2.509-7.347,2.443-10.953,2.443-10.953s26.539,24.209,20.245,49.247c-3.441,13.688-11.326,24.319-17.767,31.146,11.508-18.256,11.287-42.472,11.287-42.472a126.207,126.207,0,0,1-15.025,38.118c9.255-24.178,4.656-53.365,4.656-53.365a212.439,212.439,0,0,1-5.236,39.513c.889-10.38-1.007-20.981-5.185-31.371C1022.016,1164.885,1023.783,1155.795,1025.656,1150.309Zm-74.792-10.953s-.066,3.606,2.443,10.953c1.873,5.485,3.639,14.576,4.583,19.862-4.179,10.391-6.074,20.991-5.186,31.371a212.444,212.444,0,0,1-5.235-39.513s-4.6,29.187,4.656,53.365a126.2,126.2,0,0,1-15.025-38.118s-.221,24.217,11.287,42.472c-6.441-6.827-14.325-17.457-17.767-31.146C924.324,1163.566,950.864,1139.357,950.864,1139.357Zm-44.992-18.1s23.352,5.8,19.24,45.5a49.92,49.92,0,0,0-6.477-4.618c.25-5.152.186-14.825-2.941-22.809a73.236,73.236,0,0,1-.633,20.787c-1.558-.821-3.282-1.655-5.181-2.478.751-4.55,2.046-15.3-.544-24.378a72.117,72.117,0,0,1-3.29,22.83q-2.332-.876-4.948-1.7C902.271,1149.874,905.94,1134.667,905.872,1121.256Zm17.516,54.825a33.881,33.881,0,0,0,.309,6.411c-8.737-11.834-34.157-20.17-34.157-20.17,21.9,10.336,36.134,29.21,36.134,29.21-11.563-12.81-27.527-17.382-27.527-17.382,15.936,9.526,31.922,29.4,38.233,37.751.874,1.315,1.747,2.581,2.6,3.781-3.859-2.856-9.549-7.726-17.594-16.021a130.222,130.222,0,0,0-29.4-22.513,46.861,46.861,0,0,1-14.5-12.5,46.182,46.182,0,0,0-10.709-10.338S905.247,1151.057,923.387,1176.082ZM856.3,1162.56a83.154,83.154,0,0,1-19.466-23.424q-.32-.567-.65-1.124s8.08,3.408,26.964,2.782c14.282-.474,24.811,7.414,29.1,11.288a134.818,134.818,0,0,0-34.734-2.505s21.173,20.744,27.173,40.829A265.843,265.843,0,0,0,856.3,1162.56Zm-23.331,74.091c-5.4,0-12.379-8.493-12.379-8.493a100.051,100.051,0,0,1,30.985-10.629c11.691-1.871,22.86-.945,34.894,2.1a78.013,78.013,0,0,0-30.8,5.541,105.751,105.751,0,0,1,48.971.275l.084.032c-15.958-1.72-35.741,3.425-35.741,3.425,23.659-3,41.094-.363,49.953,1.677,2.673.877,4.8,1.513,6.487,1.974a56.362,56.362,0,0,0-9.537,5.45C892.738,1227.338,847.88,1236.657,832.97,1236.651Zm94.455,28.572a76.153,76.153,0,0,1-31.353,16.673s6.038-25.7,26.655-40.592c14.392-10.4,32.3-10.534,41.81-9.669a76.053,76.053,0,0,0-46.506,25.037s25.24-17.363,54.565-21.478l.006,0c-.287.126-17.281,7.58-35.134,15.2a406.29,406.29,0,0,0,42.079-11.41C965.8,1249.777,943.966,1250.74,927.425,1265.223ZM992.77,1227.1l-3.289-73.353-3.289,73.353a209.227,209.227,0,0,1-5.912-55.739c-4.767,21.62-1.343,46.264.821,57.862a132.3,132.3,0,0,1-13.841-38.44c-.892,14.505,3.824,29.184,8.2,39.386-12.106-7.226-19.245-23.68-16.194-42.373,4.117-25.223,30.215-57.454,30.215-57.454s26.1,32.231,30.215,57.454c3.051,18.693-4.087,35.146-16.194,42.373,4.377-10.2,9.093-24.881,8.2-39.386a132.291,132.291,0,0,1-13.841,38.44c2.163-11.6,5.588-36.242.821-57.862A209.206,209.206,0,0,1,992.77,1227.1Zm90.12,54.8a76.153,76.153,0,0,1-31.353-16.673c-16.541-14.483-38.371-15.446-52.123-26.232a406.288,406.288,0,0,0,42.079,11.41c-17.853-7.623-34.847-15.078-35.134-15.2l.006,0c29.325,4.115,54.565,21.478,54.565,21.478a76.053,76.053,0,0,0-46.505-25.037c9.509-.865,27.418-.728,41.81,9.669C1076.852,1256.2,1082.891,1281.9,1082.891,1281.9Zm63.1-45.245c-14.911.006-59.768-9.313-82.915,1.354a56.381,56.381,0,0,0-9.537-5.45c1.681-.461,3.813-1.1,6.487-1.974,8.86-2.04,26.294-4.676,49.953-1.677,0,0-19.783-5.145-35.741-3.425l.085-.032a105.748,105.748,0,0,1,48.971-.275,78.012,78.012,0,0,0-30.8-5.541c12.033-3.047,23.2-3.974,34.893-2.1a100.051,100.051,0,0,1,30.985,10.629S1151.39,1236.649,1145.993,1236.651Z" transform="translate(-809.099 -931.568)" fill="#e0caef"/>
          <path id="Path_593" data-name="Path 593" d="M1217.781,843.2c1.852-.686,1.006-20.338,1.013-22.187s4.4-1.832,4.869-3.679-4.692-40.472-4.692-40.472c4.651-6.916-3.145-22.9-3.145-22.9,2.1-4.846-8.261-15.059-8.261-15.059,1.4-3.924-8.519-8.587-14.975-12.542-8.065-6.505-8.111-12.052-8.111-12.052,2.884-2.037,6.872-24.708-1.617-34.559-2.966-3.443-5.984-5.56-9.554-6.389-1.744-5.631-7.4-12.247-16.6-9.568-10.373,3.021-10.358,11.244-9.855,14.7-5.138,3.245-8.452,7.706-9,11.2a11.267,11.267,0,0,0,1.546,8.2s.111.518.7,3.577a18.889,18.889,0,0,0,2.921,7.029c.831,1.042.9,1.976.2,3.816s-1.918,7.52-1.568,8.528,3.767-.126,3.767-.126a4.982,4.982,0,0,1,.533,2.189,1.941,1.941,0,0,0,1.377,2.009c.638.135.253,1.5.854,1.782s2.142-.118,2.446,1.307.612,3.188,2.9,3.444,8.615-1.837,9.714-1.552,3.352,4.146,2.866,6.138-.356,3.038-3.558,7.135-5.282,10.561-5.282,10.561c-6.188,5.832-5.275,8.712-5.275,8.712-5.378,8.814-3.235,12.419-3.235,12.419-4.643,4.913-2.607,9.515-2.607,9.515-2.476,2.53-.651,8.554-.651,8.554-1.549,2.151,1.407,7.711,1.407,7.711-1.171,6.963-1.238,23.564-12.149,27.671-4.441,1.671-8.6,3.455-12.332,4.95-5.439,2.178-9.944,3.723-12.864,3.25-4.924-.8-8.7,4.517-10.981,7.03l0,.005c-9.609,1.186-19.191,5.312-21.754,12.331,5.129,4.859,13.984,16.329,12.917,36.96a87.685,87.685,0,0,1,22.377-26.853s5.47,26.356,9.448,34.809c0,0,9.448-19.891,27.847-42.268,18.4,22.377,27.848,42.268,27.848,42.268,3.978-8.454,9.448-34.809,9.448-34.809a87.692,87.692,0,0,1,22.377,26.853c-.813-15.72,4.134-26.12,8.8-32.331-1.082-7.412-2.673-13.148-2.668-14.31C1215.24,842.726,1215.929,843.885,1217.781,843.2Z" transform="translate(-969.195 -663.177)" fill="#e0caef"/>
          <path id="Path_594" data-name="Path 594" d="M1236.927,1438.218l-13.88,11.013c0,11.258,5.47,12.882,5.47,25.631v59.827h16.82v-59.827c0-12.749,5.47-14.373,5.47-25.631Z" transform="translate(-1056.633 -1126.639)" fill="#e0caef"/>
        </g>
        <path id="Path_595" data-name="Path 595" d="M1613.06,1552.663c1.562,2.343,17.714-1.222,17.714-1.222s4.276.916,5.5.611,3.97-3.665,3.97-4.887,3.665-4.581,5.8-3.97a15.584,15.584,0,0,1,7.635,5.8c2.749,4.276,1.833,10.078,1.833,10.078s2.443-4.581,5.8-3.054a35.146,35.146,0,0,1,6.414,3.97s-.611-1.832-4.886-5.8-3.054-3.359-5.5-8.246-6.719-13.743-22.906-12.827S1611.838,1550.831,1613.06,1552.663Z" transform="translate(-743.859 -752.522)" fill="#e0caef"/>
        <path id="Path_596" data-name="Path 596" d="M1762.3,1587.01c1.419-2.775,4.193-1.356,5.836-1.752s1.12-3.092-1.527-3.457C1762.477,1581.232,1762.3,1587.01,1762.3,1587.01Z" transform="translate(-833.191 -781.65)" fill="#e0caef"/>
        <path id="Path_597" data-name="Path 597" d="M1692.013,1591.94c-2.531-1.818-4.349.713-5.991,1.114s-2.411-2.236-.225-3.773C1689.213,1586.882,1692.013,1591.94,1692.013,1591.94Z" transform="translate(-786.637 -785.76)" fill="#e0caef"/>
        <path id="Path_598" data-name="Path 598" d="M1752.323,1568.986c.818-2.839,3.184-1.939,4.448-2.57s.546-3.092-1.6-3.019C1751.817,1563.51,1752.323,1568.986,1752.323,1568.986Z" transform="translate(-827.208 -770.667)" fill="#e0caef"/>
        <path id="Path_599" data-name="Path 599" d="M842.37,1515.206c-8.127-10.79-12.933-17.827-16.684-24.161-3.751,6.333-8.557,13.371-16.684,24.161-6.792,9.018-4.4,23.6,8.121,28.153a9.022,9.022,0,0,1,5.872,9.473c-.989,8.943-2.908,17.863-.595,26.882h4.692c-2.46-9.591-.134-19.07.771-28.583a9.038,9.038,0,0,1,6.08-7.662C846.735,1539.049,849.217,1524.3,842.37,1515.206Z" transform="translate(-260.908 -727.403)" fill="#e0caef"/>
        <g id="Group_156" data-name="Group 156" transform="translate(548.771 274.618)">
          <path id="Path_600" data-name="Path 600" d="M1294.242,602.48a36.224,36.224,0,0,1-.626-4.769c-.128-1.59-.176-3.18-.179-4.77s.049-3.18.177-4.769a35.83,35.83,0,0,1,.629-4.77,35.771,35.771,0,0,1,.629,4.77c.128,1.59.176,3.18.177,4.769s-.051,3.18-.179,4.77A36.184,36.184,0,0,1,1294.242,602.48Z" transform="translate(-1101.588 -459.266)" fill="#e0caef"/>
          <path id="Path_601" data-name="Path 601" d="M1294.242,538.291a19.9,19.9,0,0,1-.631-3.426,33.423,33.423,0,0,1-.174-3.426,32.912,32.912,0,0,1,.172-3.426,19.613,19.613,0,0,1,.634-3.426,19.638,19.638,0,0,1,.634,3.426,32.946,32.946,0,0,1,.172,3.426,33.6,33.6,0,0,1-.174,3.426A19.861,19.861,0,0,1,1294.242,538.291Z" transform="translate(-1101.588 -424.095)" fill="#e0caef"/>
          <path id="Path_602" data-name="Path 602" d="M1294.242,480.8a13.142,13.142,0,0,1-.631-2.754,21.654,21.654,0,0,1-.174-2.754,21.326,21.326,0,0,1,.172-2.754,12.958,12.958,0,0,1,.634-2.754,12.952,12.952,0,0,1,.634,2.754,21.348,21.348,0,0,1,.172,2.754,21.767,21.767,0,0,1-.174,2.754A13.1,13.1,0,0,1,1294.242,480.8Z" transform="translate(-1101.588 -391.322)" fill="#e0caef"/>
          <path id="Path_603" data-name="Path 603" d="M1294.242,425.179a8.876,8.876,0,0,1-.631-2.217,14.085,14.085,0,0,1-.174-2.217,13.866,13.866,0,0,1,.172-2.217,8.75,8.75,0,0,1,.634-2.217,8.747,8.747,0,0,1,.634,2.217,13.881,13.881,0,0,1,.172,2.217,14.158,14.158,0,0,1-.174,2.217A8.852,8.852,0,0,1,1294.242,425.179Z" transform="translate(-1101.588 -359.349)" fill="#e0caef"/>
          <path id="Path_604" data-name="Path 604" d="M1294.242,374.383a8.877,8.877,0,0,1-.631-2.217,14.085,14.085,0,0,1-.174-2.217,13.866,13.866,0,0,1,.172-2.217,8.751,8.751,0,0,1,.634-2.217,8.747,8.747,0,0,1,.634,2.217,13.88,13.88,0,0,1,.172,2.217,14.158,14.158,0,0,1-.174,2.217A8.853,8.853,0,0,1,1294.242,374.383Z" transform="translate(-1101.588 -328.973)" fill="#e0caef"/>
          <path id="Path_605" data-name="Path 605" d="M1294.242,323.587a8.876,8.876,0,0,1-.631-2.217,14.085,14.085,0,0,1-.174-2.217,13.866,13.866,0,0,1,.172-2.217,8.751,8.751,0,0,1,.634-2.217,8.748,8.748,0,0,1,.634,2.217,13.88,13.88,0,0,1,.172,2.217,14.158,14.158,0,0,1-.174,2.217A8.852,8.852,0,0,1,1294.242,323.587Z" transform="translate(-1101.588 -298.598)" fill="#e0caef"/>
          <path id="Path_606" data-name="Path 606" d="M1294.242,279.186a3.134,3.134,0,0,1-.631-1.142,3.85,3.85,0,0,1-.174-1.142,3.788,3.788,0,0,1,.172-1.142.747.747,0,1,1,1.268,0,3.792,3.792,0,0,1,.172,1.142,3.87,3.87,0,0,1-.174,1.142A3.127,3.127,0,0,1,1294.242,279.186Z" transform="translate(-1101.588 -274.618)" fill="#e0caef"/>
          <path id="Path_607" data-name="Path 607" d="M1243.862,611.34a36.245,36.245,0,0,1-2.22-4.267c-.664-1.45-1.253-2.927-1.8-4.42s-1.042-3-1.465-4.542a35.857,35.857,0,0,1-1.04-4.7,35.809,35.809,0,0,1,2.222,4.267c.664,1.45,1.253,2.927,1.8,4.421s1.04,3.005,1.463,4.543A36.2,36.2,0,0,1,1243.862,611.34Z" transform="translate(-1068.042 -465.252)" fill="#e0caef"/>
          <path id="Path_608" data-name="Path 608" d="M1221.908,551.021a19.874,19.874,0,0,1-1.765-3,33.481,33.481,0,0,1-1.335-3.159,32.929,32.929,0,0,1-1.01-3.278,19.63,19.63,0,0,1-.576-3.436,19.64,19.64,0,0,1,1.767,3,32.859,32.859,0,0,1,1.333,3.161,33.368,33.368,0,0,1,1.008,3.279A19.9,19.9,0,0,1,1221.908,551.021Z" transform="translate(-1056.013 -432.202)" fill="#e0caef"/>
          <path id="Path_609" data-name="Path 609" d="M1202.244,496.995a13.134,13.134,0,0,1-1.535-2.372,21.633,21.633,0,0,1-1.105-2.528,21.256,21.256,0,0,1-.781-2.647,12.965,12.965,0,0,1-.346-2.8,12.973,12.973,0,0,1,1.538,2.371,21.368,21.368,0,0,1,1.1,2.529,21.721,21.721,0,0,1,.778,2.647A13.121,13.121,0,0,1,1202.244,496.995Z" transform="translate(-1044.804 -401.405)" fill="#e0caef"/>
          <path id="Path_610" data-name="Path 610" d="M1183.19,444.73a8.848,8.848,0,0,1-1.352-1.867,14.057,14.057,0,0,1-.922-2.023,13.807,13.807,0,0,1-.6-2.142,8.749,8.749,0,0,1-.163-2.3,8.76,8.76,0,0,1,1.354,1.867,13.9,13.9,0,0,1,.92,2.024,14.121,14.121,0,0,1,.594,2.142A8.857,8.857,0,0,1,1183.19,444.73Z" transform="translate(-1033.837 -371.36)" fill="#e0caef"/>
          <path id="Path_611" data-name="Path 611" d="M1165.818,397a8.867,8.867,0,0,1-1.352-1.867,14.125,14.125,0,0,1-.922-2.024,13.874,13.874,0,0,1-.6-2.142,8.756,8.756,0,0,1-.163-2.3,8.77,8.77,0,0,1,1.354,1.866,13.916,13.916,0,0,1,.92,2.024,14.129,14.129,0,0,1,.594,2.143A8.855,8.855,0,0,1,1165.818,397Z" transform="translate(-1023.448 -342.817)" fill="#e0caef"/>
          <path id="Path_612" data-name="Path 612" d="M1148.444,349.265a8.869,8.869,0,0,1-1.352-1.867,14.136,14.136,0,0,1-.922-2.023,13.916,13.916,0,0,1-.6-2.142,8.76,8.76,0,0,1-.162-2.3,8.751,8.751,0,0,1,1.354,1.867,13.814,13.814,0,0,1,.92,2.024,14.08,14.08,0,0,1,.594,2.142A8.836,8.836,0,0,1,1148.444,349.265Z" transform="translate(-1013.06 -314.273)" fill="#e0caef"/>
          <path id="Path_613" data-name="Path 613" d="M1132.979,307.542a3.14,3.14,0,0,1-.984-.857,3.858,3.858,0,0,1-.554-1.013,3.788,3.788,0,0,1-.229-1.132.747.747,0,1,1,1.191-.433,3.781,3.781,0,0,1,.552,1.014,3.84,3.84,0,0,1,.227,1.132A3.133,3.133,0,0,1,1132.979,307.542Z" transform="translate(-1004.579 -291.739)" fill="#e0caef"/>
          <path id="Path_614" data-name="Path 614" d="M1198.424,637.305a36.235,36.235,0,0,1-3.546-3.251c-1.12-1.135-2.179-2.322-3.2-3.538s-2.006-2.467-2.93-3.767a35.823,35.823,0,0,1-2.584-4.058,35.789,35.789,0,0,1,3.547,3.25c1.12,1.136,2.179,2.322,3.2,3.54s2.005,2.468,2.928,3.768A36.183,36.183,0,0,1,1198.424,637.305Z" transform="translate(-1037.439 -482.76)" fill="#e0caef"/>
          <path id="Path_615" data-name="Path 615" d="M1157.163,588.133a19.892,19.892,0,0,1-2.686-2.218,33.568,33.568,0,0,1-2.336-2.512,32.821,32.821,0,0,1-2.07-2.735,19.6,19.6,0,0,1-1.717-3.032,19.628,19.628,0,0,1,2.688,2.217,32.952,32.952,0,0,1,2.334,2.514,33.38,33.38,0,0,1,2.068,2.736A19.9,19.9,0,0,1,1157.163,588.133Z" transform="translate(-1014.832 -455.817)" fill="#e0caef"/>
          <path id="Path_616" data-name="Path 616" d="M1120.207,544.091a13.124,13.124,0,0,1-2.254-1.7,21.627,21.627,0,0,1-1.9-2,21.27,21.27,0,0,1-1.639-2.22,12.941,12.941,0,0,1-1.285-2.517,12.931,12.931,0,0,1,2.256,1.7,21.355,21.355,0,0,1,1.9,2,21.655,21.655,0,0,1,1.637,2.222A13.114,13.114,0,0,1,1120.207,544.091Z" transform="translate(-993.766 -430.712)" fill="#e0caef"/>
          <path id="Path_617" data-name="Path 617" d="M1084.456,501.484a8.874,8.874,0,0,1-1.909-1.292,14.087,14.087,0,0,1-1.558-1.586,13.879,13.879,0,0,1-1.293-1.809,8.756,8.756,0,0,1-.939-2.105,8.754,8.754,0,0,1,1.91,1.29,13.872,13.872,0,0,1,1.557,1.588,14.111,14.111,0,0,1,1.291,1.81A8.855,8.855,0,0,1,1084.456,501.484Z" transform="translate(-973.213 -406.219)" fill="#e0caef"/>
          <path id="Path_618" data-name="Path 618" d="M1051.805,462.572a8.868,8.868,0,0,1-1.909-1.292,14.073,14.073,0,0,1-1.558-1.586,13.9,13.9,0,0,1-1.293-1.809,8.763,8.763,0,0,1-.939-2.105,8.748,8.748,0,0,1,1.91,1.29,13.9,13.9,0,0,1,1.557,1.588,14.108,14.108,0,0,1,1.291,1.81A8.842,8.842,0,0,1,1051.805,462.572Z" transform="translate(-953.689 -382.95)" fill="#e0caef"/>
          <path id="Path_619" data-name="Path 619" d="M1019.154,423.66a8.873,8.873,0,0,1-1.909-1.292,14.12,14.12,0,0,1-1.558-1.586,13.813,13.813,0,0,1-1.293-1.809,8.742,8.742,0,0,1-.939-2.105,8.749,8.749,0,0,1,1.91,1.291,13.847,13.847,0,0,1,1.557,1.588,14.126,14.126,0,0,1,1.292,1.81A8.859,8.859,0,0,1,1019.154,423.66Z" transform="translate(-934.164 -359.681)" fill="#e0caef"/>
          <path id="Path_620" data-name="Path 620" d="M990.613,389.647a3.128,3.128,0,0,1-1.218-.469,3.86,3.86,0,0,1-.868-.763,3.787,3.787,0,0,1-.6-.985.747.747,0,1,1,.971-.815,3.774,3.774,0,0,1,.866.764,3.845,3.845,0,0,1,.6.987A3.131,3.131,0,0,1,990.613,389.647Z" transform="translate(-918.748 -341.311)" fill="#e0caef"/>
          <path id="Path_621" data-name="Path 621" d="M1164.607,677.246a36.2,36.2,0,0,1-4.444-1.842c-1.441-.684-2.841-1.437-4.22-2.229s-2.729-1.633-4.042-2.538a35.88,35.88,0,0,1-3.816-2.93,35.87,35.87,0,0,1,4.445,1.84c1.44.684,2.841,1.437,4.219,2.232s2.728,1.634,4.041,2.54A36.2,36.2,0,0,1,1164.607,677.246Z" transform="translate(-1014.67 -509.679)" fill="#e0caef"/>
          <path id="Path_622" data-name="Path 622" d="M1109.016,645.151a19.9,19.9,0,0,1-3.283-1.166,33.5,33.5,0,0,1-3.054-1.562,32.942,32.942,0,0,1-2.881-1.862,19.614,19.614,0,0,1-2.65-2.262,19.653,19.653,0,0,1,3.284,1.164,32.9,32.9,0,0,1,3.053,1.564,33.409,33.409,0,0,1,2.88,1.864A19.872,19.872,0,0,1,1109.016,645.151Z" transform="translate(-984.212 -492.093)" fill="#e0caef"/>
          <path id="Path_623" data-name="Path 623" d="M1059.226,616.4a13.136,13.136,0,0,1-2.7-.83,21.687,21.687,0,0,1-2.472-1.226,21.357,21.357,0,0,1-2.3-1.526,12.98,12.98,0,0,1-2.068-1.926,12.972,12.972,0,0,1,2.7.828,21.294,21.294,0,0,1,2.471,1.228,21.775,21.775,0,0,1,2.3,1.528A13.119,13.119,0,0,1,1059.226,616.4Z" transform="translate(-955.829 -475.707)" fill="#e0caef"/>
          <path id="Path_624" data-name="Path 624" d="M1011.059,588.594a8.846,8.846,0,0,1-2.236-.561,14.105,14.105,0,0,1-2.007-.958,13.891,13.891,0,0,1-1.834-1.257,8.745,8.745,0,0,1-1.6-1.657,8.756,8.756,0,0,1,2.236.56,13.894,13.894,0,0,1,2.006.959,14.1,14.1,0,0,1,1.832,1.26A8.856,8.856,0,0,1,1011.059,588.594Z" transform="translate(-928.139 -459.72)" fill="#e0caef"/>
          <path id="Path_625" data-name="Path 625" d="M967.068,563.2a8.87,8.87,0,0,1-2.235-.562,14.1,14.1,0,0,1-2.007-.958,13.858,13.858,0,0,1-1.834-1.257,8.773,8.773,0,0,1-1.6-1.657,8.744,8.744,0,0,1,2.237.559,13.867,13.867,0,0,1,2.006.96,14.053,14.053,0,0,1,1.833,1.259A8.846,8.846,0,0,1,967.068,563.2Z" transform="translate(-901.833 -444.533)" fill="#e0caef"/>
          <path id="Path_626" data-name="Path 626" d="M923.078,537.8a8.865,8.865,0,0,1-2.236-.562,14.059,14.059,0,0,1-2.007-.958A13.879,13.879,0,0,1,917,535.022a8.749,8.749,0,0,1-1.6-1.657,8.754,8.754,0,0,1,2.236.56,13.9,13.9,0,0,1,2.006.96,14.1,14.1,0,0,1,1.832,1.259A8.844,8.844,0,0,1,923.078,537.8Z" transform="translate(-875.528 -429.344)" fill="#e0caef"/>
          <path id="Path_627" data-name="Path 627" d="M884.625,515.51a3.136,3.136,0,0,1-1.3-.024,3.855,3.855,0,0,1-1.076-.42,3.8,3.8,0,0,1-.9-.72.747.747,0,1,1,.634-1.1,3.793,3.793,0,0,1,1.075.422,3.866,3.866,0,0,1,.9.722A3.129,3.129,0,0,1,884.625,515.51Z" transform="translate(-854.76 -417.266)" fill="#e0caef"/>
          <path id="Path_628" data-name="Path 628" d="M1146.489,726.322a36.205,36.205,0,0,1-4.806-.211c-1.588-.149-3.162-.379-4.728-.652s-3.123-.6-4.666-1a35.845,35.845,0,0,1-4.588-1.448,35.875,35.875,0,0,1,4.806.209c1.588.15,3.162.379,4.728.654s3.122.6,4.666,1A36.172,36.172,0,0,1,1146.489,726.322Z" transform="translate(-1002.482 -542.74)" fill="#e0caef"/>
          <path id="Path_629" data-name="Path 629" d="M1083.274,715.06a19.92,19.92,0,0,1-3.484.027,33.451,33.451,0,0,1-3.4-.423,32.969,32.969,0,0,1-3.344-.764,19.666,19.666,0,0,1-3.264-1.219,19.565,19.565,0,0,1,3.484-.029,32.87,32.87,0,0,1,3.4.425,33.436,33.436,0,0,1,3.344.766A19.906,19.906,0,0,1,1083.274,715.06Z" transform="translate(-967.845 -536.517)" fill="#e0caef"/>
          <path id="Path_630" data-name="Path 630" d="M1026.655,704.971a13.125,13.125,0,0,1-2.822.144,21.731,21.731,0,0,1-2.743-.307,21.369,21.369,0,0,1-2.682-.648,12.961,12.961,0,0,1-2.6-1.1,12.957,12.957,0,0,1,2.823-.146,21.283,21.283,0,0,1,2.742.309,21.736,21.736,0,0,1,2.682.65A13.121,13.121,0,0,1,1026.655,704.971Z" transform="translate(-935.57 -530.721)" fill="#e0caef"/>
          <path id="Path_631" data-name="Path 631" d="M971.881,695.2a8.847,8.847,0,0,1-2.293.237,14.088,14.088,0,0,1-2.214-.213,13.907,13.907,0,0,1-2.153-.554,8.768,8.768,0,0,1-2.073-1.009,8.734,8.734,0,0,1,2.293-.239,13.8,13.8,0,0,1,2.213.215,14.105,14.105,0,0,1,2.153.556A8.848,8.848,0,0,1,971.881,695.2Z" transform="translate(-904.082 -525.054)" fill="#e0caef"/>
          <path id="Path_632" data-name="Path 632" d="M921.857,686.378a8.864,8.864,0,0,1-2.293.237,14.127,14.127,0,0,1-2.214-.214,13.847,13.847,0,0,1-2.153-.554,8.751,8.751,0,0,1-2.073-1.009,8.749,8.749,0,0,1,2.293-.239,13.879,13.879,0,0,1,2.213.216,14.122,14.122,0,0,1,2.153.556A8.872,8.872,0,0,1,921.857,686.378Z" transform="translate(-874.168 -519.779)" fill="#e0caef"/>
          <path id="Path_633" data-name="Path 633" d="M871.833,677.557a8.843,8.843,0,0,1-2.293.237,14.132,14.132,0,0,1-2.213-.213,13.9,13.9,0,0,1-2.153-.554,8.758,8.758,0,0,1-2.073-1.009,8.765,8.765,0,0,1,2.293-.239,13.879,13.879,0,0,1,2.213.215,14.124,14.124,0,0,1,2.153.557A8.864,8.864,0,0,1,871.833,677.557Z" transform="translate(-844.255 -514.505)" fill="#e0caef"/>
          <path id="Path_634" data-name="Path 634" d="M828.107,669.524a3.134,3.134,0,0,1-1.235.424,3.857,3.857,0,0,1-1.155-.027,3.778,3.778,0,0,1-1.095-.367.747.747,0,1,1,.22-1.249,3.789,3.789,0,0,1,1.155.029,3.856,3.856,0,0,1,1.094.37A3.134,3.134,0,0,1,828.107,669.524Z" transform="translate(-820.639 -510.018)" fill="#e0caef"/>
          <path id="Path_635" data-name="Path 635" d="M1146.257,773.729a36.188,36.188,0,0,1-4.588,1.445c-1.543.4-3.1.726-4.666,1.005s-3.14.5-4.728.654a35.776,35.776,0,0,1-4.806.209,35.822,35.822,0,0,1,4.588-1.448c1.543-.4,3.1-.726,4.666-1s3.14-.5,4.728-.652A36.269,36.269,0,0,1,1146.257,773.729Z" transform="translate(-1002.343 -573.07)" fill="#e0caef"/>
          <path id="Path_636" data-name="Path 636" d="M1083.042,786.15a19.862,19.862,0,0,1-3.264,1.217,33.412,33.412,0,0,1-3.344.766,32.856,32.856,0,0,1-3.4.426,19.651,19.651,0,0,1-3.484-.029,19.616,19.616,0,0,1,3.264-1.219,32.961,32.961,0,0,1,3.344-.764,33.533,33.533,0,0,1,3.4-.423A19.87,19.87,0,0,1,1083.042,786.15Z" transform="translate(-967.706 -580.451)" fill="#e0caef"/>
          <path id="Path_637" data-name="Path 637" d="M1026.423,796.722a13.109,13.109,0,0,1-2.6,1.1,21.657,21.657,0,0,1-2.682.65,21.366,21.366,0,0,1-2.742.309,12.962,12.962,0,0,1-2.822-.146,12.955,12.955,0,0,1,2.6-1.1,21.292,21.292,0,0,1,2.682-.648,21.652,21.652,0,0,1,2.743-.307A13.13,13.13,0,0,1,1026.423,796.722Z" transform="translate(-935.431 -586.732)" fill="#e0caef"/>
          <path id="Path_638" data-name="Path 638" d="M971.649,806.822a8.881,8.881,0,0,1-2.073,1.007,14.178,14.178,0,0,1-2.153.556,13.893,13.893,0,0,1-2.213.215,8.767,8.767,0,0,1-2.293-.239,8.731,8.731,0,0,1,2.073-1.009,13.848,13.848,0,0,1,2.153-.554,14.089,14.089,0,0,1,2.214-.213A8.859,8.859,0,0,1,971.649,806.822Z" transform="translate(-903.943 -592.725)" fill="#e0caef"/>
          <path id="Path_639" data-name="Path 639" d="M921.625,815.642a8.849,8.849,0,0,1-2.074,1.007,14.086,14.086,0,0,1-2.153.556,13.788,13.788,0,0,1-2.213.215,8.731,8.731,0,0,1-2.293-.239,8.766,8.766,0,0,1,2.073-1.009,13.9,13.9,0,0,1,2.153-.554,14.145,14.145,0,0,1,2.213-.213A8.859,8.859,0,0,1,921.625,815.642Z" transform="translate(-874.03 -597.999)" fill="#e0caef"/>
          <path id="Path_640" data-name="Path 640" d="M871.6,824.463a8.877,8.877,0,0,1-2.074,1.007,14.13,14.13,0,0,1-2.153.556,13.892,13.892,0,0,1-2.213.216,8.752,8.752,0,0,1-2.293-.239,8.754,8.754,0,0,1,2.073-1.009,13.844,13.844,0,0,1,2.153-.554,14.136,14.136,0,0,1,2.214-.213A8.866,8.866,0,0,1,871.6,824.463Z" transform="translate(-844.116 -603.274)" fill="#e0caef"/>
          <path id="Path_641" data-name="Path 641" d="M827.874,832.96a3.138,3.138,0,0,1-1.015.82,3.861,3.861,0,0,1-1.094.37,3.781,3.781,0,0,1-1.155.029.747.747,0,1,1-.22-1.248,3.78,3.78,0,0,1,1.095-.368,3.861,3.861,0,0,1,1.155-.027A3.135,3.135,0,0,1,827.874,832.96Z" transform="translate(-820.5 -608.225)" fill="#e0caef"/>
          <path id="Path_642" data-name="Path 642" d="M1163.938,813.745a36.253,36.253,0,0,1-3.817,2.927c-1.313.906-2.666,1.742-4.041,2.54s-2.778,1.547-4.219,2.231a35.785,35.785,0,0,1-4.445,1.84,35.843,35.843,0,0,1,3.816-2.93c1.313-.905,2.665-1.742,4.042-2.537s2.779-1.546,4.22-2.23A36.239,36.239,0,0,1,1163.938,813.745Z" transform="translate(-1014.271 -597.007)" fill="#e0caef"/>
          <path id="Path_643" data-name="Path 643" d="M1108.349,849.837a19.916,19.916,0,0,1-2.651,2.26,33.468,33.468,0,0,1-2.88,1.864,32.93,32.93,0,0,1-3.053,1.564,19.645,19.645,0,0,1-3.284,1.164,19.614,19.614,0,0,1,2.65-2.262,32.878,32.878,0,0,1,2.881-1.862,33.475,33.475,0,0,1,3.054-1.562A19.907,19.907,0,0,1,1108.349,849.837Z" transform="translate(-983.812 -618.589)" fill="#e0caef"/>
          <path id="Path_644" data-name="Path 644" d="M1058.558,880.582a13.123,13.123,0,0,1-2.069,1.924,21.646,21.646,0,0,1-2.3,1.528,21.248,21.248,0,0,1-2.471,1.228,12.961,12.961,0,0,1-2.7.828,12.972,12.972,0,0,1,2.068-1.926,21.421,21.421,0,0,1,2.3-1.526,21.793,21.793,0,0,1,2.472-1.226A13.136,13.136,0,0,1,1058.558,880.582Z" transform="translate(-955.429 -636.974)" fill="#e0caef"/>
          <path id="Path_645" data-name="Path 645" d="M1010.39,909.99a8.876,8.876,0,0,1-1.6,1.656,14.142,14.142,0,0,1-1.833,1.259,13.807,13.807,0,0,1-2.006.959,8.752,8.752,0,0,1-2.237.56,8.771,8.771,0,0,1,1.6-1.657,13.852,13.852,0,0,1,1.834-1.257,14.1,14.1,0,0,1,2.007-.958A8.847,8.847,0,0,1,1010.39,909.99Z" transform="translate(-927.739 -654.56)" fill="#e0caef"/>
          <path id="Path_646" data-name="Path 646" d="M966.4,935.388a8.876,8.876,0,0,1-1.6,1.656,14.122,14.122,0,0,1-1.832,1.259,13.863,13.863,0,0,1-2.006.959,8.764,8.764,0,0,1-2.237.56,8.757,8.757,0,0,1,1.6-1.658,13.881,13.881,0,0,1,1.834-1.257,14.1,14.1,0,0,1,2.007-.958A8.852,8.852,0,0,1,966.4,935.388Z" transform="translate(-901.434 -669.747)" fill="#e0caef"/>
          <path id="Path_647" data-name="Path 647" d="M922.409,960.786a8.871,8.871,0,0,1-1.6,1.655,14.1,14.1,0,0,1-1.833,1.26,13.9,13.9,0,0,1-2.006.959,8.756,8.756,0,0,1-2.237.56,8.766,8.766,0,0,1,1.6-1.658,13.866,13.866,0,0,1,1.834-1.257,14.1,14.1,0,0,1,2.007-.958A8.847,8.847,0,0,1,922.409,960.786Z" transform="translate(-875.128 -684.935)" fill="#e0caef"/>
          <path id="Path_648" data-name="Path 648" d="M883.957,986.1a3.14,3.14,0,0,1-.673,1.118,3.856,3.856,0,0,1-.9.722,3.786,3.786,0,0,1-1.075.422.747.747,0,1,1-.634-1.1,3.784,3.784,0,0,1,.9-.72,3.86,3.86,0,0,1,1.076-.42A3.127,3.127,0,0,1,883.957,986.1Z" transform="translate(-854.361 -700.036)" fill="#e0caef"/>
          <path id="Path_649" data-name="Path 649" d="M1197.4,846.435a36.173,36.173,0,0,1-2.586,4.056c-.923,1.3-1.909,2.549-2.928,3.769s-2.081,2.4-3.2,3.54a35.8,35.8,0,0,1-3.548,3.249,35.822,35.822,0,0,1,2.584-4.058c.924-1.3,1.909-2.549,2.93-3.767s2.083-2.4,3.2-3.538A36.163,36.163,0,0,1,1197.4,846.435Z" transform="translate(-1036.827 -616.555)" fill="#e0caef"/>
          <path id="Path_650" data-name="Path 650" d="M1156.139,901.73a19.867,19.867,0,0,1-1.718,3.03,33.485,33.485,0,0,1-2.068,2.737,32.977,32.977,0,0,1-2.334,2.514,19.627,19.627,0,0,1-2.687,2.217,19.609,19.609,0,0,1,1.716-3.032,32.985,32.985,0,0,1,2.07-2.735,33.543,33.543,0,0,1,2.336-2.513A19.919,19.919,0,0,1,1156.139,901.73Z" transform="translate(-1014.22 -649.62)" fill="#e0caef"/>
          <path id="Path_651" data-name="Path 651" d="M1119.183,948.834a13.129,13.129,0,0,1-1.287,2.516,21.7,21.7,0,0,1-1.637,2.222,21.4,21.4,0,0,1-1.9,2,12.943,12.943,0,0,1-2.256,1.7,12.958,12.958,0,0,1,1.285-2.517,21.251,21.251,0,0,1,1.639-2.22,21.678,21.678,0,0,1,1.9-2A13.131,13.131,0,0,1,1119.183,948.834Z" transform="translate(-993.153 -677.788)" fill="#e0caef"/>
          <path id="Path_652" data-name="Path 652" d="M1083.432,993.89a8.855,8.855,0,0,1-.941,2.1,14.077,14.077,0,0,1-1.291,1.81,13.89,13.89,0,0,1-1.557,1.588,8.76,8.76,0,0,1-1.91,1.291,8.753,8.753,0,0,1,.939-2.106,13.89,13.89,0,0,1,1.293-1.808,14.071,14.071,0,0,1,1.558-1.586A8.879,8.879,0,0,1,1083.432,993.89Z" transform="translate(-972.601 -704.731)" fill="#e0caef"/>
          <path id="Path_653" data-name="Path 653" d="M1050.781,1032.8a8.858,8.858,0,0,1-.941,2.1,14.07,14.07,0,0,1-1.291,1.81,13.9,13.9,0,0,1-1.557,1.588,8.769,8.769,0,0,1-1.91,1.291,8.753,8.753,0,0,1,.939-2.106,13.886,13.886,0,0,1,1.293-1.809,14.14,14.14,0,0,1,1.558-1.586A8.849,8.849,0,0,1,1050.781,1032.8Z" transform="translate(-953.076 -727.999)" fill="#e0caef"/>
          <path id="Path_654" data-name="Path 654" d="M1018.13,1071.713a8.856,8.856,0,0,1-.941,2.1,14.126,14.126,0,0,1-1.292,1.81,13.833,13.833,0,0,1-1.557,1.588,8.764,8.764,0,0,1-1.91,1.291,8.767,8.767,0,0,1,.939-2.106,13.872,13.872,0,0,1,1.293-1.809,14.157,14.157,0,0,1,1.558-1.586A8.858,8.858,0,0,1,1018.13,1071.713Z" transform="translate(-933.552 -751.267)" fill="#e0caef"/>
          <path id="Path_655" data-name="Path 655" d="M989.588,1110.626a3.129,3.129,0,0,1-.25,1.28,3.851,3.851,0,0,1-.6.987,3.792,3.792,0,0,1-.866.764.747.747,0,1,1-.971-.815,3.781,3.781,0,0,1,.6-.985,3.844,3.844,0,0,1,.868-.763A3.123,3.123,0,0,1,989.588,1110.626Z" transform="translate(-918.136 -774.537)" fill="#e0caef"/>
          <path id="Path_656" data-name="Path 656" d="M1242.606,867.875a36.193,36.193,0,0,1-1.042,4.7c-.423,1.538-.922,3.048-1.463,4.543s-1.134,2.971-1.8,4.421a35.852,35.852,0,0,1-2.222,4.267,35.824,35.824,0,0,1,1.04-4.7c.424-1.537.922-3.048,1.465-4.542s1.135-2.971,1.8-4.421A36.207,36.207,0,0,1,1242.606,867.875Z" transform="translate(-1067.291 -629.376)" fill="#e0caef"/>
          <path id="Path_657" data-name="Path 657" d="M1220.651,935.705a19.925,19.925,0,0,1-.578,3.435,33.523,33.523,0,0,1-1.008,3.279,32.772,32.772,0,0,1-1.333,3.16,19.579,19.579,0,0,1-1.767,3,19.636,19.636,0,0,1,.576-3.436,32.8,32.8,0,0,1,1.01-3.278,33.508,33.508,0,0,1,1.335-3.16A19.833,19.833,0,0,1,1220.651,935.705Z" transform="translate(-1055.261 -669.937)" fill="#e0caef"/>
          <path id="Path_658" data-name="Path 658" d="M1200.988,993.486a13.123,13.123,0,0,1-.348,2.8,21.7,21.7,0,0,1-.779,2.648,21.259,21.259,0,0,1-1.1,2.529,12.929,12.929,0,0,1-1.537,2.371,12.944,12.944,0,0,1,.346-2.8,21.334,21.334,0,0,1,.78-2.647,21.7,21.7,0,0,1,1.106-2.528A13.1,13.1,0,0,1,1200.988,993.486Z" transform="translate(-1044.052 -704.489)" fill="#e0caef"/>
          <path id="Path_659" data-name="Path 659" d="M1181.934,1048.755a8.861,8.861,0,0,1-.165,2.3,14.146,14.146,0,0,1-.594,2.143,13.94,13.94,0,0,1-.92,2.024,8.756,8.756,0,0,1-1.354,1.866,8.737,8.737,0,0,1,.163-2.3,13.857,13.857,0,0,1,.6-2.142,14.1,14.1,0,0,1,.922-2.024A8.857,8.857,0,0,1,1181.934,1048.755Z" transform="translate(-1033.086 -737.539)" fill="#e0caef"/>
          <path id="Path_660" data-name="Path 660" d="M1458.8,949.693a13.131,13.131,0,0,1,2.255,1.7,21.783,21.783,0,0,1,1.9,2,21.354,21.354,0,0,1,1.639,2.22,12.95,12.95,0,0,1,1.285,2.517,12.97,12.97,0,0,1-2.256-1.7,21.334,21.334,0,0,1-1.9-2,21.738,21.738,0,0,1-1.637-2.222A13.169,13.169,0,0,1,1458.8,949.693Z" transform="translate(-1200.475 -678.301)" fill="#e0caef"/>
          <path id="Path_661" data-name="Path 661" d="M1496.61,994.749a8.873,8.873,0,0,1,1.909,1.292,14.119,14.119,0,0,1,1.558,1.586,13.878,13.878,0,0,1,1.293,1.809,8.758,8.758,0,0,1,.939,2.105,8.753,8.753,0,0,1-1.91-1.29,13.9,13.9,0,0,1-1.557-1.588,14.155,14.155,0,0,1-1.292-1.81A8.882,8.882,0,0,1,1496.61,994.749Z" transform="translate(-1223.083 -705.244)" fill="#e0caef"/>
          <path id="Path_662" data-name="Path 662" d="M1529.261,1033.661a8.871,8.871,0,0,1,1.909,1.292,14.139,14.139,0,0,1,1.558,1.586,13.867,13.867,0,0,1,1.293,1.809,1.2,1.2,0,1,1-.971.815,13.9,13.9,0,0,1-1.557-1.588,14.078,14.078,0,0,1-1.291-1.81A8.832,8.832,0,0,1,1529.261,1033.661Z" transform="translate(-1242.607 -728.513)" fill="#e0caef"/>
          <path id="Path_663" data-name="Path 663" d="M1561.912,1072.573a8.854,8.854,0,0,1,1.908,1.292,14.135,14.135,0,0,1,1.559,1.586,13.853,13.853,0,0,1,1.293,1.809,1.2,1.2,0,1,1-.971.815,13.855,13.855,0,0,1-1.557-1.588,14.084,14.084,0,0,1-1.292-1.81A8.862,8.862,0,0,1,1561.912,1072.573Z" transform="translate(-1262.132 -751.782)" fill="#e0caef"/>
          <path id="Path_664" data-name="Path 664" d="M1594.562,1111.485a3.131,3.131,0,0,1,1.218.469,3.864,3.864,0,0,1,.868.763,3.794,3.794,0,0,1,.6.985.747.747,0,1,1-.971.815,3.771,3.771,0,0,1-.865-.764,3.846,3.846,0,0,1-.6-.987A3.119,3.119,0,0,1,1594.562,1111.485Z" transform="translate(-1281.656 -775.05)" fill="#e0caef"/>
          <path id="Path_665" data-name="Path 665" d="M1400.362,814.9a36.212,36.212,0,0,1,4.444,1.842c1.441.684,2.841,1.437,4.22,2.229s2.729,1.633,4.042,2.538a35.819,35.819,0,0,1,3.816,2.929,35.831,35.831,0,0,1-4.445-1.84c-1.441-.684-2.842-1.437-4.219-2.232s-2.728-1.634-4.041-2.54A36.172,36.172,0,0,1,1400.362,814.9Z" transform="translate(-1165.528 -597.699)" fill="#e0caef"/>
          <path id="Path_666" data-name="Path 666" d="M1462.875,850.994a19.858,19.858,0,0,1,3.283,1.166,33.477,33.477,0,0,1,3.054,1.562,32.928,32.928,0,0,1,2.881,1.862,19.622,19.622,0,0,1,2.65,2.262,19.593,19.593,0,0,1-3.284-1.164,32.883,32.883,0,0,1-3.053-1.564,33.455,33.455,0,0,1-2.88-1.864A19.853,19.853,0,0,1,1462.875,850.994Z" transform="translate(-1202.91 -619.281)" fill="#e0caef"/>
          <path id="Path_667" data-name="Path 667" d="M1516.127,881.739a13.138,13.138,0,0,1,2.7.83,21.7,21.7,0,0,1,2.472,1.226,21.354,21.354,0,0,1,2.3,1.526,12.965,12.965,0,0,1,2.068,1.926,12.971,12.971,0,0,1-2.7-.828,21.277,21.277,0,0,1-2.471-1.228,21.674,21.674,0,0,1-2.3-1.528A13.085,13.085,0,0,1,1516.127,881.739Z" transform="translate(-1234.753 -637.666)" fill="#e0caef"/>
          <path id="Path_668" data-name="Path 668" d="M1567.063,911.147a8.871,8.871,0,0,1,2.235.562,14.076,14.076,0,0,1,2.007.958,13.9,13.9,0,0,1,1.834,1.257,8.759,8.759,0,0,1,1.6,1.657,8.746,8.746,0,0,1-2.237-.559,13.885,13.885,0,0,1-2.006-.96,14.137,14.137,0,0,1-1.833-1.259A8.861,8.861,0,0,1,1567.063,911.147Z" transform="translate(-1265.212 -655.252)" fill="#e0caef"/>
          <path id="Path_669" data-name="Path 669" d="M1611.053,936.545a8.867,8.867,0,0,1,2.236.562,14.05,14.05,0,0,1,2.007.958,13.862,13.862,0,0,1,1.834,1.257,8.779,8.779,0,0,1,1.6,1.657,8.74,8.74,0,0,1-2.237-.559,13.847,13.847,0,0,1-2.006-.96,14.1,14.1,0,0,1-1.833-1.259A8.861,8.861,0,0,1,1611.053,936.545Z" transform="translate(-1291.518 -670.439)" fill="#e0caef"/>
          <path id="Path_670" data-name="Path 670" d="M1655.044,961.943a8.871,8.871,0,0,1,2.236.562,14.1,14.1,0,0,1,2.007.957,13.894,13.894,0,0,1,1.834,1.258,8.757,8.757,0,0,1,1.6,1.657,8.767,8.767,0,0,1-2.237-.559,13.889,13.889,0,0,1-2.005-.96,14.128,14.128,0,0,1-1.833-1.259A8.863,8.863,0,0,1,1655.044,961.943Z" transform="translate(-1317.823 -685.627)" fill="#e0caef"/>
          <path id="Path_671" data-name="Path 671" d="M1699.034,987.255a3.131,3.131,0,0,1,1.3.024,3.847,3.847,0,0,1,1.076.42,3.782,3.782,0,0,1,.9.72.747.747,0,1,1-.634,1.1,3.792,3.792,0,0,1-1.075-.422,3.868,3.868,0,0,1-.9-.722A3.129,3.129,0,0,1,1699.034,987.255Z" transform="translate(-1344.129 -700.728)" fill="#e0caef"/>
          <path id="Path_672" data-name="Path 672" d="M1415.109,775.045a36.155,36.155,0,0,1,4.806.211c1.588.15,3.161.379,4.728.652s3.123.6,4.666,1a35.83,35.83,0,0,1,4.588,1.448,35.866,35.866,0,0,1-4.806-.209c-1.588-.15-3.162-.379-4.728-.654s-3.122-.6-4.666-1A36.243,36.243,0,0,1,1415.109,775.045Z" transform="translate(-1174.346 -573.857)" fill="#e0caef"/>
          <path id="Path_673" data-name="Path 673" d="M1486.2,787.466a19.877,19.877,0,0,1,3.483-.027,33.427,33.427,0,0,1,3.4.423,32.847,32.847,0,0,1,3.344.764,19.641,19.641,0,0,1,3.264,1.219,19.6,19.6,0,0,1-3.484.029,32.934,32.934,0,0,1-3.4-.425,33.534,33.534,0,0,1-3.344-.767A19.865,19.865,0,0,1,1486.2,787.466Z" transform="translate(-1216.855 -581.239)" fill="#e0caef"/>
          <path id="Path_674" data-name="Path 674" d="M1546.751,798.039a13.126,13.126,0,0,1,2.822-.144,21.743,21.743,0,0,1,2.743.307,21.3,21.3,0,0,1,2.682.648,12.957,12.957,0,0,1,2.6,1.1,12.961,12.961,0,0,1-2.823.146,21.293,21.293,0,0,1-2.742-.309,21.731,21.731,0,0,1-2.682-.65A13.131,13.131,0,0,1,1546.751,798.039Z" transform="translate(-1253.066 -587.519)" fill="#e0caef"/>
          <path id="Path_675" data-name="Path 675" d="M1604.674,808.138a8.866,8.866,0,0,1,2.293-.237,14.13,14.13,0,0,1,2.213.214,13.874,13.874,0,0,1,2.153.554,8.765,8.765,0,0,1,2.073,1.009,8.751,8.751,0,0,1-2.293.239,13.845,13.845,0,0,1-2.213-.216,14.075,14.075,0,0,1-2.153-.556A8.849,8.849,0,0,1,1604.674,808.138Z" transform="translate(-1287.703 -593.512)" fill="#e0caef"/>
          <path id="Path_676" data-name="Path 676" d="M1654.7,816.959a8.859,8.859,0,0,1,2.293-.237,14.132,14.132,0,0,1,2.214.213,13.835,13.835,0,0,1,2.153.554,8.725,8.725,0,0,1,2.073,1.009,8.767,8.767,0,0,1-2.293.239,13.9,13.9,0,0,1-2.213-.216,14.147,14.147,0,0,1-2.153-.557A8.861,8.861,0,0,1,1654.7,816.959Z" transform="translate(-1317.616 -598.786)" fill="#e0caef"/>
          <path id="Path_677" data-name="Path 677" d="M1704.722,825.779a8.861,8.861,0,0,1,2.293-.237,14.132,14.132,0,0,1,2.214.213,13.9,13.9,0,0,1,2.153.554,8.766,8.766,0,0,1,2.073,1.009,8.753,8.753,0,0,1-2.293.24,13.851,13.851,0,0,1-2.213-.216,14.114,14.114,0,0,1-2.153-.556A8.848,8.848,0,0,1,1704.722,825.779Z" transform="translate(-1347.53 -604.061)" fill="#e0caef"/>
          <path id="Path_678" data-name="Path 678" d="M1754.746,834.276a3.135,3.135,0,0,1,1.234-.424,3.846,3.846,0,0,1,1.155.027,3.775,3.775,0,0,1,1.095.367.747.747,0,1,1-.22,1.248,3.782,3.782,0,0,1-1.155-.029,3.847,3.847,0,0,1-1.094-.369A3.131,3.131,0,0,1,1754.746,834.276Z" transform="translate(-1377.444 -609.012)" fill="#e0caef"/>
          <path id="Path_679" data-name="Path 679" d="M1415.341,727.638a36.314,36.314,0,0,1,4.588-1.445c1.543-.4,3.1-.725,4.666-1s3.14-.5,4.728-.654a35.848,35.848,0,0,1,4.806-.209,35.814,35.814,0,0,1-4.588,1.448c-1.543.4-3.1.726-4.666,1s-3.14.5-4.728.652A36.207,36.207,0,0,1,1415.341,727.638Z" transform="translate(-1174.485 -543.527)" fill="#e0caef"/>
          <path id="Path_680" data-name="Path 680" d="M1486.428,716.376a19.865,19.865,0,0,1,3.264-1.217,33.51,33.51,0,0,1,3.344-.767,32.951,32.951,0,0,1,3.4-.425,19.641,19.641,0,0,1,3.484.029,19.641,19.641,0,0,1-3.264,1.219,32.84,32.84,0,0,1-3.344.764,33.41,33.41,0,0,1-3.4.424A19.907,19.907,0,0,1,1486.428,716.376Z" transform="translate(-1216.994 -537.304)" fill="#e0caef"/>
          <path id="Path_681" data-name="Path 681" d="M1546.983,706.287a13.128,13.128,0,0,1,2.6-1.1,21.666,21.666,0,0,1,2.682-.65,21.3,21.3,0,0,1,2.742-.309,12.96,12.96,0,0,1,2.822.146,12.962,12.962,0,0,1-2.6,1.1,21.3,21.3,0,0,1-2.682.648,21.719,21.719,0,0,1-2.742.307A13.1,13.1,0,0,1,1546.983,706.287Z" transform="translate(-1253.205 -531.508)" fill="#e0caef"/>
          <path id="Path_682" data-name="Path 682" d="M1604.906,696.515a8.88,8.88,0,0,1,2.073-1.007,14.093,14.093,0,0,1,2.153-.556,13.889,13.889,0,0,1,2.213-.215,8.751,8.751,0,0,1,2.293.239,8.737,8.737,0,0,1-2.073,1.009,13.839,13.839,0,0,1-2.153.554,14.137,14.137,0,0,1-2.213.213A8.861,8.861,0,0,1,1604.906,696.515Z" transform="translate(-1287.842 -525.841)" fill="#e0caef"/>
          <path id="Path_683" data-name="Path 683" d="M1654.93,687.695a8.846,8.846,0,0,1,2.073-1.007,14.091,14.091,0,0,1,2.153-.556,13.837,13.837,0,0,1,2.213-.216,8.75,8.75,0,0,1,2.293.24,8.767,8.767,0,0,1-2.073,1.009,13.951,13.951,0,0,1-2.153.554,14.147,14.147,0,0,1-2.214.213A8.866,8.866,0,0,1,1654.93,687.695Z" transform="translate(-1317.755 -520.567)" fill="#e0caef"/>
          <path id="Path_684" data-name="Path 684" d="M1704.954,678.874a8.87,8.87,0,0,1,2.073-1.007,14.09,14.09,0,0,1,2.153-.556,13.884,13.884,0,0,1,2.213-.216,8.753,8.753,0,0,1,2.293.239,8.771,8.771,0,0,1-2.073,1.009,13.849,13.849,0,0,1-2.153.554,14.149,14.149,0,0,1-2.214.213A8.865,8.865,0,0,1,1704.954,678.874Z" transform="translate(-1347.669 -515.292)" fill="#e0caef"/>
          <path id="Path_685" data-name="Path 685" d="M1754.978,670.841a3.131,3.131,0,0,1,1.015-.82,3.851,3.851,0,0,1,1.094-.37,3.783,3.783,0,0,1,1.155-.029.747.747,0,1,1,.22,1.248,3.781,3.781,0,0,1-1.095.368,3.849,3.849,0,0,1-1.155.027A3.13,3.13,0,0,1,1754.978,670.841Z" transform="translate(-1377.582 -510.805)" fill="#e0caef"/>
          <path id="Path_686" data-name="Path 686" d="M1401.031,678.4a36.188,36.188,0,0,1,3.817-2.927c1.313-.906,2.666-1.742,4.041-2.54s2.778-1.547,4.219-2.232a35.877,35.877,0,0,1,4.445-1.84,35.814,35.814,0,0,1-3.816,2.93c-1.313.905-2.666,1.742-4.042,2.538s-2.779,1.546-4.22,2.23A36.25,36.25,0,0,1,1401.031,678.4Z" transform="translate(-1165.928 -510.371)" fill="#e0caef"/>
          <path id="Path_687" data-name="Path 687" d="M1463.543,646.309a19.922,19.922,0,0,1,2.651-2.26,33.573,33.573,0,0,1,2.88-1.864,32.9,32.9,0,0,1,3.053-1.564,19.6,19.6,0,0,1,3.284-1.164,19.678,19.678,0,0,1-2.65,2.262,33.041,33.041,0,0,1-2.881,1.862,33.6,33.6,0,0,1-3.054,1.562A19.891,19.891,0,0,1,1463.543,646.309Z" transform="translate(-1203.309 -492.786)" fill="#e0caef"/>
          <path id="Path_688" data-name="Path 688" d="M1516.8,617.562a13.137,13.137,0,0,1,2.069-1.924,21.779,21.779,0,0,1,2.3-1.528,21.348,21.348,0,0,1,2.472-1.228,12.929,12.929,0,0,1,2.7-.828,12.942,12.942,0,0,1-2.068,1.926,21.285,21.285,0,0,1-2.3,1.526,21.721,21.721,0,0,1-2.472,1.226A13.124,13.124,0,0,1,1516.8,617.562Z" transform="translate(-1235.153 -476.399)" fill="#e0caef"/>
          <path id="Path_689" data-name="Path 689" d="M1567.731,589.752a8.863,8.863,0,0,1,1.6-1.655,14.151,14.151,0,0,1,1.833-1.259,13.83,13.83,0,0,1,2.005-.959,8.76,8.76,0,0,1,2.237-.56,8.751,8.751,0,0,1-1.6,1.657,13.809,13.809,0,0,1-1.834,1.257,14.13,14.13,0,0,1-2.007.958A8.845,8.845,0,0,1,1567.731,589.752Z" transform="translate(-1265.612 -460.412)" fill="#e0caef"/>
          <path id="Path_690" data-name="Path 690" d="M1611.722,564.354a8.869,8.869,0,0,1,1.6-1.656,14.17,14.17,0,0,1,1.833-1.259,13.834,13.834,0,0,1,2.006-.959,8.762,8.762,0,0,1,2.237-.56,8.758,8.758,0,0,1-1.6,1.657,13.839,13.839,0,0,1-1.834,1.258,14.08,14.08,0,0,1-2.007.958A8.848,8.848,0,0,1,1611.722,564.354Z" transform="translate(-1291.918 -445.224)" fill="#e0caef"/>
          <path id="Path_691" data-name="Path 691" d="M1655.712,538.956a8.857,8.857,0,0,1,1.6-1.655,14.073,14.073,0,0,1,1.833-1.26,13.82,13.82,0,0,1,2.006-.959,8.756,8.756,0,0,1,2.236-.56,8.75,8.75,0,0,1-1.6,1.658,13.9,13.9,0,0,1-1.834,1.257,14.1,14.1,0,0,1-2.007.958A8.852,8.852,0,0,1,1655.712,538.956Z" transform="translate(-1318.223 -430.037)" fill="#e0caef"/>
          <path id="Path_692" data-name="Path 692" d="M1699.7,516.667a3.132,3.132,0,0,1,.673-1.118,3.859,3.859,0,0,1,.9-.722,3.8,3.8,0,0,1,1.075-.422.747.747,0,1,1,.634,1.1,3.786,3.786,0,0,1-.9.72,3.865,3.865,0,0,1-1.076.42A3.13,3.13,0,0,1,1699.7,516.667Z" transform="translate(-1344.529 -417.958)" fill="#e0caef"/>
          <path id="Path_693" data-name="Path 693" d="M1373.9,638.165a36.178,36.178,0,0,1,2.586-4.056c.923-1.3,1.909-2.549,2.928-3.769s2.081-2.4,3.2-3.54a35.7,35.7,0,0,1,3.548-3.249,35.851,35.851,0,0,1-2.584,4.058c-.924,1.3-1.909,2.549-2.93,3.767s-2.083,2.4-3.2,3.538A36.191,36.191,0,0,1,1373.9,638.165Z" transform="translate(-1149.706 -483.274)" fill="#e0caef"/>
          <path id="Path_694" data-name="Path 694" d="M1420.3,588.992a19.907,19.907,0,0,1,1.719-3.03,33.512,33.512,0,0,1,2.068-2.736,32.991,32.991,0,0,1,2.334-2.514,19.628,19.628,0,0,1,2.688-2.217,19.581,19.581,0,0,1-1.717,3.032,32.887,32.887,0,0,1-2.07,2.735,33.438,33.438,0,0,1-2.335,2.513A19.931,19.931,0,0,1,1420.3,588.992Z" transform="translate(-1177.452 -456.331)" fill="#e0caef"/>
          <path id="Path_695" data-name="Path 695" d="M1459.827,544.95a13.128,13.128,0,0,1,1.286-2.516,21.722,21.722,0,0,1,1.637-2.222,21.328,21.328,0,0,1,1.9-2,12.953,12.953,0,0,1,2.256-1.7,12.982,12.982,0,0,1-1.285,2.517,21.336,21.336,0,0,1-1.639,2.22,21.64,21.64,0,0,1-1.9,2A13.11,13.11,0,0,1,1459.827,544.95Z" transform="translate(-1201.087 -431.226)" fill="#e0caef"/>
          <path id="Path_696" data-name="Path 696" d="M1497.634,502.343a8.857,8.857,0,0,1,.941-2.1,14.088,14.088,0,0,1,1.291-1.81,13.876,13.876,0,0,1,1.557-1.588,8.746,8.746,0,0,1,1.91-1.29,8.768,8.768,0,0,1-.939,2.105,13.847,13.847,0,0,1-1.293,1.809,14.109,14.109,0,0,1-1.558,1.586A8.877,8.877,0,0,1,1497.634,502.343Z" transform="translate(-1223.695 -406.732)" fill="#e0caef"/>
          <path id="Path_697" data-name="Path 697" d="M1530.285,463.431a8.871,8.871,0,0,1,.941-2.1,14.116,14.116,0,0,1,1.292-1.81,13.848,13.848,0,0,1,1.557-1.588,8.759,8.759,0,0,1,1.91-1.291,8.767,8.767,0,0,1-.939,2.106,13.932,13.932,0,0,1-1.293,1.809,14.142,14.142,0,0,1-1.559,1.586A8.861,8.861,0,0,1,1530.285,463.431Z" transform="translate(-1243.22 -383.463)" fill="#e0caef"/>
          <path id="Path_698" data-name="Path 698" d="M1562.935,424.519a8.877,8.877,0,0,1,.941-2.1,14.129,14.129,0,0,1,1.292-1.81,13.849,13.849,0,0,1,1.557-1.588,8.766,8.766,0,0,1,1.91-1.291,8.748,8.748,0,0,1-.939,2.106,13.868,13.868,0,0,1-1.293,1.809,14.14,14.14,0,0,1-1.559,1.586A8.845,8.845,0,0,1,1562.935,424.519Z" transform="translate(-1262.744 -360.195)" fill="#e0caef"/>
          <path id="Path_699" data-name="Path 699" d="M1595.585,390.506a3.131,3.131,0,0,1,.25-1.281,3.853,3.853,0,0,1,.6-.987,3.779,3.779,0,0,1,.865-.764.747.747,0,1,1,.971.815,3.787,3.787,0,0,1-.6.985,3.86,3.86,0,0,1-.868.763A3.129,3.129,0,0,1,1595.585,390.506Z" transform="translate(-1282.267 -341.825)" fill="#e0caef"/>
          <path id="Path_700" data-name="Path 700" d="M1337.233,611.8a36.2,36.2,0,0,1,1.042-4.7c.423-1.538.922-3.048,1.463-4.543s1.134-2.971,1.8-4.421a35.825,35.825,0,0,1,2.223-4.267,35.845,35.845,0,0,1-1.04,4.7c-.424,1.538-.922,3.048-1.465,4.542s-1.135,2.97-1.8,4.42A36.2,36.2,0,0,1,1337.233,611.8Z" transform="translate(-1127.778 -465.525)" fill="#e0caef"/>
          <path id="Path_701" data-name="Path 701" d="M1361.921,551.478a19.906,19.906,0,0,1,.578-3.435,33.4,33.4,0,0,1,1.008-3.279,32.944,32.944,0,0,1,1.333-3.161,19.623,19.623,0,0,1,1.767-3,19.653,19.653,0,0,1-.576,3.436,32.863,32.863,0,0,1-1.01,3.278,33.5,33.5,0,0,1-1.335,3.16A19.916,19.916,0,0,1,1361.921,551.478Z" transform="translate(-1142.541 -432.475)" fill="#e0caef"/>
          <path id="Path_702" data-name="Path 702" d="M1382.952,497.452a13.107,13.107,0,0,1,.348-2.8,21.68,21.68,0,0,1,.778-2.648,21.287,21.287,0,0,1,1.1-2.529,12.937,12.937,0,0,1,1.537-2.371,12.962,12.962,0,0,1-.346,2.8,21.357,21.357,0,0,1-.78,2.647,21.721,21.721,0,0,1-1.106,2.528A13.119,13.119,0,0,1,1382.952,497.452Z" transform="translate(-1155.117 -401.679)" fill="#e0caef"/>
          <path id="Path_703" data-name="Path 703" d="M1403.039,445.187a8.852,8.852,0,0,1,.165-2.3,14.1,14.1,0,0,1,.594-2.143,13.9,13.9,0,0,1,.92-2.024,8.752,8.752,0,0,1,1.354-1.867,8.755,8.755,0,0,1-.163,2.3,13.834,13.834,0,0,1-.6,2.142,14.027,14.027,0,0,1-.922,2.023A8.833,8.833,0,0,1,1403.039,445.187Z" transform="translate(-1167.117 -371.633)" fill="#e0caef"/>
          <path id="Path_704" data-name="Path 704" d="M1420.412,397.455a8.856,8.856,0,0,1,.165-2.3,14.112,14.112,0,0,1,.594-2.143,13.928,13.928,0,0,1,.92-2.024,8.782,8.782,0,0,1,1.354-1.866,8.776,8.776,0,0,1-.162,2.3,13.929,13.929,0,0,1-.6,2.142,14.143,14.143,0,0,1-.922,2.023A8.853,8.853,0,0,1,1420.412,397.455Z" transform="translate(-1177.506 -343.09)" fill="#e0caef"/>
          <path id="Path_705" data-name="Path 705" d="M1437.786,349.723a8.839,8.839,0,0,1,.164-2.3,14.085,14.085,0,0,1,.595-2.143,13.832,13.832,0,0,1,.92-2.024,8.739,8.739,0,0,1,1.354-1.866,8.758,8.758,0,0,1-.163,2.3,13.861,13.861,0,0,1-.6,2.142,14.134,14.134,0,0,1-.922,2.023A8.882,8.882,0,0,1,1437.786,349.723Z" transform="translate(-1187.895 -314.547)" fill="#e0caef"/>
          <path id="Path_706" data-name="Path 706" d="M1454.882,308a3.133,3.133,0,0,1-.2-1.289,3.846,3.846,0,0,1,.227-1.132,3.786,3.786,0,0,1,.552-1.014.747.747,0,1,1,1.191.434,3.784,3.784,0,0,1-.229,1.132,3.858,3.858,0,0,1-.554,1.013A3.134,3.134,0,0,1,1454.882,308Z" transform="translate(-1198.007 -292.013)" fill="#e0caef"/>
          <path id="Path_707" data-name="Path 707" d="M1267.369,593.942a43.265,43.265,0,0,1-1.525-5.036c-.428-1.693-.778-3.4-1.084-5.114s-.557-3.439-.733-5.176a42.708,42.708,0,0,1-.288-5.255,42.808,42.808,0,0,1,1.526,5.036c.429,1.693.778,3.4,1.082,5.115s.555,3.439.731,5.177A43.284,43.284,0,0,1,1267.369,593.942Z" transform="translate(-1083.828 -453.261)" fill="#e0caef"/>
          <path id="Path_708" data-name="Path 708" d="M1255.359,526.436a22.137,22.137,0,0,1-1.252-3.463c-.326-1.17-.591-2.351-.8-3.542s-.367-2.391-.461-3.6a21.886,21.886,0,0,1-.005-3.682,21.946,21.946,0,0,1,1.254,3.462q.489,1.755.8,3.542c.209,1.191.365,2.392.458,3.6A22.171,22.171,0,0,1,1255.359,526.436Z" transform="translate(-1077.266 -416.656)" fill="#e0caef"/>
          <path id="Path_709" data-name="Path 709" d="M1245.511,471.391a12.539,12.539,0,0,1-1.089-2.537,20.639,20.639,0,0,1-.638-2.616,20.274,20.274,0,0,1-.3-2.676,12.416,12.416,0,0,1,.158-2.756,12.37,12.37,0,0,1,1.091,2.536,20.312,20.312,0,0,1,.636,2.616,20.62,20.62,0,0,1,.3,2.677A12.533,12.533,0,0,1,1245.511,471.391Z" transform="translate(-1071.711 -385.955)" fill="#e0caef"/>
          <path id="Path_710" data-name="Path 710" d="M1235.065,412.152a12.545,12.545,0,0,1-1.089-2.537,20.668,20.668,0,0,1-.638-2.616,20.239,20.239,0,0,1-.3-2.676,12.387,12.387,0,0,1,.158-2.756,12.374,12.374,0,0,1,1.091,2.536,20.335,20.335,0,0,1,.636,2.616,20.62,20.62,0,0,1,.3,2.677A12.513,12.513,0,0,1,1235.065,412.152Z" transform="translate(-1065.464 -350.531)" fill="#e0caef"/>
          <path id="Path_711" data-name="Path 711" d="M1226.682,365.277a8.384,8.384,0,0,1-1-2.008,13.239,13.239,0,0,1-.545-2.086,13.007,13.007,0,0,1-.2-2.147,8.277,8.277,0,0,1,.251-2.227,8.288,8.288,0,0,1,1,2.007,13.057,13.057,0,0,1,.543,2.087,13.276,13.276,0,0,1,.2,2.147A8.411,8.411,0,0,1,1226.682,365.277Z" transform="translate(-1060.627 -323.767)" fill="#e0caef"/>
          <path id="Path_712" data-name="Path 712" d="M1219.336,325.5a2.9,2.9,0,0,1-.808-.949,3.423,3.423,0,0,1-.358-1.028,3.368,3.368,0,0,1-.017-1.088.724.724,0,1,1,1.248-.22,3.382,3.382,0,0,1,.356,1.029,3.435,3.435,0,0,1,.015,1.089A2.9,2.9,0,0,1,1219.336,325.5Z" transform="translate(-1056.548 -302.512)" fill="#e0caef"/>
          <path id="Path_713" data-name="Path 713" d="M1215.622,304.436a2.914,2.914,0,0,1-.808-.949,3.434,3.434,0,0,1-.358-1.028,3.378,3.378,0,0,1-.017-1.088.724.724,0,1,1,1.248-.22,3.362,3.362,0,0,1,.356,1.029,3.439,3.439,0,0,1,.015,1.089A2.9,2.9,0,0,1,1215.622,304.436Z" transform="translate(-1054.327 -289.917)" fill="#e0caef"/>
          <path id="Path_714" data-name="Path 714" d="M1211.78,283.89a1.688,1.688,0,0,1-.715-.419.974.974,0,0,1-.265-.5.949.949,0,0,1,.076-.559.643.643,0,0,1,1.249-.22.955.955,0,0,1,.263.5.973.973,0,0,1-.078.56A1.688,1.688,0,0,1,1211.78,283.89Z" transform="translate(-1052.165 -278.897)" fill="#e0caef"/>
          <path id="Path_715" data-name="Path 715" d="M1214.569,612.916a43.282,43.282,0,0,1-3.155-4.211c-.982-1.444-1.894-2.929-2.768-4.435s-1.7-3.041-2.46-4.613a42.771,42.771,0,0,1-2.068-4.839,42.728,42.728,0,0,1,3.157,4.21c.982,1.444,1.894,2.929,2.765,4.436s1.7,3.042,2.458,4.615A43.338,43.338,0,0,1,1214.569,612.916Z" transform="translate(-1048.178 -466.091)" fill="#e0caef"/>
          <path id="Path_716" data-name="Path 716" d="M1180.295,553.551a22.151,22.151,0,0,1-2.361-2.826q-1.06-1.482-1.964-3.054t-1.665-3.227a21.864,21.864,0,0,1-1.265-3.459,21.9,21.9,0,0,1,2.363,2.825q1.06,1.482,1.963,3.055t1.663,3.229A22.17,22.17,0,0,1,1180.295,553.551Z" transform="translate(-1029.593 -433.901)" fill="#e0caef"/>
          <path id="Path_717" data-name="Path 717" d="M1152.347,505.145a12.532,12.532,0,0,1-1.891-2.011,20.744,20.744,0,0,1-1.494-2.24,20.34,20.34,0,0,1-1.194-2.413,12.391,12.391,0,0,1-.795-2.644,12.38,12.38,0,0,1,1.893,2.01,20.341,20.341,0,0,1,1.492,2.241,20.719,20.719,0,0,1,1.193,2.414A12.551,12.551,0,0,1,1152.347,505.145Z" transform="translate(-1014.006 -406.903)" fill="#e0caef"/>
          <path id="Path_718" data-name="Path 718" d="M1122.271,453.051a12.532,12.532,0,0,1-1.89-2.011,20.709,20.709,0,0,1-1.494-2.24,20.358,20.358,0,0,1-1.195-2.413,12.39,12.39,0,0,1-.794-2.644,12.386,12.386,0,0,1,1.892,2.01,20.307,20.307,0,0,1,1.493,2.241,20.645,20.645,0,0,1,1.192,2.414A12.531,12.531,0,0,1,1122.271,453.051Z" transform="translate(-996.021 -375.752)" fill="#e0caef"/>
          <path id="Path_719" data-name="Path 719" d="M1098.472,411.83a8.417,8.417,0,0,1-1.622-1.546,13.282,13.282,0,0,1-1.225-1.775,13.016,13.016,0,0,1-.926-1.948,8.285,8.285,0,0,1-.526-2.179,8.3,8.3,0,0,1,1.623,1.545,13.054,13.054,0,0,1,1.224,1.775,13.35,13.35,0,0,1,.924,1.949A8.384,8.384,0,0,1,1098.472,411.83Z" transform="translate(-982.432 -352.215)" fill="#e0caef"/>
          <path id="Path_720" data-name="Path 720" d="M1078.165,376.85a2.907,2.907,0,0,1-1.085-.615,3.45,3.45,0,0,1-.688-.844,3.376,3.376,0,0,1-.388-1.017.724.724,0,1,1,1.1-.634,3.374,3.374,0,0,1,.686.845,3.417,3.417,0,0,1,.386,1.018A2.9,2.9,0,0,1,1078.165,376.85Z" transform="translate(-971.53 -333.525)" fill="#e0caef"/>
          <path id="Path_721" data-name="Path 721" d="M1067.472,358.328a2.9,2.9,0,0,1-1.085-.615,3.446,3.446,0,0,1-.688-.843,3.375,3.375,0,0,1-.388-1.017.724.724,0,1,1,1.1-.634,3.377,3.377,0,0,1,.686.845,3.428,3.428,0,0,1,.387,1.018A2.907,2.907,0,0,1,1067.472,358.328Z" transform="translate(-965.135 -322.449)" fill="#e0caef"/>
          <path id="Path_722" data-name="Path 722" d="M1056.73,340.257a1.686,1.686,0,0,1-.816-.15.974.974,0,0,1-.42-.378.953.953,0,0,1-.12-.551.643.643,0,0,1,1.1-.634.951.951,0,0,1,.417.38.974.974,0,0,1,.118.552A1.69,1.69,0,0,1,1056.73,340.257Z" transform="translate(-959.23 -312.755)" fill="#e0caef"/>
          <path id="Path_723" data-name="Path 723" d="M1171.436,648.8a43.32,43.32,0,0,1-4.405-2.878c-1.416-1.021-2.781-2.1-4.117-3.221s-2.637-2.277-3.889-3.494a42.845,42.845,0,0,1-3.6-3.841,42.857,42.857,0,0,1,4.407,2.876c1.416,1.022,2.782,2.1,4.116,3.223s2.636,2.278,3.887,3.5A43.3,43.3,0,0,1,1171.436,648.8Z" transform="translate(-1019.06 -490.342)" fill="#e0caef"/>
          <path id="Path_724" data-name="Path 724" d="M1118.925,604.743a22.22,22.22,0,0,1-3.185-1.848q-1.5-1.03-2.89-2.2t-2.668-2.464a21.889,21.889,0,0,1-2.371-2.817,21.919,21.919,0,0,1,3.186,1.846q1.5,1.031,2.889,2.2t2.667,2.465A22.167,22.167,0,0,1,1118.925,604.743Z" transform="translate(-990.587 -466.45)" fill="#e0caef"/>
          <path id="Path_725" data-name="Path 725" d="M1076.107,568.815a12.543,12.543,0,0,1-2.464-1.243,20.652,20.652,0,0,1-2.17-1.594,20.28,20.28,0,0,1-1.948-1.859,12.384,12.384,0,0,1-1.651-2.213,12.406,12.406,0,0,1,2.466,1.242,20.352,20.352,0,0,1,2.169,1.6,20.67,20.67,0,0,1,1.946,1.861A12.531,12.531,0,0,1,1076.107,568.815Z" transform="translate(-966.706 -446.411)" fill="#e0caef"/>
          <path id="Path_726" data-name="Path 726" d="M1030.028,530.149a12.519,12.519,0,0,1-2.464-1.243,20.689,20.689,0,0,1-2.171-1.594,20.318,20.318,0,0,1-1.948-1.859,12.387,12.387,0,0,1-1.651-2.213,12.389,12.389,0,0,1,2.465,1.241,20.356,20.356,0,0,1,2.169,1.6,20.636,20.636,0,0,1,1.946,1.861A12.531,12.531,0,0,1,1030.028,530.149Z" transform="translate(-939.151 -423.29)" fill="#e0caef"/>
          <path id="Path_727" data-name="Path 727" d="M993.566,499.553a8.383,8.383,0,0,1-2.053-.9,13.251,13.251,0,0,1-1.759-1.248,13.056,13.056,0,0,1-1.536-1.514,8.287,8.287,0,0,1-1.239-1.867,8.287,8.287,0,0,1,2.054.9,13.02,13.02,0,0,1,1.757,1.25,13.287,13.287,0,0,1,1.535,1.515A8.408,8.408,0,0,1,993.566,499.553Z" transform="translate(-918.332 -405.821)" fill="#e0caef"/>
          <path id="Path_728" data-name="Path 728" d="M962.624,473.584a2.9,2.9,0,0,1-1.229-.207,3.427,3.427,0,0,1-.935-.557,3.381,3.381,0,0,1-.713-.823.724.724,0,1,1,.815-.971,3.372,3.372,0,0,1,.934.559,3.437,3.437,0,0,1,.711.824A2.908,2.908,0,0,1,962.624,473.584Z" transform="translate(-901.799 -391.941)" fill="#e0caef"/>
          <path id="Path_729" data-name="Path 729" d="M946.24,459.836a2.9,2.9,0,0,1-1.229-.207,3.437,3.437,0,0,1-.935-.558,3.375,3.375,0,0,1-.713-.823.724.724,0,1,1,.815-.971,3.37,3.37,0,0,1,.934.559,3.443,3.443,0,0,1,.712.824A2.906,2.906,0,0,1,946.24,459.836Z" transform="translate(-892.001 -383.721)" fill="#e0caef"/>
          <path id="Path_730" data-name="Path 730" d="M930.184,446.213a1.685,1.685,0,0,1-.818.139.975.975,0,0,1-.524-.212.954.954,0,0,1-.3-.477.642.642,0,0,1,.815-.971.951.951,0,0,1,.522.213.974.974,0,0,1,.3.479A1.689,1.689,0,0,1,930.184,446.213Z" transform="translate(-883.355 -376.315)" fill="#e0caef"/>
          <path id="Path_731" data-name="Path 731" d="M1143.18,697.282a43.253,43.253,0,0,1-5.124-1.2c-1.681-.475-3.333-1.026-4.971-1.619s-3.256-1.237-4.849-1.953a42.8,42.8,0,0,1-4.694-2.378,42.8,42.8,0,0,1,5.125,1.2c1.68.476,3.333,1.026,4.97,1.621s3.255,1.239,4.848,1.955A43.305,43.305,0,0,1,1143.18,697.282Z" transform="translate(-999.994 -523.089)" fill="#e0caef"/>
          <path id="Path_732" data-name="Path 732" d="M1078.766,673.837a22.178,22.178,0,0,1-3.625-.647c-1.177-.3-2.332-.664-3.468-1.077s-2.254-.878-3.35-1.4a21.893,21.893,0,0,1-3.192-1.836,21.871,21.871,0,0,1,3.625.645q1.765.454,3.467,1.079c1.136.414,2.253.88,3.349,1.4A22.166,22.166,0,0,1,1078.766,673.837Z" transform="translate(-965.065 -510.377)" fill="#e0caef"/>
          <path id="Path_733" data-name="Path 733" d="M1026.242,654.719a12.529,12.529,0,0,1-2.741-.325,20.67,20.67,0,0,1-2.585-.755,20.284,20.284,0,0,1-2.466-1.081,12.387,12.387,0,0,1-2.308-1.515,12.379,12.379,0,0,1,2.742.324,20.3,20.3,0,0,1,2.584.757,20.6,20.6,0,0,1,2.466,1.083A12.539,12.539,0,0,1,1026.242,654.719Z" transform="translate(-935.771 -499.714)" fill="#e0caef"/>
          <path id="Path_734" data-name="Path 734" d="M969.717,634.146a12.562,12.562,0,0,1-2.741-.326,20.7,20.7,0,0,1-2.584-.755,20.306,20.306,0,0,1-2.466-1.081,12.385,12.385,0,0,1-2.308-1.514,12.388,12.388,0,0,1,2.742.323,20.317,20.317,0,0,1,2.584.757,20.667,20.667,0,0,1,2.465,1.083A12.529,12.529,0,0,1,969.717,634.146Z" transform="translate(-901.97 -487.411)" fill="#e0caef"/>
          <path id="Path_735" data-name="Path 735" d="M924.989,617.828a8.371,8.371,0,0,1-2.236-.141,13.261,13.261,0,0,1-2.08-.572,13.084,13.084,0,0,1-1.961-.9,8.3,8.3,0,0,1-1.8-1.331,8.291,8.291,0,0,1,2.237.14,13.054,13.054,0,0,1,2.079.573,13.287,13.287,0,0,1,1.96.9A8.4,8.4,0,0,1,924.989,617.828Z" transform="translate(-876.431 -478.078)" fill="#e0caef"/>
          <path id="Path_736" data-name="Path 736" d="M887.034,603.713a2.9,2.9,0,0,1-1.226.226,3.448,3.448,0,0,1-1.069-.2,3.373,3.373,0,0,1-.951-.529.724.724,0,1,1,.433-1.191,3.385,3.385,0,0,1,1.069.206,3.432,3.432,0,0,1,.95.531A2.9,2.9,0,0,1,887.034,603.713Z" transform="translate(-856.151 -470.395)" fill="#e0caef"/>
          <path id="Path_737" data-name="Path 737" d="M866.936,596.4a2.9,2.9,0,0,1-1.226.226,3.447,3.447,0,0,1-1.069-.2,3.37,3.37,0,0,1-.951-.529.724.724,0,1,1,.434-1.191,3.385,3.385,0,0,1,1.069.206,3.436,3.436,0,0,1,.95.531A2.905,2.905,0,0,1,866.936,596.4Z" transform="translate(-844.132 -466.021)" fill="#e0caef"/>
          <path id="Path_738" data-name="Path 738" d="M847.33,588.942a1.688,1.688,0,0,1-.721.41.975.975,0,0,1-.564-.02.954.954,0,0,1-.446-.346.642.642,0,0,1,.434-1.191.956.956,0,0,1,.564.022.973.973,0,0,1,.445.348A1.682,1.682,0,0,1,847.33,588.942Z" transform="translate(-833.616 -461.874)" fill="#e0caef"/>
          <path id="Path_739" data-name="Path 739" d="M1133.208,751.3a43.28,43.28,0,0,1-5.225.627c-1.741.128-3.483.176-5.225.179s-3.483-.049-5.225-.177a42.792,42.792,0,0,1-5.225-.629,42.78,42.78,0,0,1,5.225-.629c1.741-.127,3.483-.176,5.225-.177s3.483.051,5.225.179A43.281,43.281,0,0,1,1133.208,751.3Z" transform="translate(-993.276 -559.185)" fill="#e0caef"/>
          <path id="Path_740" data-name="Path 740" d="M1064.66,751.3a22.2,22.2,0,0,1-3.627.631c-1.209.118-2.418.173-3.627.174s-2.418-.054-3.627-.172a21.918,21.918,0,0,1-3.627-.634,21.892,21.892,0,0,1,3.627-.634q1.814-.177,3.627-.172c1.209,0,2.418.056,3.627.174A22.2,22.2,0,0,1,1064.66,751.3Z" transform="translate(-956.107 -559.185)" fill="#e0caef"/>
          <path id="Path_741" data-name="Path 741" d="M1008.765,751.3a12.513,12.513,0,0,1-2.687.631,20.706,20.706,0,0,1-2.687.174,20.379,20.379,0,0,1-2.687-.172,12.409,12.409,0,0,1-2.687-.634,12.4,12.4,0,0,1,2.687-.634,20.306,20.306,0,0,1,2.687-.172,20.641,20.641,0,0,1,2.687.174A12.539,12.539,0,0,1,1008.765,751.3Z" transform="translate(-924.932 -559.185)" fill="#e0caef"/>
          <path id="Path_742" data-name="Path 742" d="M948.612,751.3a12.511,12.511,0,0,1-2.687.631,20.706,20.706,0,0,1-2.687.174,20.38,20.38,0,0,1-2.687-.172,12.407,12.407,0,0,1-2.687-.634,12.4,12.4,0,0,1,2.687-.634,20.306,20.306,0,0,1,2.687-.172,20.641,20.641,0,0,1,2.687.174A12.537,12.537,0,0,1,948.612,751.3Z" transform="translate(-888.962 -559.185)" fill="#e0caef"/>
          <path id="Path_743" data-name="Path 743" d="M901.013,751.3a8.369,8.369,0,0,1-2.15.631,13.3,13.3,0,0,1-2.15.174,13.1,13.1,0,0,1-2.15-.172,8.313,8.313,0,0,1-2.15-.634,8.308,8.308,0,0,1,2.15-.634,13.05,13.05,0,0,1,2.15-.172,13.262,13.262,0,0,1,2.15.174A8.387,8.387,0,0,1,901.013,751.3Z" transform="translate(-861.784 -559.185)" fill="#e0caef"/>
          <path id="Path_744" data-name="Path 744" d="M860.623,751.3a2.9,2.9,0,0,1-1.075.631,3.44,3.44,0,0,1-1.075.174,3.383,3.383,0,0,1-1.075-.172.724.724,0,1,1,0-1.268,3.371,3.371,0,0,1,1.075-.172,3.429,3.429,0,0,1,1.075.174A2.905,2.905,0,0,1,860.623,751.3Z" transform="translate(-840.202 -559.185)" fill="#e0caef"/>
          <path id="Path_745" data-name="Path 745" d="M839.235,751.3a2.892,2.892,0,0,1-1.075.631,3.441,3.441,0,0,1-1.075.174,3.386,3.386,0,0,1-1.075-.172.724.724,0,1,1,0-1.268,3.374,3.374,0,0,1,1.075-.172,3.429,3.429,0,0,1,1.075.174A2.9,2.9,0,0,1,839.235,751.3Z" transform="translate(-827.413 -559.185)" fill="#e0caef"/>
          <path id="Path_746" data-name="Path 746" d="M818.372,751.3a1.681,1.681,0,0,1-.537.631.975.975,0,0,1-.537.174.957.957,0,0,1-.538-.172.643.643,0,0,1,0-1.268.954.954,0,0,1,.538-.172.971.971,0,0,1,.537.174A1.686,1.686,0,0,1,818.372,751.3Z" transform="translate(-816.222 -559.185)" fill="#e0caef"/>
          <path id="Path_747" data-name="Path 747" d="M1142.722,797.166a43.321,43.321,0,0,1-4.7,2.376c-1.593.716-3.213,1.357-4.848,1.955s-3.29,1.145-4.97,1.621a42.824,42.824,0,0,1-5.125,1.2,42.87,42.87,0,0,1,4.695-2.378c1.593-.716,3.213-1.356,4.849-1.953s3.291-1.144,4.971-1.619A43.226,43.226,0,0,1,1142.722,797.166Z" transform="translate(-999.72 -587.093)" fill="#e0caef"/>
          <path id="Path_748" data-name="Path 748" d="M1078.308,823.862a22.172,22.172,0,0,1-3.192,1.834q-1.644.787-3.349,1.4t-3.467,1.079a21.842,21.842,0,0,1-3.625.645,21.92,21.92,0,0,1,3.192-1.836q1.643-.786,3.35-1.4c1.136-.413,2.291-.774,3.468-1.077A22.183,22.183,0,0,1,1078.308,823.862Z" transform="translate(-964.792 -603.057)" fill="#e0caef"/>
          <path id="Path_749" data-name="Path 749" d="M1025.785,844.892a12.535,12.535,0,0,1-2.309,1.513,20.671,20.671,0,0,1-2.465,1.083,20.3,20.3,0,0,1-2.584.757,12.383,12.383,0,0,1-2.742.323,12.412,12.412,0,0,1,2.308-1.514,20.3,20.3,0,0,1,2.466-1.081,20.684,20.684,0,0,1,2.585-.755A12.55,12.55,0,0,1,1025.785,844.892Z" transform="translate(-935.497 -615.632)" fill="#e0caef"/>
          <path id="Path_750" data-name="Path 750" d="M969.259,865.466a12.528,12.528,0,0,1-2.309,1.513,20.7,20.7,0,0,1-2.465,1.083,20.314,20.314,0,0,1-2.584.757,12.388,12.388,0,0,1-2.742.323,12.392,12.392,0,0,1,2.308-1.515,20.3,20.3,0,0,1,2.466-1.081,20.669,20.669,0,0,1,2.584-.755A12.539,12.539,0,0,1,969.259,865.466Z" transform="translate(-901.697 -627.935)" fill="#e0caef"/>
          <path id="Path_751" data-name="Path 751" d="M924.532,882.8a8.4,8.4,0,0,1-1.8,1.329,13.257,13.257,0,0,1-1.961.9,13,13,0,0,1-2.078.574,8.294,8.294,0,0,1-2.237.14,8.291,8.291,0,0,1,1.8-1.331,13.061,13.061,0,0,1,1.961-.9,13.357,13.357,0,0,1,2.08-.572A8.409,8.409,0,0,1,924.532,882.8Z" transform="translate(-876.158 -638.287)" fill="#e0caef"/>
          <path id="Path_752" data-name="Path 752" d="M886.577,898.5a2.905,2.905,0,0,1-.794.961,3.439,3.439,0,0,1-.95.531,3.377,3.377,0,0,1-1.069.206.724.724,0,1,1-.433-1.191,3.37,3.37,0,0,1,.951-.529,3.424,3.424,0,0,1,1.069-.2A2.9,2.9,0,0,1,886.577,898.5Z" transform="translate(-855.877 -647.556)" fill="#e0caef"/>
          <path id="Path_753" data-name="Path 753" d="M866.479,905.819a2.907,2.907,0,0,1-.794.961,3.432,3.432,0,0,1-.95.531,3.368,3.368,0,0,1-1.069.206.724.724,0,1,1-.433-1.192,3.38,3.38,0,0,1,.951-.529,3.424,3.424,0,0,1,1.069-.2A2.9,2.9,0,0,1,866.479,905.819Z" transform="translate(-843.859 -651.93)" fill="#e0caef"/>
          <path id="Path_754" data-name="Path 754" d="M846.873,913.728a1.687,1.687,0,0,1-.289.777.968.968,0,0,1-.445.347.948.948,0,0,1-.564.022.642.642,0,0,1-.434-1.191.951.951,0,0,1,.446-.345.973.973,0,0,1,.564-.02A1.692,1.692,0,0,1,846.873,913.728Z" transform="translate(-833.343 -656.531)" fill="#e0caef"/>
          <path id="Path_755" data-name="Path 755" d="M1170.577,836.525a43.237,43.237,0,0,1-3.6,3.839c-1.252,1.218-2.555,2.374-3.888,3.5s-2.7,2.2-4.116,3.223a42.877,42.877,0,0,1-4.407,2.876,42.8,42.8,0,0,1,3.6-3.84c1.252-1.217,2.555-2.374,3.889-3.494s2.7-2.2,4.117-3.221A43.338,43.338,0,0,1,1170.577,836.525Z" transform="translate(-1018.547 -610.629)" fill="#e0caef"/>
          <path id="Path_756" data-name="Path 756" d="M1118.066,886.7a22.177,22.177,0,0,1-2.373,2.815q-1.275,1.3-2.667,2.465t-2.889,2.2a21.853,21.853,0,0,1-3.186,1.846,21.89,21.89,0,0,1,2.371-2.817q1.276-1.3,2.668-2.464t2.891-2.2A22.146,22.146,0,0,1,1118.066,886.7Z" transform="translate(-990.073 -640.631)" fill="#e0caef"/>
          <path id="Path_757" data-name="Path 757" d="M1075.248,926.222a12.528,12.528,0,0,1-1.652,2.211,20.672,20.672,0,0,1-1.946,1.861,20.376,20.376,0,0,1-2.169,1.6,12.4,12.4,0,0,1-2.466,1.242,12.384,12.384,0,0,1,1.651-2.213,20.286,20.286,0,0,1,1.948-1.859,20.632,20.632,0,0,1,2.17-1.594A12.537,12.537,0,0,1,1075.248,926.222Z" transform="translate(-966.192 -664.266)" fill="#e0caef"/>
          <path id="Path_758" data-name="Path 758" d="M1029.168,964.887a12.529,12.529,0,0,1-1.652,2.211,20.592,20.592,0,0,1-1.946,1.86,20.321,20.321,0,0,1-2.169,1.6,12.379,12.379,0,0,1-2.466,1.241,12.384,12.384,0,0,1,1.651-2.213,20.341,20.341,0,0,1,1.948-1.859,20.709,20.709,0,0,1,2.17-1.594A12.561,12.561,0,0,1,1029.168,964.887Z" transform="translate(-938.637 -687.387)" fill="#e0caef"/>
          <path id="Path_759" data-name="Path 759" d="M992.706,997.538a8.388,8.388,0,0,1-1.241,1.866,13.283,13.283,0,0,1-1.535,1.515,13.057,13.057,0,0,1-1.757,1.25,8.294,8.294,0,0,1-2.054.9,8.3,8.3,0,0,1,1.239-1.867,13.052,13.052,0,0,1,1.536-1.513,13.276,13.276,0,0,1,1.758-1.248A8.4,8.4,0,0,1,992.706,997.538Z" transform="translate(-917.818 -706.912)" fill="#e0caef"/>
          <path id="Path_760" data-name="Path 760" d="M961.764,1027.606a2.9,2.9,0,0,1-.417,1.175,3.432,3.432,0,0,1-.711.824,3.387,3.387,0,0,1-.934.559.724.724,0,1,1-.815-.971,3.37,3.37,0,0,1,.713-.823,3.432,3.432,0,0,1,.935-.557A2.9,2.9,0,0,1,961.764,1027.606Z" transform="translate(-901.285 -724.89)" fill="#e0caef"/>
          <path id="Path_761" data-name="Path 761" d="M945.381,1041.353a2.9,2.9,0,0,1-.417,1.175,3.431,3.431,0,0,1-.711.824,3.372,3.372,0,0,1-.934.559.724.724,0,1,1-.815-.971,3.369,3.369,0,0,1,.713-.823,3.437,3.437,0,0,1,.935-.558A2.9,2.9,0,0,1,945.381,1041.353Z" transform="translate(-891.488 -733.11)" fill="#e0caef"/>
          <path id="Path_762" data-name="Path 762" d="M929.325,1056.61a1.688,1.688,0,0,1-.006.829.975.975,0,0,1-.3.479.953.953,0,0,1-.522.214.643.643,0,0,1-.815-.971.952.952,0,0,1,.3-.477.97.97,0,0,1,.524-.212A1.687,1.687,0,0,1,929.325,1056.61Z" transform="translate(-882.841 -742.149)" fill="#e0caef"/>
          <path id="Path_763" data-name="Path 763" d="M1213.411,865.831a43.3,43.3,0,0,1-2.07,4.838c-.76,1.573-1.589,3.1-2.457,4.615s-1.784,2.992-2.766,4.436a42.789,42.789,0,0,1-3.157,4.211,42.7,42.7,0,0,1,2.068-4.84c.76-1.572,1.589-3.1,2.459-4.613s1.786-2.991,2.767-4.435A43.358,43.358,0,0,1,1213.411,865.831Z" transform="translate(-1047.485 -628.153)" fill="#e0caef"/>
          <path id="Path_764" data-name="Path 764" d="M1179.137,933.427a22.13,22.13,0,0,1-1.267,3.457q-.753,1.659-1.663,3.229t-1.963,3.055a21.907,21.907,0,0,1-2.363,2.825,21.885,21.885,0,0,1,1.265-3.458q.754-1.659,1.665-3.227c.606-1.047,1.258-2.066,1.965-3.055A22.181,22.181,0,0,1,1179.137,933.427Z" transform="translate(-1028.901 -668.575)" fill="#e0caef"/>
          <path id="Path_765" data-name="Path 765" d="M1151.19,986.678a12.532,12.532,0,0,1-.8,2.643,20.618,20.618,0,0,1-1.193,2.414,20.3,20.3,0,0,1-1.492,2.241,12.393,12.393,0,0,1-1.892,2.01,12.392,12.392,0,0,1,.794-2.644,20.278,20.278,0,0,1,1.195-2.413,20.625,20.625,0,0,1,1.494-2.24A12.548,12.548,0,0,1,1151.19,986.678Z" transform="translate(-1013.314 -700.418)" fill="#e0caef"/>
          <path id="Path_766" data-name="Path 766" d="M1121.113,1038.772a12.567,12.567,0,0,1-.8,2.643,20.715,20.715,0,0,1-1.193,2.414,20.309,20.309,0,0,1-1.492,2.241,12.4,12.4,0,0,1-1.893,2.01,12.391,12.391,0,0,1,.795-2.644,20.225,20.225,0,0,1,1.194-2.413,20.729,20.729,0,0,1,1.494-2.24A12.535,12.535,0,0,1,1121.113,1038.772Z" transform="translate(-995.328 -731.569)" fill="#e0caef"/>
          <path id="Path_767" data-name="Path 767" d="M1097.314,1082.763a8.412,8.412,0,0,1-.528,2.177,13.266,13.266,0,0,1-.924,1.948,13.12,13.12,0,0,1-1.224,1.776,8.3,8.3,0,0,1-1.624,1.545,8.292,8.292,0,0,1,.526-2.179,13.037,13.037,0,0,1,.926-1.947,13.247,13.247,0,0,1,1.226-1.775A8.381,8.381,0,0,1,1097.314,1082.763Z" transform="translate(-981.74 -757.875)" fill="#e0caef"/>
          <path id="Path_768" data-name="Path 768" d="M1459.28,1039.441a12.542,12.542,0,0,1,1.89,2.011,20.666,20.666,0,0,1,1.494,2.24,20.238,20.238,0,0,1,1.194,2.413,12.389,12.389,0,0,1,.795,2.644,12.4,12.4,0,0,1-1.892-2.01,20.25,20.25,0,0,1-1.493-2.241,20.6,20.6,0,0,1-1.192-2.414A12.521,12.521,0,0,1,1459.28,1039.441Z" transform="translate(-1200.76 -731.969)" fill="#e0caef"/>
          <path id="Path_769" data-name="Path 769" d="M1484.677,1083.431a8.408,8.408,0,0,1,1.622,1.546,13.254,13.254,0,0,1,1.225,1.775,13.032,13.032,0,0,1,.926,1.948,1.168,1.168,0,1,1-1.1.634,13.044,13.044,0,0,1-1.224-1.776,13.317,13.317,0,0,1-.924-1.948A8.4,8.4,0,0,1,1484.677,1083.431Z" transform="translate(-1215.947 -758.275)" fill="#e0caef"/>
          <path id="Path_770" data-name="Path 770" d="M1507.962,1123.949a2.908,2.908,0,0,1,1.085.615,3.445,3.445,0,0,1,.688.844,3.375,3.375,0,0,1,.388,1.017.724.724,0,1,1-1.1.634,3.38,3.38,0,0,1-.686-.844,3.437,3.437,0,0,1-.387-1.018A2.908,2.908,0,0,1,1507.962,1123.949Z" transform="translate(-1229.827 -782.504)" fill="#e0caef"/>
          <path id="Path_771" data-name="Path 771" d="M1518.656,1142.471a2.9,2.9,0,0,1,1.085.615,3.435,3.435,0,0,1,.688.843,3.368,3.368,0,0,1,.388,1.017.724.724,0,1,1-1.1.634,3.362,3.362,0,0,1-.686-.845,3.435,3.435,0,0,1-.387-1.018A2.9,2.9,0,0,1,1518.656,1142.471Z" transform="translate(-1236.222 -793.579)" fill="#e0caef"/>
          <path id="Path_772" data-name="Path 772" d="M1454.086,887.721a22.208,22.208,0,0,1,3.185,1.848q1.5,1.03,2.891,2.2t2.668,2.464a21.915,21.915,0,0,1,2.371,2.817,21.847,21.847,0,0,1-3.186-1.846q-1.5-1.03-2.889-2.2t-2.667-2.465A22.138,22.138,0,0,1,1454.086,887.721Z" transform="translate(-1197.654 -641.243)" fill="#e0caef"/>
          <path id="Path_773" data-name="Path 773" d="M1501.19,927.246a12.523,12.523,0,0,1,2.464,1.243,20.641,20.641,0,0,1,2.171,1.594,20.258,20.258,0,0,1,1.948,1.859,12.385,12.385,0,0,1,1.651,2.213,12.4,12.4,0,0,1-2.466-1.242,20.344,20.344,0,0,1-2.169-1.6,20.679,20.679,0,0,1-1.946-1.861A12.544,12.544,0,0,1,1501.19,927.246Z" transform="translate(-1225.821 -664.879)" fill="#e0caef"/>
          <path id="Path_774" data-name="Path 774" d="M1547.269,965.912a12.514,12.514,0,0,1,2.464,1.243,20.692,20.692,0,0,1,2.17,1.594,20.374,20.374,0,0,1,1.948,1.859,12.388,12.388,0,0,1,1.651,2.213,12.383,12.383,0,0,1-2.466-1.241,20.234,20.234,0,0,1-2.169-1.6,20.665,20.665,0,0,1-1.947-1.861A12.558,12.558,0,0,1,1547.269,965.912Z" transform="translate(-1253.376 -688)" fill="#e0caef"/>
          <path id="Path_775" data-name="Path 775" d="M1586.181,998.562a8.377,8.377,0,0,1,2.053.9,13.241,13.241,0,0,1,1.759,1.248,13.077,13.077,0,0,1,1.536,1.513,8.3,8.3,0,0,1,1.239,1.867,8.286,8.286,0,0,1-2.054-.9,13.062,13.062,0,0,1-1.757-1.25,13.306,13.306,0,0,1-1.535-1.515A8.4,8.4,0,0,1,1586.181,998.562Z" transform="translate(-1276.644 -707.524)" fill="#e0caef"/>
          <path id="Path_776" data-name="Path 776" d="M1622.021,1028.63a2.906,2.906,0,0,1,1.229.207,3.441,3.441,0,0,1,.936.558,3.375,3.375,0,0,1,.713.822.724.724,0,1,1-.815.971,3.376,3.376,0,0,1-.934-.559,3.43,3.43,0,0,1-.712-.824A2.9,2.9,0,0,1,1622.021,1028.63Z" transform="translate(-1298.076 -725.502)" fill="#e0caef"/>
          <path id="Path_777" data-name="Path 777" d="M1638.405,1042.377a2.9,2.9,0,0,1,1.229.207,3.442,3.442,0,0,1,.936.558,3.365,3.365,0,0,1,.712.823.724.724,0,1,1-.815.971,3.368,3.368,0,0,1-.934-.559,3.432,3.432,0,0,1-.711-.824A2.9,2.9,0,0,1,1638.405,1042.377Z" transform="translate(-1307.874 -733.723)" fill="#e0caef"/>
          <path id="Path_778" data-name="Path 778" d="M1656.765,1057.634a1.683,1.683,0,0,1,.818-.139.976.976,0,0,1,.524.212.954.954,0,0,1,.3.478.642.642,0,0,1-.815.971.957.957,0,0,1-.523-.214.976.976,0,0,1-.3-.479A1.681,1.681,0,0,1,1656.765,1057.634Z" transform="translate(-1318.824 -742.762)" fill="#e0caef"/>
          <path id="Path_779" data-name="Path 779" d="M1417.152,798.422a43.243,43.243,0,0,1,5.124,1.2c1.68.475,3.334,1.026,4.971,1.619s3.256,1.237,4.849,1.953a42.821,42.821,0,0,1,4.694,2.378,42.871,42.871,0,0,1-5.125-1.2c-1.68-.476-3.333-1.026-4.97-1.621s-3.256-1.239-4.848-1.955A43.212,43.212,0,0,1,1417.152,798.422Z" transform="translate(-1175.568 -587.844)" fill="#e0caef"/>
          <path id="Path_780" data-name="Path 780" d="M1490.5,825.118a22.15,22.15,0,0,1,3.625.647c1.177.3,2.332.664,3.468,1.077s2.254.878,3.349,1.4a21.878,21.878,0,0,1,3.192,1.836,21.868,21.868,0,0,1-3.625-.645q-1.765-.454-3.467-1.079c-1.136-.414-2.253-.88-3.349-1.4A22.176,22.176,0,0,1,1490.5,825.118Z" transform="translate(-1219.428 -603.808)" fill="#e0caef"/>
          <path id="Path_781" data-name="Path 781" d="M1548.279,846.149a12.538,12.538,0,0,1,2.741.325,20.68,20.68,0,0,1,2.584.755,20.3,20.3,0,0,1,2.466,1.081,12.407,12.407,0,0,1,2.308,1.514,12.383,12.383,0,0,1-2.741-.323,20.312,20.312,0,0,1-2.584-.757,20.7,20.7,0,0,1-2.466-1.083A12.558,12.558,0,0,1,1548.279,846.149Z" transform="translate(-1253.98 -616.383)" fill="#e0caef"/>
          <path id="Path_782" data-name="Path 782" d="M1604.8,866.722a12.533,12.533,0,0,1,2.741.326,20.626,20.626,0,0,1,2.585.755,20.26,20.26,0,0,1,2.466,1.081,12.365,12.365,0,0,1,2.308,1.514,12.387,12.387,0,0,1-2.742-.323,20.3,20.3,0,0,1-2.584-.757,20.62,20.62,0,0,1-2.465-1.083A12.529,12.529,0,0,1,1604.8,866.722Z" transform="translate(-1287.781 -628.686)" fill="#e0caef"/>
          <path id="Path_783" data-name="Path 783" d="M1652.537,884.058a8.392,8.392,0,0,1,2.236.142,13.29,13.29,0,0,1,2.079.571,13.08,13.08,0,0,1,1.961.9,8.289,8.289,0,0,1,1.8,1.331,8.289,8.289,0,0,1-2.237-.14,13.052,13.052,0,0,1-2.079-.573,13.286,13.286,0,0,1-1.96-.9A8.387,8.387,0,0,1,1652.537,884.058Z" transform="translate(-1316.324 -639.038)" fill="#e0caef"/>
          <path id="Path_784" data-name="Path 784" d="M1696.5,899.76a2.9,2.9,0,0,1,1.226-.226,3.425,3.425,0,0,1,1.07.2,3.377,3.377,0,0,1,.951.529.724.724,0,1,1-.434,1.191,3.367,3.367,0,0,1-1.069-.206,3.42,3.42,0,0,1-.95-.531A2.905,2.905,0,0,1,1696.5,899.76Z" transform="translate(-1342.614 -648.307)" fill="#e0caef"/>
          <path id="Path_785" data-name="Path 785" d="M1716.6,907.075a2.9,2.9,0,0,1,1.226-.226,3.436,3.436,0,0,1,1.07.2,3.373,3.373,0,0,1,.951.529.724.724,0,1,1-.434,1.191,3.371,3.371,0,0,1-1.068-.206,3.43,3.43,0,0,1-.95-.531A2.893,2.893,0,0,1,1716.6,907.075Z" transform="translate(-1354.632 -652.681)" fill="#e0caef"/>
          <path id="Path_786" data-name="Path 786" d="M1739.209,914.984a1.687,1.687,0,0,1,.721-.41.973.973,0,0,1,.565.02.955.955,0,0,1,.446.346.642.642,0,0,1-.433,1.191.952.952,0,0,1-.564-.022.976.976,0,0,1-.446-.348A1.688,1.688,0,0,1,1739.209,914.984Z" transform="translate(-1368.153 -657.282)" fill="#e0caef"/>
          <path id="Path_787" data-name="Path 787" d="M1425.249,752.638a43.265,43.265,0,0,1,5.225-.627c1.742-.128,3.483-.176,5.225-.179s3.483.049,5.225.177a42.784,42.784,0,0,1,5.225.629,42.808,42.808,0,0,1-5.225.629c-1.741.127-3.483.176-5.225.176s-3.484-.051-5.225-.179A43.2,43.2,0,0,1,1425.249,752.638Z" transform="translate(-1180.41 -559.984)" fill="#e0caef"/>
          <path id="Path_788" data-name="Path 788" d="M1503.3,752.638a22.18,22.18,0,0,1,3.627-.632c1.209-.119,2.418-.173,3.627-.174s2.418.054,3.627.172a21.905,21.905,0,0,1,3.627.634,21.859,21.859,0,0,1-3.627.634q-1.814.177-3.627.172c-1.209,0-2.418-.056-3.627-.174A22.187,22.187,0,0,1,1503.3,752.638Z" transform="translate(-1227.084 -559.984)" fill="#e0caef"/>
          <path id="Path_789" data-name="Path 789" d="M1564.792,752.638a12.519,12.519,0,0,1,2.687-.632,20.636,20.636,0,0,1,2.687-.174,20.316,20.316,0,0,1,2.687.172,12.371,12.371,0,0,1,2.687.634,12.37,12.37,0,0,1-2.687.634,20.243,20.243,0,0,1-2.687.172,20.646,20.646,0,0,1-2.687-.174A12.54,12.54,0,0,1,1564.792,752.638Z" transform="translate(-1263.854 -559.984)" fill="#e0caef"/>
          <path id="Path_790" data-name="Path 790" d="M1624.945,752.638a12.515,12.515,0,0,1,2.687-.632,20.645,20.645,0,0,1,2.687-.174,20.316,20.316,0,0,1,2.687.172,12.372,12.372,0,0,1,2.687.634,12.37,12.37,0,0,1-2.687.634,20.244,20.244,0,0,1-2.687.172,20.655,20.655,0,0,1-2.687-.174A12.536,12.536,0,0,1,1624.945,752.638Z" transform="translate(-1299.825 -559.984)" fill="#e0caef"/>
          <path id="Path_791" data-name="Path 791" d="M1675.741,752.638a8.375,8.375,0,0,1,2.149-.632,13.27,13.27,0,0,1,2.149-.174,13.05,13.05,0,0,1,2.15.172,8.283,8.283,0,0,1,2.15.634,8.281,8.281,0,0,1-2.15.634,13,13,0,0,1-2.15.172,13.276,13.276,0,0,1-2.149-.174A8.389,8.389,0,0,1,1675.741,752.638Z" transform="translate(-1330.2 -559.984)" fill="#e0caef"/>
          <path id="Path_792" data-name="Path 792" d="M1722.526,752.638a2.9,2.9,0,0,1,1.075-.632,3.428,3.428,0,0,1,1.074-.174,3.375,3.375,0,0,1,1.075.172.724.724,0,1,1,0,1.268,3.363,3.363,0,0,1-1.075.172,3.429,3.429,0,0,1-1.074-.174A2.9,2.9,0,0,1,1722.526,752.638Z" transform="translate(-1358.177 -559.984)" fill="#e0caef"/>
          <path id="Path_793" data-name="Path 793" d="M1743.914,752.638a2.9,2.9,0,0,1,1.075-.632,3.434,3.434,0,0,1,1.075-.174,3.372,3.372,0,0,1,1.075.172.724.724,0,1,1,0,1.268,3.36,3.36,0,0,1-1.075.172,3.435,3.435,0,0,1-1.075-.174A2.9,2.9,0,0,1,1743.914,752.638Z" transform="translate(-1370.966 -559.984)" fill="#e0caef"/>
          <path id="Path_794" data-name="Path 794" d="M1767.975,752.638a1.685,1.685,0,0,1,.537-.632.971.971,0,0,1,.538-.174.953.953,0,0,1,.537.172.642.642,0,0,1,0,1.268.949.949,0,0,1-.537.172.971.971,0,0,1-.538-.174A1.687,1.687,0,0,1,1767.975,752.638Z" transform="translate(-1385.354 -559.984)" fill="#e0caef"/>
          <path id="Path_795" data-name="Path 795" d="M1417.609,698.538a43.221,43.221,0,0,1,4.7-2.376c1.593-.716,3.213-1.357,4.848-1.955s3.29-1.145,4.97-1.621a42.737,42.737,0,0,1,5.125-1.2,42.893,42.893,0,0,1-4.695,2.378c-1.593.716-3.213,1.356-4.849,1.953s-3.291,1.143-4.971,1.619A43.256,43.256,0,0,1,1417.609,698.538Z" transform="translate(-1175.841 -523.841)" fill="#e0caef"/>
          <path id="Path_796" data-name="Path 796" d="M1490.955,675.093a22.19,22.19,0,0,1,3.193-1.834c1.1-.525,2.213-.99,3.349-1.4s2.291-.776,3.467-1.079a21.876,21.876,0,0,1,3.625-.645,21.865,21.865,0,0,1-3.192,1.836q-1.643.787-3.35,1.4c-1.137.413-2.292.775-3.468,1.077A22.189,22.189,0,0,1,1490.955,675.093Z" transform="translate(-1219.701 -511.128)" fill="#e0caef"/>
          <path id="Path_797" data-name="Path 797" d="M1548.736,655.975a12.568,12.568,0,0,1,2.309-1.512,20.7,20.7,0,0,1,2.466-1.083,20.3,20.3,0,0,1,2.584-.757,12.4,12.4,0,0,1,2.742-.324,12.4,12.4,0,0,1-2.308,1.515,20.264,20.264,0,0,1-2.466,1.081,20.659,20.659,0,0,1-2.584.755A12.536,12.536,0,0,1,1548.736,655.975Z" transform="translate(-1254.253 -500.465)" fill="#e0caef"/>
          <path id="Path_798" data-name="Path 798" d="M1605.262,635.4a12.525,12.525,0,0,1,2.309-1.513,20.665,20.665,0,0,1,2.465-1.083,20.32,20.32,0,0,1,2.584-.757,12.387,12.387,0,0,1,2.742-.323,12.372,12.372,0,0,1-2.308,1.514,20.281,20.281,0,0,1-2.466,1.081,20.674,20.674,0,0,1-2.585.755A12.551,12.551,0,0,1,1605.262,635.4Z" transform="translate(-1288.055 -488.163)" fill="#e0caef"/>
          <path id="Path_799" data-name="Path 799" d="M1652.994,619.085a8.4,8.4,0,0,1,1.8-1.329,13.286,13.286,0,0,1,1.96-.9,13.047,13.047,0,0,1,2.079-.573,8.29,8.29,0,0,1,2.237-.14,8.291,8.291,0,0,1-1.8,1.331,13.081,13.081,0,0,1-1.961.9,13.287,13.287,0,0,1-2.079.571A8.392,8.392,0,0,1,1652.994,619.085Z" transform="translate(-1316.597 -478.829)" fill="#e0caef"/>
          <path id="Path_800" data-name="Path 800" d="M1696.958,604.969a2.9,2.9,0,0,1,.794-.961,3.443,3.443,0,0,1,.95-.531,3.381,3.381,0,0,1,1.069-.206.724.724,0,1,1,.433,1.191,3.369,3.369,0,0,1-.951.529,3.446,3.446,0,0,1-1.069.2A2.9,2.9,0,0,1,1696.958,604.969Z" transform="translate(-1342.887 -471.146)" fill="#e0caef"/>
          <path id="Path_801" data-name="Path 801" d="M1717.056,597.654a2.9,2.9,0,0,1,.794-.961,3.421,3.421,0,0,1,.95-.531,3.371,3.371,0,0,1,1.069-.206.724.724,0,1,1,.434,1.191,3.377,3.377,0,0,1-.951.529,3.446,3.446,0,0,1-1.07.2A2.9,2.9,0,0,1,1717.056,597.654Z" transform="translate(-1354.906 -466.772)" fill="#e0caef"/>
          <path id="Path_802" data-name="Path 802" d="M1739.666,590.2a1.683,1.683,0,0,1,.289-.777.969.969,0,0,1,.446-.347.952.952,0,0,1,.563-.023.643.643,0,0,1,.434,1.191.956.956,0,0,1-.446.346.974.974,0,0,1-.565.02A1.685,1.685,0,0,1,1739.666,590.2Z" transform="translate(-1368.426 -462.625)" fill="#e0caef"/>
          <path id="Path_803" data-name="Path 803" d="M1395.153,649.829a43.327,43.327,0,0,1,3.6-3.838c1.252-1.218,2.555-2.374,3.888-3.5s2.7-2.2,4.116-3.223a42.824,42.824,0,0,1,4.407-2.876,42.82,42.82,0,0,1-3.6,3.84c-1.252,1.217-2.555,2.374-3.889,3.494s-2.7,2.2-4.118,3.221A43.242,43.242,0,0,1,1395.153,649.829Z" transform="translate(-1162.413 -490.955)" fill="#e0caef"/>
          <path id="Path_804" data-name="Path 804" d="M1454.945,605.767a22.205,22.205,0,0,1,2.373-2.816q1.276-1.3,2.667-2.465t2.889-2.2a21.874,21.874,0,0,1,3.186-1.846,21.89,21.89,0,0,1-2.371,2.817q-1.276,1.3-2.668,2.464t-2.891,2.2A22.182,22.182,0,0,1,1454.945,605.767Z" transform="translate(-1198.168 -467.062)" fill="#e0caef"/>
          <path id="Path_805" data-name="Path 805" d="M1502.049,569.839a12.533,12.533,0,0,1,1.652-2.211,20.678,20.678,0,0,1,1.946-1.861,20.376,20.376,0,0,1,2.169-1.6,12.4,12.4,0,0,1,2.466-1.242,12.382,12.382,0,0,1-1.651,2.213,20.3,20.3,0,0,1-1.948,1.859,20.666,20.666,0,0,1-2.17,1.594A12.525,12.525,0,0,1,1502.049,569.839Z" transform="translate(-1226.335 -447.024)" fill="#e0caef"/>
          <path id="Path_806" data-name="Path 806" d="M1548.129,531.173a12.536,12.536,0,0,1,1.652-2.211,20.586,20.586,0,0,1,1.946-1.861,20.307,20.307,0,0,1,2.169-1.6,12.387,12.387,0,0,1,2.466-1.241,12.393,12.393,0,0,1-1.651,2.213,20.3,20.3,0,0,1-1.948,1.859,20.723,20.723,0,0,1-2.17,1.594A12.531,12.531,0,0,1,1548.129,531.173Z" transform="translate(-1253.89 -423.903)" fill="#e0caef"/>
          <path id="Path_807" data-name="Path 807" d="M1587.04,500.578a8.393,8.393,0,0,1,1.241-1.865,13.269,13.269,0,0,1,1.535-1.515,13.022,13.022,0,0,1,1.757-1.25,8.286,8.286,0,0,1,2.054-.9,8.292,8.292,0,0,1-1.239,1.867,13.071,13.071,0,0,1-1.536,1.514,13.259,13.259,0,0,1-1.759,1.248A8.386,8.386,0,0,1,1587.04,500.578Z" transform="translate(-1277.158 -406.433)" fill="#e0caef"/>
          <path id="Path_808" data-name="Path 808" d="M1622.88,474.608a2.906,2.906,0,0,1,.417-1.175,3.435,3.435,0,0,1,.712-.824,3.365,3.365,0,0,1,.934-.559.724.724,0,1,1,.815.971,3.381,3.381,0,0,1-.713.823,3.426,3.426,0,0,1-.935.557A2.9,2.9,0,0,1,1622.88,474.608Z" transform="translate(-1298.59 -392.553)" fill="#e0caef"/>
          <path id="Path_809" data-name="Path 809" d="M1639.264,460.86a2.906,2.906,0,0,1,.417-1.175,3.431,3.431,0,0,1,.712-.824,3.367,3.367,0,0,1,.934-.559.724.724,0,1,1,.815.971,3.366,3.366,0,0,1-.713.823,3.44,3.44,0,0,1-.936.558A2.906,2.906,0,0,1,1639.264,460.86Z" transform="translate(-1308.387 -384.333)" fill="#e0caef"/>
          <path id="Path_810" data-name="Path 810" d="M1657.625,447.237a1.692,1.692,0,0,1,.006-.829.973.973,0,0,1,.3-.479.95.95,0,0,1,.522-.214.642.642,0,0,1,.815.971.954.954,0,0,1-.3.477.971.971,0,0,1-.524.212A1.69,1.69,0,0,1,1657.625,447.237Z" transform="translate(-1319.338 -376.928)" fill="#e0caef"/>
          <path id="Path_811" data-name="Path 811" d="M1360.589,613.584a43.284,43.284,0,0,1,2.07-4.838c.76-1.572,1.589-3.1,2.457-4.614s1.784-2.992,2.766-4.437a42.858,42.858,0,0,1,3.157-4.21,42.856,42.856,0,0,1-2.068,4.839c-.76,1.572-1.589,3.1-2.459,4.613s-1.786,2.991-2.767,4.435A43.313,43.313,0,0,1,1360.589,613.584Z" transform="translate(-1141.744 -466.491)" fill="#e0caef"/>
          <path id="Path_812" data-name="Path 812" d="M1399.616,554.219a22.163,22.163,0,0,1,1.267-3.457q.753-1.659,1.663-3.228t1.963-3.055a21.852,21.852,0,0,1,2.363-2.824,21.911,21.911,0,0,1-1.265,3.458q-.754,1.659-1.665,3.227t-1.965,3.055A22.2,22.2,0,0,1,1399.616,554.219Z" transform="translate(-1165.082 -434.301)" fill="#e0caef"/>
          <path id="Path_813" data-name="Path 813" d="M1430.361,505.814a12.527,12.527,0,0,1,.8-2.642,20.618,20.618,0,0,1,1.192-2.414,20.342,20.342,0,0,1,1.493-2.241,12.361,12.361,0,0,1,1.892-2.01,12.379,12.379,0,0,1-.794,2.644,20.307,20.307,0,0,1-1.195,2.413,20.651,20.651,0,0,1-1.494,2.24A12.529,12.529,0,0,1,1430.361,505.814Z" transform="translate(-1183.467 -407.303)" fill="#e0caef"/>
          <path id="Path_814" data-name="Path 814" d="M1460.437,453.72a12.56,12.56,0,0,1,.8-2.643,20.677,20.677,0,0,1,1.193-2.414,20.3,20.3,0,0,1,1.492-2.241,12.374,12.374,0,0,1,1.892-2.01,12.372,12.372,0,0,1-.794,2.644,20.3,20.3,0,0,1-1.194,2.413,20.717,20.717,0,0,1-1.494,2.24A12.539,12.539,0,0,1,1460.437,453.72Z" transform="translate(-1201.452 -376.152)" fill="#e0caef"/>
          <path id="Path_815" data-name="Path 815" d="M1485.835,412.5a8.406,8.406,0,0,1,.528-2.177,13.238,13.238,0,0,1,.924-1.949,13.013,13.013,0,0,1,1.224-1.776,8.292,8.292,0,0,1,1.624-1.545,8.308,8.308,0,0,1-.526,2.178,13.053,13.053,0,0,1-.926,1.947,13.233,13.233,0,0,1-1.226,1.775A8.389,8.389,0,0,1,1485.835,412.5Z" transform="translate(-1216.639 -352.615)" fill="#e0caef"/>
          <path id="Path_816" data-name="Path 816" d="M1509.12,377.518a2.905,2.905,0,0,1-.01-1.246,3.444,3.444,0,0,1,.386-1.018,3.373,3.373,0,0,1,.687-.845.724.724,0,1,1,1.1.634,3.372,3.372,0,0,1-.389,1.017,3.424,3.424,0,0,1-.688.844A2.9,2.9,0,0,1,1509.12,377.518Z" transform="translate(-1230.52 -333.924)" fill="#e0caef"/>
          <path id="Path_817" data-name="Path 817" d="M1519.814,359a2.9,2.9,0,0,1-.01-1.247,3.445,3.445,0,0,1,.386-1.018,3.374,3.374,0,0,1,.687-.845.724.724,0,1,1,1.1.634,3.376,3.376,0,0,1-.388,1.017,3.438,3.438,0,0,1-.688.844A2.906,2.906,0,0,1,1519.814,359Z" transform="translate(-1236.914 -322.848)" fill="#e0caef"/>
          <path id="Path_818" data-name="Path 818" d="M1531.535,340.925a1.69,1.69,0,0,1-.278-.782.971.971,0,0,1,.118-.552.954.954,0,0,1,.418-.379.643.643,0,0,1,1.1.634.952.952,0,0,1-.12.551.972.972,0,0,1-.42.379A1.688,1.688,0,0,1,1531.535,340.925Z" transform="translate(-1243.799 -313.155)" fill="#e0caef"/>
          <path id="Path_819" data-name="Path 819" d="M1318.082,594.175a43.217,43.217,0,0,1,.29-5.254c.176-1.737.431-3.461.731-5.177s.653-3.422,1.081-5.115a42.754,42.754,0,0,1,1.527-5.036,42.825,42.825,0,0,1-.288,5.254c-.177,1.737-.432,3.461-.733,5.176s-.655,3.422-1.084,5.114A43.316,43.316,0,0,1,1318.082,594.175Z" transform="translate(-1116.324 -453.4)" fill="#e0caef"/>
          <path id="Path_820" data-name="Path 820" d="M1331.531,526.668a22.153,22.153,0,0,1,.008-3.682c.093-1.211.249-2.412.458-3.6s.473-2.372.8-3.542a21.906,21.906,0,0,1,1.254-3.462,21.861,21.861,0,0,1-.005,3.682q-.141,1.817-.46,3.6c-.211,1.19-.475,2.371-.8,3.542A22.15,22.15,0,0,1,1331.531,526.668Z" transform="translate(-1124.324 -416.795)" fill="#e0caef"/>
          <path id="Path_821" data-name="Path 821" d="M1342.067,471.623a12.512,12.512,0,0,1-.156-2.756,20.641,20.641,0,0,1,.295-2.677,20.353,20.353,0,0,1,.636-2.616,12.376,12.376,0,0,1,1.091-2.536,12.387,12.387,0,0,1,.158,2.756,20.377,20.377,0,0,1-.3,2.676,20.681,20.681,0,0,1-.638,2.616A12.541,12.541,0,0,1,1342.067,471.623Z" transform="translate(-1130.567 -386.094)" fill="#e0caef"/>
          <path id="Path_822" data-name="Path 822" d="M1352.512,412.384a12.543,12.543,0,0,1-.156-2.756,20.813,20.813,0,0,1,.295-2.677,20.351,20.351,0,0,1,.636-2.616,12.4,12.4,0,0,1,1.091-2.536,12.38,12.38,0,0,1,.158,2.756,20.356,20.356,0,0,1-.3,2.676,20.7,20.7,0,0,1-.638,2.616A12.558,12.558,0,0,1,1352.512,412.384Z" transform="translate(-1136.813 -350.67)" fill="#e0caef"/>
          <path id="Path_823" data-name="Path 823" d="M1361.215,365.509a8.382,8.382,0,0,1-.249-2.227,13.249,13.249,0,0,1,.2-2.147,13.005,13.005,0,0,1,.543-2.087,8.279,8.279,0,0,1,1-2.007,8.3,8.3,0,0,1,.251,2.227,13.074,13.074,0,0,1-.2,2.147,13.272,13.272,0,0,1-.545,2.087A8.4,8.4,0,0,1,1361.215,365.509Z" transform="translate(-1141.97 -323.906)" fill="#e0caef"/>
          <path id="Path_824" data-name="Path 824" d="M1369.007,325.731a2.9,2.9,0,0,1-.435-1.168,3.438,3.438,0,0,1,.015-1.089,3.379,3.379,0,0,1,.356-1.029.724.724,0,1,1,1.248.22,3.364,3.364,0,0,1-.017,1.088,3.429,3.429,0,0,1-.358,1.028A2.9,2.9,0,0,1,1369.007,325.731Z" transform="translate(-1146.496 -302.651)" fill="#e0caef"/>
          <path id="Path_825" data-name="Path 825" d="M1372.721,304.669a2.9,2.9,0,0,1-.435-1.168,3.435,3.435,0,0,1,.015-1.089,3.376,3.376,0,0,1,.356-1.028.724.724,0,1,1,1.248.22,3.358,3.358,0,0,1-.017,1.088,3.421,3.421,0,0,1-.358,1.028A2.9,2.9,0,0,1,1372.721,304.669Z" transform="translate(-1148.717 -290.056)" fill="#e0caef"/>
          <path id="Path_826" data-name="Path 826" d="M1376.679,284.122a1.683,1.683,0,0,1-.529-.639.974.974,0,0,1-.078-.56.953.953,0,0,1,.263-.5.642.642,0,0,1,1.248.22.951.951,0,0,1,.076.559.972.972,0,0,1-.265.5A1.68,1.68,0,0,1,1376.679,284.122Z" transform="translate(-1150.995 -279.035)" fill="#e0caef"/>
        </g>
      </g>
      <path id="有獎徵答_白" d="M940,4626.369s180.892,178.013,71.346,387.324-331.85,185.056-500.2,196.982-282.277,58.49-371.283,111.894S-19.562,5494.914-19.562,5494.914V4626.369Z" transform="translate(0 54)" fill="#fff"/>
    </g>
  </g>
</svg>
