<svg xmlns="http://www.w3.org/2000/svg" width="1920" height="199.329" viewBox="0 0 1920 199.329">
  <path id="留才_下_" data-name="留才(下)" d="M-2005.791-84.515V-212.04c31.382-13.651,74.267-23.955,136-19.108,58.968,4.63,95.955,6.276,129.418-8.041s88.017-42.131,184.089-44.481,145.178,19.542,202.071,42.056,142.978,5.578,229.973,8.212,152.767,19.458,202.688,55.338c32.633,23.453,98.568,34.688,152.675,25.062,61.757-10.989,134.025-14.614,191.307,16.288,40.649,21.929,110.13,24.254,159.71-1.582,42.409-22.1,94.9-27.513,159.158-13.464,44.044,9.63,89.924,4.471,115.161-8.832,32.834-17.309,57.749-42.531,57.749-42.531V-84.515Z" transform="translate(2005.791 283.844)" fill="#ffdfd9"/>
</svg>
