<svg xmlns="http://www.w3.org/2000/svg" xmlns:xlink="http://www.w3.org/1999/xlink" width="1920" height="218.317" viewBox="0 0 1920 218.317">
  <defs>
    <radialGradient id="radial-gradient" cx="0.436" cy="-1.481" r="3.083" gradientUnits="objectBoundingBox">
      <stop offset="0" stop-color="#ffd2c9"/>
      <stop offset="0.217" stop-color="#ffebe8"/>
      <stop offset="1" stop-color="#ffccc2"/>
    </radialGradient>
  </defs>
  <path id="留才_上_" data-name="留才(上)" d="M1344.791,440.829c-39.792-16.306-93.475-14.306-152.006-12.3-29.318,1-59.853,2-90.466.706-91.727-3.891-160.889-22.474-213.09-60.957-34.121-25.156-103.525-37.849-160.72-28.386-65.282,10.8-141.557,13.7-201.585-19.624-42.6-23.65-115.855-26.988-168.482-.371-45.017,22.768-100.456,27.81-168.053,12.171a228.871,228.871,0,0,0-77.253-4.352V270.5h1919v147.59c-33.246,13.931-78.529,24.164-143.375,18.283-62.141-5.637-101.134-7.846-136.612,6.829s-93.381,43.315-194.748,44.567c-2.58.032-5.116.048-7.632.048C1453.417,487.816,1402.995,464.681,1344.791,440.829Z" transform="translate(-112.635 -270)" stroke="rgba(0,0,0,0)" stroke-width="1" fill="url(#radial-gradient)"/>
</svg>
