<svg xmlns="http://www.w3.org/2000/svg" width="185.34" height="493.329" viewBox="0 0 185.34 493.329">
  <g id="旅遊bg_右" transform="translate(-3221.663 -502.138)">
    <g id="组_736" data-name="组 736" transform="translate(3221.663 502.138)">
      <path id="路径_1556" data-name="路径 1556" d="M3221.663,661.63c0-4.818,3.361-9.952,9.978-9.455,4.806.361,8.725,3.905,8.725,8.724a10,10,0,0,1-9.007,9.52A8.537,8.537,0,0,1,3221.663,661.63Z" transform="translate(-3221.663 -464.271)" fill="#d88787"/>
      <path id="路径_1557" data-name="路径 1557" d="M3267.6,610.582c0-3.522,2.456-7.274,7.293-6.911a6.559,6.559,0,0,1,6.376,6.376,7.309,7.309,0,0,1-6.583,6.959A6.24,6.24,0,0,1,3267.6,610.582Z" transform="translate(-3210.066 -476.513)" fill="#d88787"/>
      <path id="路径_1558" data-name="路径 1558" d="M3337.559,676.752c0-3.707,2.585-7.657,7.675-7.274,3.7.277,6.712,3,6.712,6.71a7.692,7.692,0,0,1-6.93,7.324A6.565,6.565,0,0,1,3337.559,676.752Z" transform="translate(-3192.406 -459.901)" fill="#d88787"/>
      <path id="路径_1559" data-name="路径 1559" d="M3283.676,674.264c0-4.818,3.362-9.953,9.979-9.456,4.8.361,8.723,3.906,8.723,8.724a10,10,0,0,1-9.007,9.521A8.537,8.537,0,0,1,3283.676,674.264Z" transform="translate(-3206.009 -461.082)" fill="#d88787"/>
      <path id="路径_1560" data-name="路径 1560" d="M3272.521,681a10,10,0,0,1-9.007,9.52,8.537,8.537,0,0,1-9.7-8.79c0-4.818,3.361-9.952,9.978-9.455C3268.6,672.633,3272.521,676.178,3272.521,681Z" transform="translate(-3213.546 -459.198)" fill="#d88787"/>
      <path id="路径_1561" data-name="路径 1561" d="M3346.786,823.751a7.309,7.309,0,0,1-6.584,6.959,6.238,6.238,0,0,1-7.084-6.424c0-3.522,2.457-7.274,7.292-6.911A6.56,6.56,0,0,1,3346.786,823.751Z" transform="translate(-3193.528 -422.566)" fill="#d88787"/>
      <path id="路径_1562" data-name="路径 1562" d="M3313.435,662.268a6.566,6.566,0,0,1-7.457-6.762c0-3.706,2.585-7.656,7.676-7.274,3.7.278,6.712,3.006,6.712,6.712A7.693,7.693,0,0,1,3313.435,662.268Z" transform="translate(-3200.379 -465.265)" fill="#d88787"/>
      <path id="路径_1563" data-name="路径 1563" d="M3341.571,583.029a6.567,6.567,0,0,1-7.458-6.762c0-3.706,2.586-7.656,7.676-7.274,3.7.278,6.711,3.006,6.711,6.712A7.693,7.693,0,0,1,3341.571,583.029Z" transform="translate(-3193.277 -485.268)" fill="#d88787"/>
      <path id="路径_1564" data-name="路径 1564" d="M3326.76,545.755a4.816,4.816,0,0,1-5.469-4.96,5.282,5.282,0,0,1,10.552-.412A5.641,5.641,0,0,1,3326.76,545.755Z" transform="translate(-3196.513 -493.731)" fill="#d88787"/>
      <path id="路径_1565" data-name="路径 1565" d="M3354.019,572.95c0-2.718,1.847-5.615,5.582-5.334a5.028,5.028,0,0,1,3.719,1.826v6.286a5.134,5.134,0,0,1-3.879,2.182A4.777,4.777,0,0,1,3354.019,572.95Z" transform="translate(-3188.252 -485.614)" fill="#d88787"/>
      <path id="路径_1566" data-name="路径 1566" d="M3288.862,626.717a4.817,4.817,0,0,1-5.469-4.96,5.282,5.282,0,0,1,10.552-.412A5.644,5.644,0,0,1,3288.862,626.717Z" transform="translate(-3206.08 -473.293)" fill="#d88787"/>
      <path id="路径_1567" data-name="路径 1567" d="M3297.475,599.155a4.816,4.816,0,0,1-5.469-4.958,5.282,5.282,0,0,1,10.552-.413A5.642,5.642,0,0,1,3297.475,599.155Z" transform="translate(-3203.906 -480.251)" fill="#d88787"/>
      <path id="路径_1568" data-name="路径 1568" d="M3255.56,642.794a4.817,4.817,0,0,1-5.47-4.959,5.282,5.282,0,0,1,10.552-.413A5.641,5.641,0,0,1,3255.56,642.794Z" transform="translate(-3214.488 -469.234)" fill="#d88787"/>
      <path id="路径_1569" data-name="路径 1569" d="M3265.784,774.85c0-4.818,3.361-9.952,9.979-9.455,4.8.361,8.724,3.905,8.724,8.724a10,10,0,0,1-9.009,9.52A8.537,8.537,0,0,1,3265.784,774.85Z" transform="translate(-3210.525 -435.69)" fill="#d88787"/>
      <path id="路径_1570" data-name="路径 1570" d="M3308.941,607.729c0-3.707,2.585-7.657,7.677-7.274,3.7.277,6.711,3,6.711,6.711a7.692,7.692,0,0,1-6.93,7.324A6.567,6.567,0,0,1,3308.941,607.729Z" transform="translate(-3199.631 -477.325)" fill="#d88787"/>
      <path id="路径_1571" data-name="路径 1571" d="M3311.238,630.7c0-3.706,2.585-7.656,7.676-7.274,3.7.278,6.711,3.006,6.711,6.712a7.693,7.693,0,0,1-6.931,7.324A6.566,6.566,0,0,1,3311.238,630.7Z" transform="translate(-3199.051 -471.528)" fill="#d88787"/>
      <path id="路径_1572" data-name="路径 1572" d="M3338.126,616.332a6.567,6.567,0,0,1-7.458-6.761c0-3.707,2.585-7.657,7.676-7.274,3.7.278,6.712,3,6.712,6.712A7.692,7.692,0,0,1,3338.126,616.332Z" transform="translate(-3194.146 -476.86)" fill="#d88787"/>
      <path id="路径_1573" data-name="路径 1573" d="M3354.32,598.581a4.816,4.816,0,0,1-5.469-4.96,5.282,5.282,0,0,1,10.552-.412A5.641,5.641,0,0,1,3354.32,598.581Z" transform="translate(-3189.556 -480.395)" fill="#d88787"/>
      <path id="路径_1574" data-name="路径 1574" d="M3362.18,608.524v9.991a5.064,5.064,0,0,1-3.643-4.837A5.139,5.139,0,0,1,3362.18,608.524Z" transform="translate(-3187.112 -475.282)" fill="#d88787"/>
      <path id="路径_1575" data-name="路径 1575" d="M3342.244,628.974c0-3.707,2.587-7.657,7.677-7.274,3.7.278,6.711,3,6.711,6.712a7.694,7.694,0,0,1-6.929,7.324A6.569,6.569,0,0,1,3342.244,628.974Z" transform="translate(-3191.223 -471.962)" fill="#d88787"/>
      <path id="路径_1576" data-name="路径 1576" d="M3360,813.959a6.567,6.567,0,0,1-7.457-6.762c0-3.706,2.585-7.656,7.676-7.274,3.7.278,6.712,3.006,6.712,6.712A7.693,7.693,0,0,1,3360,813.959Z" transform="translate(-3188.624 -426.972)" fill="#d88787"/>
      <path id="路径_1577" data-name="路径 1577" d="M3349.211,702.04a4.817,4.817,0,0,1-5.469-4.96,5.282,5.282,0,0,1,10.552-.412A5.644,5.644,0,0,1,3349.211,702.04Z" transform="translate(-3190.846 -454.279)" fill="#d88787"/>
      <path id="路径_1578" data-name="路径 1578" d="M3309,758.271c0-3.706,2.586-7.656,7.677-7.274,3.7.278,6.712,3,6.712,6.712a7.692,7.692,0,0,1-6.93,7.324A6.568,6.568,0,0,1,3309,758.271Z" transform="translate(-3199.616 -439.323)" fill="#d88787"/>
      <path id="路径_1579" data-name="路径 1579" d="M3345.748,786.407c0-3.707,2.585-7.657,7.676-7.274,3.7.278,6.712,3,6.712,6.712a7.694,7.694,0,0,1-6.931,7.324A6.568,6.568,0,0,1,3345.748,786.407Z" transform="translate(-3190.339 -432.22)" fill="#d88787"/>
      <path id="路径_1580" data-name="路径 1580" d="M3244.532,703.61a6.567,6.567,0,0,1-7.458-6.762c0-3.706,2.585-7.656,7.676-7.273,3.7.277,6.712,3,6.712,6.711A7.693,7.693,0,0,1,3244.532,703.61Z" transform="translate(-3217.773 -454.828)" fill="#d88787"/>
      <path id="路径_1581" data-name="路径 1581" d="M3274.508,641.646a4.816,4.816,0,0,1-5.469-4.96,5.282,5.282,0,0,1,10.552-.412A5.643,5.643,0,0,1,3274.508,641.646Z" transform="translate(-3209.704 -469.525)" fill="#d88787"/>
      <path id="路径_1582" data-name="路径 1582" d="M3272.784,662.317a4.816,4.816,0,0,1-5.469-4.96,5.282,5.282,0,0,1,10.553-.412A5.644,5.644,0,0,1,3272.784,662.317Z" transform="translate(-3210.139 -464.306)" fill="#d88787"/>
      <path id="路径_1583" data-name="路径 1583" d="M3253.836,665.762a4.816,4.816,0,0,1-5.469-4.96,5.282,5.282,0,0,1,10.552-.412A5.641,5.641,0,0,1,3253.836,665.762Z" transform="translate(-3214.922 -463.436)" fill="#d88787"/>
      <path id="路径_1584" data-name="路径 1584" d="M3307.237,729.5a4.816,4.816,0,0,1-5.469-4.96,5.282,5.282,0,0,1,10.552-.412A5.643,5.643,0,0,1,3307.237,729.5Z" transform="translate(-3201.442 -447.347)" fill="#d88787"/>
      <path id="路径_1585" data-name="路径 1585" d="M3347.47,841.53c0-3.707,2.586-7.657,7.676-7.274,3.7.277,6.711,3,6.711,6.711a7.692,7.692,0,0,1-6.93,7.324A6.567,6.567,0,0,1,3347.47,841.53Z" transform="translate(-3189.905 -418.305)" fill="#d88787"/>
      <path id="路径_1586" data-name="路径 1586" d="M3286.547,644.477c0-3.707,2.586-7.656,7.676-7.274,3.7.278,6.711,3,6.711,6.712a7.693,7.693,0,0,1-6.93,7.324A6.567,6.567,0,0,1,3286.547,644.477Z" transform="translate(-3205.284 -468.049)" fill="#d88787"/>
      <path id="路径_1587" data-name="路径 1587" d="M3319.177,690.978a6.567,6.567,0,0,1-7.457-6.762c0-3.706,2.585-7.656,7.677-7.274,3.7.278,6.711,3,6.711,6.712A7.693,7.693,0,0,1,3319.177,690.978Z" transform="translate(-3198.929 -458.017)" fill="#d88787"/>
      <path id="路径_1588" data-name="路径 1588" d="M3336.52,651.981a4.816,4.816,0,0,1-5.469-4.958,5.282,5.282,0,0,1,10.552-.413A5.641,5.641,0,0,1,3336.52,651.981Z" transform="translate(-3194.049 -466.915)" fill="#d88787"/>
      <path id="路径_1589" data-name="路径 1589" d="M3322.741,709.975a4.817,4.817,0,0,1-5.471-4.96,5.283,5.283,0,0,1,10.553-.412A5.642,5.642,0,0,1,3322.741,709.975Z" transform="translate(-3197.528 -452.275)" fill="#d88787"/>
      <path id="路径_1590" data-name="路径 1590" d="M3273.915,696.155c0-3.707,2.585-7.657,7.676-7.274,3.7.278,6.712,3,6.712,6.712a7.692,7.692,0,0,1-6.93,7.323A6.567,6.567,0,0,1,3273.915,696.155Z" transform="translate(-3208.473 -455.003)" fill="#d88787"/>
      <path id="路径_1591" data-name="路径 1591" d="M3336.561,863.349c0-3.707,2.585-7.656,7.676-7.274,3.7.278,6.712,3,6.712,6.712a7.693,7.693,0,0,1-6.931,7.324A6.567,6.567,0,0,1,3336.561,863.349Z" transform="translate(-3192.659 -412.797)" fill="#d88787"/>
      <path id="路径_1592" data-name="路径 1592" d="M3329.571,855.3a6.566,6.566,0,0,1-7.457-6.762c0-3.706,2.585-7.656,7.675-7.273,3.7.277,6.712,3,6.712,6.711A7.693,7.693,0,0,1,3329.571,855.3Z" transform="translate(-3196.305 -416.536)" fill="#d88787"/>
      <path id="路径_1593" data-name="路径 1593" d="M3334.856,750.272a4.816,4.816,0,0,1-5.469-4.96,5.282,5.282,0,0,1,10.552-.412A5.642,5.642,0,0,1,3334.856,750.272Z" transform="translate(-3194.469 -442.103)" fill="#d88787"/>
      <path id="路径_1594" data-name="路径 1594" d="M3235.462,635.33a4.817,4.817,0,0,1-5.469-4.96,5.282,5.282,0,0,1,10.552-.412A5.643,5.643,0,0,1,3235.462,635.33Z" transform="translate(-3219.561 -471.119)" fill="#d88787"/>
      <path id="路径_1595" data-name="路径 1595" d="M3326.243,786.446a4.816,4.816,0,0,1-5.469-4.958,5.282,5.282,0,0,1,10.552-.413A5.641,5.641,0,0,1,3326.243,786.446Z" transform="translate(-3196.644 -432.971)" fill="#d88787"/>
      <path id="路径_1596" data-name="路径 1596" d="M3236.037,682.414a4.817,4.817,0,0,1-5.47-4.96,5.282,5.282,0,0,1,10.552-.412A5.644,5.644,0,0,1,3236.037,682.414Z" transform="translate(-3219.416 -459.233)" fill="#d88787"/>
      <path id="路径_1597" data-name="路径 1597" d="M3299.812,818.562c0-3.707,2.585-7.657,7.676-7.274,3.7.278,6.712,3,6.712,6.712a7.692,7.692,0,0,1-6.93,7.323A6.567,6.567,0,0,1,3299.812,818.562Z" transform="translate(-3201.935 -424.103)" fill="#d88787"/>
      <path id="路径_1598" data-name="路径 1598" d="M3307.3,696.982c-1.47,3.2-5.268,5.585-9.511,3.236a6.558,6.558,0,0,1-3.134-8.455,7.308,7.308,0,0,1,8.886-3.576A6.24,6.24,0,0,1,3307.3,696.982Z" transform="translate(-3203.38 -455.273)" fill="#d88787"/>
      <path id="路径_1599" data-name="路径 1599" d="M3311.365,845.847c-1.547,3.369-5.544,5.879-10.011,3.407-3.243-1.795-4.846-5.531-3.3-8.9a7.691,7.691,0,0,1,9.354-3.764A6.567,6.567,0,0,1,3311.365,845.847Z" transform="translate(-3202.529 -417.816)" fill="#d88787"/>
      <path id="路径_1600" data-name="路径 1600" d="M3232.13,703.948a6.566,6.566,0,0,1,3.955,9.257c-1.547,3.369-5.544,5.879-10.01,3.407-3.243-1.795-4.846-5.531-3.3-8.9A7.7,7.7,0,0,1,3232.13,703.948Z" transform="translate(-3221.532 -451.3)" fill="#d88787"/>
      <path id="路径_1601" data-name="路径 1601" d="M3349.791,760.83a4.817,4.817,0,0,1,2.9,6.789,5.282,5.282,0,0,1-9.761-4.028A5.642,5.642,0,0,1,3349.791,760.83Z" transform="translate(-3191.161 -436.912)" fill="#d88787"/>
      <path id="路径_1602" data-name="路径 1602" d="M3250.97,590.191a4.816,4.816,0,0,1,2.9,6.789,5.282,5.282,0,0,1-9.762-4.029A5.64,5.64,0,0,1,3250.97,590.191Z" transform="translate(-3216.106 -479.988)" fill="#d88787"/>
      <path id="路径_1603" data-name="路径 1603" d="M3334.8,544.83a4.816,4.816,0,0,1,2.9,6.788,5.282,5.282,0,0,1-9.762-4.028A5.642,5.642,0,0,1,3334.8,544.83Z" transform="translate(-3194.944 -491.439)" fill="#d88787"/>
      <path id="路径_1604" data-name="路径 1604" d="M3356.624,651.63a4.817,4.817,0,0,1,2.9,6.79,5.282,5.282,0,0,1-9.762-4.029A5.642,5.642,0,0,1,3356.624,651.63Z" transform="translate(-3189.436 -464.478)" fill="#d88787"/>
      <path id="路径_1605" data-name="路径 1605" d="M3257.485,720.392a4.817,4.817,0,0,1,2.9,6.789,5.282,5.282,0,0,1-9.762-4.028A5.644,5.644,0,0,1,3257.485,720.392Z" transform="translate(-3214.462 -447.12)" fill="#d88787"/>
      <path id="路径_1606" data-name="路径 1606" d="M3299.49,862.6a4.816,4.816,0,0,1,2.9,6.788,5.282,5.282,0,0,1-9.762-4.028A5.64,5.64,0,0,1,3299.49,862.6Z" transform="translate(-3203.858 -411.221)" fill="#d88787"/>
      <path id="路径_1607" data-name="路径 1607" d="M3335.885,894.469c-1.547,3.368-5.545,5.879-10.011,3.407-3.244-1.795-4.846-5.532-3.3-8.9a7.694,7.694,0,0,1,9.354-3.765A6.567,6.567,0,0,1,3335.885,894.469Z" transform="translate(-3196.339 -405.542)" fill="#d88787"/>
      <path id="路径_1608" data-name="路径 1608" d="M3338.215,809.476c-1.547,3.369-5.545,5.879-10.011,3.408-3.244-1.8-4.845-5.532-3.3-8.9a7.7,7.7,0,0,1,9.354-3.763A6.567,6.567,0,0,1,3338.215,809.476Z" transform="translate(-3195.751 -426.997)" fill="#d88787"/>
      <path id="路径_1609" data-name="路径 1609" d="M3350.276,874.47a6.567,6.567,0,0,1,3.955,9.257c-1.547,3.369-5.545,5.88-10.011,3.408-3.244-1.795-4.846-5.532-3.3-8.9A7.694,7.694,0,0,1,3350.276,874.47Z" transform="translate(-3191.708 -408.254)" fill="#d88787"/>
      <path id="路径_1610" data-name="路径 1610" d="M3325.845,822.677a4.816,4.816,0,0,1,2.9,6.789,5.282,5.282,0,0,1-9.761-4.029A5.642,5.642,0,0,1,3325.845,822.677Z" transform="translate(-3197.206 -421.3)" fill="#d88787"/>
      <path id="路径_1611" data-name="路径 1611" d="M3266.8,807.5a4.816,4.816,0,0,1,2.9,6.79,5.282,5.282,0,0,1-9.761-4.029A5.641,5.641,0,0,1,3266.8,807.5Z" transform="translate(-3212.111 -425.131)" fill="#d88787"/>
      <path id="路径_1612" data-name="路径 1612" d="M3275.472,861.573a4.816,4.816,0,0,1,2.9,6.788,5.282,5.282,0,0,1-9.762-4.028A5.642,5.642,0,0,1,3275.472,861.573Z" transform="translate(-3209.922 -411.481)" fill="#d88787"/>
      <path id="路径_1613" data-name="路径 1613" d="M3327.084,860.631a4.815,4.815,0,0,1,2.9,6.788,5.282,5.282,0,0,1-9.761-4.028A5.642,5.642,0,0,1,3327.084,860.631Z" transform="translate(-3196.893 -411.719)" fill="#d88787"/>
      <path id="路径_1614" data-name="路径 1614" d="M3371.906,857.818c-1.547,3.369-5.545,5.88-10.01,3.408-3.244-1.795-4.846-5.532-3.3-8.9a7.693,7.693,0,0,1,9.354-3.765A6.567,6.567,0,0,1,3371.906,857.818Z" transform="translate(-3187.246 -414.794)" fill="#d88787"/>
      <path id="路径_1615" data-name="路径 1615" d="M3276.76,712.816a4.816,4.816,0,0,1,2.9,6.789,5.282,5.282,0,0,1-9.761-4.029A5.642,5.642,0,0,1,3276.76,712.816Z" transform="translate(-3209.597 -449.033)" fill="#d88787"/>
      <path id="路径_1616" data-name="路径 1616" d="M3267.583,706.095c-1.547,3.369-5.544,5.879-10.011,3.407-3.243-1.795-4.845-5.532-3.3-8.9a7.691,7.691,0,0,1,9.354-3.763A6.567,6.567,0,0,1,3267.583,706.095Z" transform="translate(-3213.581 -453.095)" fill="#d88787"/>
      <path id="路径_1617" data-name="路径 1617" d="M3355.47,512.452a4.818,4.818,0,0,1-5.471-4.96,5.283,5.283,0,0,1,10.553-.412A5.643,5.643,0,0,1,3355.47,512.452Z" transform="translate(-3189.266 -502.138)" fill="#d88787"/>
      <path id="路径_1618" data-name="路径 1618" d="M3246.354,615.193c0-3.707,2.585-7.656,7.676-7.274,3.7.278,6.712,3,6.712,6.712a7.693,7.693,0,0,1-6.931,7.324A6.567,6.567,0,0,1,3246.354,615.193Z" transform="translate(-3215.43 -475.441)" fill="#d88787"/>
    </g>
  </g>
</svg>
