<svg xmlns="http://www.w3.org/2000/svg" width="275.316" height="1149.394" viewBox="0 0 275.316 1149.394">
  <g id="旅遊bg左" transform="translate(0.504 -2732)">
    <g id="组_735" data-name="组 735" transform="translate(-1993.487 2497.307)">
      <path id="路径_1550" data-name="路径 1550" d="M2187.479,328.955c5.088,17.486,32.028,25.853,48.155,18.16,27.658-13.195,31.489-48.561,12.4-61.417C2231.194,274.351,2179.354,301.039,2187.479,328.955Z" transform="translate(8.405 8.243)" fill="#fff"/>
      <path id="路径_1551" data-name="路径 1551" d="M2147.393,273.622c.956,9.075,14.394,16.641,22.476,12.785,13.86-6.611,13.352-24.07,3.788-30.513C2165.216,250.209,2145.424,254.91,2147.393,273.622Z" transform="translate(1.691 3.23)" fill="#fff"/>
      <path id="路径_1552" data-name="路径 1552" d="M2137.409,312.688c.465,4.41,6.994,8.086,10.921,6.212,6.734-3.212,6.487-11.7,1.84-14.826C2146.069,301.311,2136.452,303.595,2137.409,312.688Z" transform="translate(0 11.646)" fill="#fff"/>
      <path id="路径_1553" data-name="路径 1553" d="M2201.771,244.408c.465,4.411,6.994,8.086,10.921,6.213,6.734-3.213,6.487-11.7,1.84-14.828C2210.43,233.031,2200.814,235.315,2201.771,244.408Z" transform="translate(10.978)" fill="#fff"/>
      <path id="路径_1554" data-name="路径 1554" d="M2187.693,284.449c2.786,3.45,10.265,2.987,12.544-.719,3.908-6.356-.908-13.344-6.511-13.447C2188.782,270.192,2181.95,277.336,2187.693,284.449Z" transform="translate(8.215 6.07)" fill="#fff"/>
      <path id="路径_1555" data-name="路径 1555" d="M2181.536,254.415c1.857,2.3,6.847,1.993,8.366-.479,2.607-4.24-.606-8.9-4.343-8.969C2182.262,244.906,2177.705,249.67,2181.536,254.415Z" transform="translate(7.289 1.752)" fill="#fff"/>
    </g>
    <g id="组_734" data-name="组 734" transform="translate(-2129.371 3141.665)">
      <g id="组_689" data-name="组 689" transform="translate(2184.365 519.922)">
        <path id="路径_1505" data-name="路径 1505" d="M2188.836,472.6c0,5.759-4.018,11.9-11.927,11.3-5.744-.431-10.429-4.669-10.429-10.427s5.028-10.9,10.769-11.381C2184.664,461.478,2188.836,466.841,2188.836,472.6Z" transform="translate(-2166.48 -462.046)" fill="#8eb4cf"/>
      </g>
      <g id="组_690" data-name="组 690" transform="translate(2128.867 598.415)">
        <path id="路径_1506" data-name="路径 1506" d="M2129.342,515.278a7.573,7.573,0,0,1,8.61,7.677c0,4.21-3.076,8.7-8.858,8.26l-.227-.013V515.337C2129.51,515.315,2129.191,515.29,2129.342,515.278Z" transform="translate(-2128.867 -515.243)" fill="#8eb4cf"/>
      </g>
      <g id="组_691" data-name="组 691" transform="translate(2131.073 633.386)">
        <path id="路径_1507" data-name="路径 1507" d="M2152.716,549.5c0,5.759-4.016,11.9-11.927,11.3-5.742-.432-10.427-4.669-10.427-10.429s5.027-10.9,10.767-11.379C2148.545,538.374,2152.716,543.739,2152.716,549.5Z" transform="translate(-2130.362 -538.944)" fill="#8eb4cf"/>
      </g>
      <g id="组_692" data-name="组 692" transform="translate(2136.23 489.837)">
        <path id="路径_1508" data-name="路径 1508" d="M2156.211,452.211c0,5.759-4.017,11.9-11.927,11.3-5.743-.432-10.428-4.67-10.428-10.429s5.028-10.9,10.767-11.379C2152.04,441.087,2156.211,446.452,2156.211,452.211Z" transform="translate(-2133.857 -441.657)" fill="#8eb4cf"/>
      </g>
      <g id="组_693" data-name="组 693" transform="translate(2235.078 524.491)">
        <path id="路径_1509" data-name="路径 1509" d="M2208.47,481.116c-4.2-.316-7.621-3.411-7.621-7.621a8.734,8.734,0,0,1,7.869-8.316,7.457,7.457,0,0,1,8.47,7.677C2217.188,477.065,2214.251,481.551,2208.47,481.116Z" transform="translate(-2200.849 -465.143)" fill="#8eb4cf"/>
      </g>
      <g id="组_694" data-name="组 694" transform="translate(2151.555 558.898)">
        <path id="路径_1510" data-name="路径 1510" d="M2156.856,494.416c0,3.249-2.267,6.712-6.73,6.376a6.051,6.051,0,0,1-5.883-5.883,6.742,6.742,0,0,1,6.075-6.42A5.756,5.756,0,0,1,2156.856,494.416Z" transform="translate(-2144.243 -488.461)" fill="#8eb4cf"/>
      </g>
      <g id="组_695" data-name="组 695" transform="translate(2189.524 596.425)">
        <path id="路径_1511" data-name="路径 1511" d="M2180.743,513.943c7.416-.618,11.587,4.747,11.587,10.506s-4.016,11.9-11.926,11.3c-5.743-.432-10.427-4.669-10.427-10.429S2175,514.421,2180.743,513.943Z" transform="translate(-2169.976 -513.894)" fill="#8eb4cf"/>
      </g>
      <g id="组_696" data-name="组 696" transform="translate(2196.4 628.176)">
        <path id="路径_1512" data-name="路径 1512" d="M2182.658,552.227c-4.417-.332-8.023-3.591-8.023-8.022a9.2,9.2,0,0,1,8.284-8.754,7.85,7.85,0,0,1,8.913,8.083C2191.833,547.962,2188.743,552.684,2182.658,552.227Z" transform="translate(-2174.636 -535.413)" fill="#8eb4cf"/>
      </g>
      <g id="组_697" data-name="组 697" transform="translate(2205.134 549.776)">
        <path id="路径_1513" data-name="路径 1513" d="M2197.752,490.4c0,4.43-3.09,9.151-9.175,8.694-4.418-.332-8.022-3.591-8.022-8.022a9.2,9.2,0,0,1,8.284-8.754A7.849,7.849,0,0,1,2197.752,490.4Z" transform="translate(-2180.555 -482.279)" fill="#8eb4cf"/>
      </g>
      <g id="组_698" data-name="组 698" transform="translate(2186.796 720.498)">
        <path id="路径_1514" data-name="路径 1514" d="M2168.127,604.43a6.743,6.743,0,0,1,6.076-6.42,5.756,5.756,0,0,1,6.536,5.927c0,3.249-2.265,6.712-6.728,6.376A6.052,6.052,0,0,1,2168.127,604.43Z" transform="translate(-2168.127 -597.982)" fill="#8eb4cf"/>
      </g>
      <g id="组_699" data-name="组 699" transform="translate(2222.899 716.2)">
        <path id="路径_1515" data-name="路径 1515" d="M2192.595,601.517a6.744,6.744,0,0,1,6.075-6.42,5.756,5.756,0,0,1,6.538,5.927c0,3.249-2.267,6.712-6.73,6.377A6.053,6.053,0,0,1,2192.595,601.517Z" transform="translate(-2192.595 -595.069)" fill="#8eb4cf"/>
      </g>
      <g id="组_700" data-name="组 700" transform="translate(2207.427 676.659)">
        <path id="路径_1516" data-name="路径 1516" d="M2182.109,574.719a6.744,6.744,0,0,1,6.075-6.42,5.757,5.757,0,0,1,6.538,5.927c0,3.251-2.267,6.712-6.73,6.377A6.052,6.052,0,0,1,2182.109,574.719Z" transform="translate(-2182.109 -568.271)" fill="#8eb4cf"/>
      </g>
      <g id="组_701" data-name="组 701" transform="translate(2167.027 656.03)">
        <path id="路径_1517" data-name="路径 1517" d="M2154.729,560.738a6.743,6.743,0,0,1,6.074-6.42,5.757,5.757,0,0,1,6.539,5.927c0,3.249-2.267,6.712-6.73,6.377A6.053,6.053,0,0,1,2154.729,560.738Z" transform="translate(-2154.729 -554.29)" fill="#8eb4cf"/>
      </g>
      <g id="组_702" data-name="组 702" transform="translate(2215.31 580.9)">
        <path id="路径_1518" data-name="路径 1518" d="M2204.649,511.491c0,4.431-3.09,9.151-9.175,8.7-4.418-.332-8.022-3.593-8.022-8.022a9.2,9.2,0,0,1,8.284-8.754A7.847,7.847,0,0,1,2204.649,511.491Z" transform="translate(-2187.452 -503.373)" fill="#8eb4cf"/>
      </g>
      <g id="组_703" data-name="组 703" transform="translate(2166.453 468.976)">
        <path id="路径_1519" data-name="路径 1519" d="M2162.624,427.556a7.849,7.849,0,0,1,8.914,8.081c0,4.431-3.09,9.153-9.175,8.7-4.418-.332-8.022-3.591-8.022-8.022A9.194,9.194,0,0,1,2162.624,427.556Z" transform="translate(-2154.34 -427.519)" fill="#8eb4cf"/>
      </g>
      <g id="组_704" data-name="组 704" transform="translate(2128.867 560.617)">
        <path id="路径_1520" data-name="路径 1520" d="M2135.8,495.581a6.218,6.218,0,0,1-6.87,6.377l-.063,0V489.672l.255-.018A5.873,5.873,0,0,1,2135.8,495.581Z" transform="translate(-2128.867 -489.626)" fill="#8eb4cf"/>
      </g>
      <g id="组_705" data-name="组 705" transform="translate(2128.867 529.673)">
        <path id="路径_1521" data-name="路径 1521" d="M2138.379,474.609a6.219,6.219,0,0,1-6.87,6.377,7.963,7.963,0,0,1-2.643-.682V469.555a7.081,7.081,0,0,1,2.833-.874A5.873,5.873,0,0,1,2138.379,474.609Z" transform="translate(-2128.867 -468.654)" fill="#8eb4cf"/>
      </g>
      <g id="组_706" data-name="组 706" transform="translate(2154.132 524.514)">
        <path id="路径_1522" data-name="路径 1522" d="M2158.6,471.114c0,3.249-2.267,6.711-6.729,6.376a6.053,6.053,0,0,1-5.884-5.883,6.744,6.744,0,0,1,6.074-6.421A5.757,5.757,0,0,1,2158.6,471.114Z" transform="translate(-2145.99 -465.158)" fill="#8eb4cf"/>
      </g>
      <g id="组_707" data-name="组 707" transform="translate(2212.733 498.38)">
        <path id="路径_1523" data-name="路径 1523" d="M2193.989,447.484a7.85,7.85,0,0,1,8.914,8.081c0,4.431-3.092,9.153-9.176,8.7-4.418-.332-8.021-3.591-8.021-8.022A9.194,9.194,0,0,1,2193.989,447.484Z" transform="translate(-2185.705 -447.447)" fill="#8eb4cf"/>
      </g>
      <g id="组_708" data-name="组 708" transform="translate(2229.063 465.717)">
        <path id="路径_1524" data-name="路径 1524" d="M2204.8,442.124c-4.418-.332-8.022-3.591-8.022-8.022a9.2,9.2,0,0,1,8.283-8.754,7.849,7.849,0,0,1,8.914,8.081C2213.97,437.859,2210.88,442.581,2204.8,442.124Z" transform="translate(-2196.773 -425.31)" fill="#8eb4cf"/>
      </g>
      <g id="组_709" data-name="组 709" transform="translate(2250.692 487.886)">
        <path id="路径_1525" data-name="路径 1525" d="M2211.431,449.126a9.194,9.194,0,0,1,8.284-8.754,7.85,7.85,0,0,1,8.913,8.081c0,4.431-3.09,9.153-9.175,8.7C2215.036,456.817,2211.431,453.557,2211.431,449.126Z" transform="translate(-2211.431 -440.335)" fill="#8eb4cf"/>
      </g>
      <g id="组_710" data-name="组 710" transform="translate(2244.388 643.996)">
        <path id="路径_1526" data-name="路径 1526" d="M2207.159,552.582a6.743,6.743,0,0,1,6.074-6.42,5.757,5.757,0,0,1,6.538,5.927c0,3.249-2.266,6.712-6.73,6.377A6.053,6.053,0,0,1,2207.159,552.582Z" transform="translate(-2207.159 -546.134)" fill="#8eb4cf"/>
      </g>
      <g id="组_711" data-name="组 711" transform="translate(2181.639 570.072)">
        <path id="路径_1527" data-name="路径 1527" d="M2177.244,501.989c0,3.249-2.266,6.712-6.728,6.377a6.054,6.054,0,0,1-5.884-5.884,6.744,6.744,0,0,1,6.074-6.42A5.757,5.757,0,0,1,2177.244,501.989Z" transform="translate(-2164.632 -496.034)" fill="#8eb4cf"/>
      </g>
      <g id="组_712" data-name="组 712" transform="translate(2257.281 589.843)">
        <path id="路径_1528" data-name="路径 1528" d="M2215.9,515.881a6.744,6.744,0,0,1,6.074-6.42,5.756,5.756,0,0,1,6.538,5.927c0,3.249-2.267,6.712-6.729,6.377A6.054,6.054,0,0,1,2215.9,515.881Z" transform="translate(-2215.897 -509.433)" fill="#8eb4cf"/>
      </g>
      <g id="组_713" data-name="组 713" transform="translate(2180.779 499.587)">
        <path id="路径_1529" data-name="路径 1529" d="M2164.049,454.712a6.744,6.744,0,0,1,6.076-6.42,5.757,5.757,0,0,1,6.538,5.927c0,3.251-2.266,6.712-6.73,6.377A6.053,6.053,0,0,1,2164.049,454.712Z" transform="translate(-2164.049 -448.264)" fill="#8eb4cf"/>
      </g>
      <g id="组_714" data-name="组 714" transform="translate(2150.694 687.834)">
        <path id="路径_1530" data-name="路径 1530" d="M2143.66,582.293a6.745,6.745,0,0,1,6.075-6.422,5.757,5.757,0,0,1,6.538,5.929c0,3.249-2.266,6.712-6.729,6.376A6.052,6.052,0,0,1,2143.66,582.293Z" transform="translate(-2143.66 -575.844)" fill="#8eb4cf"/>
      </g>
      <g id="组_715" data-name="组 715" transform="translate(2130.065 727.375)">
        <path id="路径_1531" data-name="路径 1531" d="M2129.679,609.09a6.743,6.743,0,0,1,6.075-6.42,5.757,5.757,0,0,1,6.538,5.927c0,3.249-2.267,6.712-6.73,6.377A6.052,6.052,0,0,1,2129.679,609.09Z" transform="translate(-2129.679 -602.643)" fill="#8eb4cf"/>
      </g>
      <g id="组_716" data-name="组 716" transform="translate(2210.667 396.953)">
        <path id="路径_1532" data-name="路径 1532" d="M2185.118,383.969c1.849-4.027,6.626-7.028,11.967-4.072,3.876,2.145,5.792,6.612,3.942,10.638a9.2,9.2,0,0,1-11.181,4.5A7.85,7.85,0,0,1,2185.118,383.969Z" transform="translate(-2184.305 -378.707)" fill="#8eb4cf"/>
      </g>
      <g id="组_717" data-name="组 717" transform="translate(2188.001 340.335)">
        <path id="路径_1533" data-name="路径 1533" d="M2185.664,352.163a9.194,9.194,0,0,1-11.18,4.5,7.85,7.85,0,0,1-4.727-11.065c1.849-4.027,6.626-7.026,11.966-4.072C2185.6,343.67,2187.515,348.136,2185.664,352.163Z" transform="translate(-2168.944 -340.335)" fill="#8eb4cf"/>
      </g>
      <g id="组_718" data-name="组 718" transform="translate(2188.512 448.066)">
        <path id="路径_1534" data-name="路径 1534" d="M2186.012,425.175a9.194,9.194,0,0,1-11.18,4.5,7.849,7.849,0,0,1-4.729-11.065c1.849-4.027,6.628-7.026,11.966-4.072C2185.945,416.682,2187.861,421.148,2186.012,425.175Z" transform="translate(-2169.29 -413.347)" fill="#8eb4cf"/>
      </g>
      <g id="组_719" data-name="组 719" transform="translate(2224.593 613.223)">
        <path id="路径_1535" data-name="路径 1535" d="M2203.115,526.151a6.053,6.053,0,0,1,2.892,7.8,6.744,6.744,0,0,1-8.2,3.3,5.757,5.757,0,0,1-3.468-8.115C2195.695,526.185,2199.2,523.985,2203.115,526.151Z" transform="translate(-2193.743 -525.279)" fill="#8eb4cf"/>
      </g>
      <g id="组_720" data-name="组 720" transform="translate(2160.984 622.679)">
        <path id="路径_1536" data-name="路径 1536" d="M2162.9,540.362a6.743,6.743,0,0,1-8.2,3.3,5.755,5.755,0,0,1-3.467-8.114c1.356-2.954,4.86-5.154,8.776-2.988A6.053,6.053,0,0,1,2162.9,540.362Z" transform="translate(-2150.634 -531.687)" fill="#8eb4cf"/>
      </g>
      <g id="组_721" data-name="组 721" transform="translate(2253.369 341.299)">
        <path id="路径_1537" data-name="路径 1537" d="M2213.842,344.848c1.356-2.953,4.861-5.154,8.777-2.987a6.053,6.053,0,0,1,2.89,7.8,6.743,6.743,0,0,1-8.2,3.3A5.757,5.757,0,0,1,2213.842,344.848Z" transform="translate(-2213.246 -340.989)" fill="#8eb4cf"/>
      </g>
      <g id="组_722" data-name="组 722" transform="translate(2151.234 427.766)">
        <path id="路径_1538" data-name="路径 1538" d="M2156.29,408.265a6.745,6.745,0,0,1-8.2,3.3,5.757,5.757,0,0,1-3.468-8.115c1.356-2.952,4.861-5.154,8.776-2.986A6.052,6.052,0,0,1,2156.29,408.265Z" transform="translate(-2144.026 -399.59)" fill="#8eb4cf"/>
      </g>
      <g id="组_723" data-name="组 723" transform="translate(2180.17 395.652)">
        <path id="路径_1539" data-name="路径 1539" d="M2164.232,381.684c1.357-2.953,4.862-5.154,8.776-2.986a6.053,6.053,0,0,1,2.892,7.8,6.743,6.743,0,0,1-8.2,3.3A5.757,5.757,0,0,1,2164.232,381.684Z" transform="translate(-2163.636 -377.825)" fill="#8eb4cf"/>
      </g>
      <g id="组_724" data-name="组 724" transform="translate(2250.655 422.707)">
        <path id="路径_1540" data-name="路径 1540" d="M2228.128,407.987a9.194,9.194,0,0,1-11.18,4.5,7.849,7.849,0,0,1-4.729-11.065c1.849-4.025,6.628-7.026,11.966-4.071C2228.062,399.5,2229.977,403.962,2228.128,407.987Z" transform="translate(-2211.406 -396.161)" fill="#8eb4cf"/>
      </g>
      <g id="组_725" data-name="组 725" transform="translate(2247.167 549.941)">
        <path id="路径_1541" data-name="路径 1541" d="M2209.855,487.651c1.85-4.025,6.628-7.026,11.967-4.071,3.878,2.145,5.792,6.612,3.943,10.637a9.194,9.194,0,0,1-11.18,4.5A7.85,7.85,0,0,1,2209.855,487.651Z" transform="translate(-2209.042 -482.391)" fill="#8eb4cf"/>
      </g>
      <g id="组_726" data-name="组 726" transform="translate(2223.19 438.786)">
        <path id="路径_1542" data-name="路径 1542" d="M2205.571,408.247c3.876,2.145,5.792,6.612,3.943,10.638a9.194,9.194,0,0,1-11.18,4.5,7.85,7.85,0,0,1-4.729-11.065C2195.454,408.293,2200.233,405.293,2205.571,408.247Z" transform="translate(-2192.792 -407.058)" fill="#8eb4cf"/>
      </g>
      <g id="组_727" data-name="组 727" transform="translate(2260.441 520.639)">
        <path id="路径_1543" data-name="路径 1543" d="M2218.634,466.39c1.358-2.953,4.862-5.152,8.777-2.986a6.054,6.054,0,0,1,2.892,7.8,6.744,6.744,0,0,1-8.2,3.3A5.757,5.757,0,0,1,2218.634,466.39Z" transform="translate(-2218.038 -462.532)" fill="#8eb4cf"/>
      </g>
      <g id="组_728" data-name="组 728" transform="translate(2258.587 463.822)">
        <path id="路径_1544" data-name="路径 1544" d="M2217.378,427.885c1.356-2.952,4.86-5.154,8.776-2.986a6.052,6.052,0,0,1,2.891,7.8,6.744,6.744,0,0,1-8.2,3.3A5.757,5.757,0,0,1,2217.378,427.885Z" transform="translate(-2216.782 -424.026)" fill="#8eb4cf"/>
      </g>
      <g id="组_729" data-name="组 729" transform="translate(2196.732 477.572)">
        <path id="路径_1545" data-name="路径 1545" d="M2187.64,434.533c3.876,2.145,5.792,6.612,3.943,10.638a9.2,9.2,0,0,1-11.182,4.5,7.85,7.85,0,0,1-4.727-11.065C2177.523,434.58,2182.3,431.579,2187.64,434.533Z" transform="translate(-2174.861 -433.344)" fill="#8eb4cf"/>
      </g>
      <g id="组_730" data-name="组 730" transform="translate(2128.867 439.146)">
        <path id="路径_1546" data-name="路径 1546" d="M2134.5,415.938a6.564,6.564,0,0,1-5.635,3.636V407.3a7.014,7.014,0,0,1,2.672.835C2134.382,409.71,2135.858,412.986,2134.5,415.938Z" transform="translate(-2128.867 -407.302)" fill="#8eb4cf"/>
      </g>
      <g id="组_731" data-name="组 731" transform="translate(2141.36 458.71)">
        <path id="路径_1547" data-name="路径 1547" d="M2154.056,432.389a9.2,9.2,0,0,1-11.181,4.5,7.85,7.85,0,0,1-4.728-11.065c1.849-4.027,6.628-7.026,11.967-4.072C2153.99,423.9,2155.9,428.362,2154.056,432.389Z" transform="translate(-2137.334 -420.561)" fill="#8eb4cf"/>
      </g>
      <g id="组_732" data-name="组 732" transform="translate(2132.558 392.196)">
        <path id="路径_1548" data-name="路径 1548" d="M2143.632,384.156a6.744,6.744,0,0,1-8.2,3.3,5.758,5.758,0,0,1-3.468-8.115c1.356-2.953,4.862-5.154,8.776-2.986A6.051,6.051,0,0,1,2143.632,384.156Z" transform="translate(-2131.368 -375.483)" fill="#8eb4cf"/>
      </g>
      <g id="组_733" data-name="组 733" transform="translate(2152.562 591.214)">
        <path id="路径_1549" data-name="路径 1549" d="M2162.123,518.483c0,4.429-3.091,9.151-9.176,8.694-4.418-.332-8.021-3.591-8.021-8.022a9.2,9.2,0,0,1,8.282-8.754A7.85,7.85,0,0,1,2162.123,518.483Z" transform="translate(-2144.926 -510.363)" fill="#8eb4cf"/>
      </g>
    </g>
  </g>
</svg>
